<svg xmlns="http://www.w3.org/2000/svg" viewBox="0 0 143.9 102.85"><defs><style>.cls-1{isolation:isolate;}.cls-2,.cls-7{fill:#dadada;}.cls-3{fill:#f4f4f4;}.cls-4{fill:#ebeaea;}.cls-5{fill:#006ec3;}.cls-13,.cls-16,.cls-24,.cls-33,.cls-6,.cls-7,.cls-9{mix-blend-mode:multiply;}.cls-8,.cls-9{fill:#d3c1a9;}.cls-10{fill:#cbbca5;}.cls-11{fill:#e5d5be;}.cls-12,.cls-13{fill:#c15914;}.cls-13,.cls-15,.cls-16,.cls-24,.cls-28{opacity:0.5;}.cls-14,.cls-15,.cls-16{fill:#e57428;}.cls-15,.cls-27,.cls-28{mix-blend-mode:screen;}.cls-17{fill:#c15b16;}.cls-18{fill:#d2a677;}.cls-19{fill:#7fa95f;}.cls-20{fill:#4b8b2d;}.cls-21{fill:#68b42e;}.cls-22{fill:#458b28;}.cls-23{fill:#abdb91;}.cls-25{fill:#db6c21;}.cls-26{fill:#fff;}.cls-29{fill:#bc2921;}.cls-30{fill:#e83426;}.cls-31{fill:#ee523b;}.cls-32,.cls-33{fill:#ca2c21;}.cls-34{fill:#ffbe60;}.cls-35{fill:#8ed20d;}.cls-36{fill:#b9ff2b;}</style></defs><g class="cls-1"><g id="Layer_1" data-name="Layer 1"><path class="cls-2" d="M143.51,96.19c0,15.19-30.36,27.51-67.82,27.51S7.88,111.38,7.88,96.19,38.24,68.67,75.69,68.67,143.51,81,143.51,96.19Z" transform="translate(-7.88 -20.85)"/><path class="cls-3" d="M143.51,94.8c0,15.2-30.36,27.52-67.82,27.52S7.88,110,7.88,94.8,38.24,67.29,75.69,67.29,143.51,79.61,143.51,94.8Z" transform="translate(-7.88 -20.85)"/><path class="cls-4" d="M121.94,92c0,10.36-20.7,18.76-46.25,18.76S29.44,102.33,29.44,92,50.15,73.21,75.69,73.21,121.94,81.61,121.94,92Z" transform="translate(-7.88 -20.85)"/><path class="cls-3" d="M120.34,92.31c0,9.84-20,17.81-44.65,17.81s-44.64-8-44.64-17.81,20-17.8,44.64-17.8S120.34,82.48,120.34,92.31Z" transform="translate(-7.88 -20.85)"/><path class="cls-5" d="M75.69,69.38c17.55,0,34,2.69,46.43,7.59,6,2.35,10.63,5.08,13.87,8.12s4.89,6.21,4.89,9.45S139.23,101,136,104s-7.91,5.76-13.87,8.12c-12.39,4.9-28.88,7.59-46.43,7.59s-34-2.69-46.42-7.59c-6-2.36-10.63-5.09-13.87-8.12s-4.89-6.21-4.89-9.45,1.64-6.42,4.89-9.45S23.31,79.32,29.27,77c12.39-4.9,28.87-7.59,46.42-7.59Zm0-1C39.17,68.4,9.55,80.1,9.55,94.54s29.62,26.14,66.14,26.14,66.14-11.7,66.14-26.14S112.22,68.4,75.69,68.4Z" transform="translate(-7.88 -20.85)"/><path class="cls-5" d="M75.69,70.47c16.89,0,32.76,2.52,44.69,7.08,5.77,2.22,10.29,4.78,13.45,7.63s4.82,6,4.82,9.09-1.62,6.19-4.82,9.09-7.68,5.42-13.45,7.63c-11.93,4.56-27.8,7.08-44.69,7.08S42.93,115.55,31,111c-5.77-2.21-10.29-4.78-13.44-7.63s-4.83-6-4.83-9.09,1.63-6.19,4.83-9.09S25.23,79.77,31,77.55C42.93,73,58.8,70.47,75.69,70.47Zm0-.49c-35,0-63.43,10.88-63.43,24.29s28.4,24.29,63.43,24.29,63.44-10.87,63.44-24.29S110.73,70,75.69,70Z" transform="translate(-7.88 -20.85)"/><g class="cls-6"><path class="cls-2" d="M79.23,102.4c-.81-1.89-3.81-2.31-6.64-1.76-3.46.67-6.33,2.29-6,4a6.19,6.19,0,0,0,6.5,4.86c5.45-.06,6.58-4.22,6.35-6.18A2.28,2.28,0,0,0,79.23,102.4Z" transform="translate(-7.88 -20.85)"/><path class="cls-2" d="M92.15,102.39s0,0,0,0a2.29,2.29,0,0,0-.22-.67c-1.11-2.19-4.57-2.34-7.28-1.22-3.12,1.29-5.23,3.68-4.77,5.69h0s1,5.79,7.82,3.94C91.43,108.83,93.21,105.2,92.15,102.39Z" transform="translate(-7.88 -20.85)"/><path class="cls-2" d="M56,101.92A2.86,2.86,0,1,0,58.54,105,2.82,2.82,0,0,0,56,101.92Z" transform="translate(-7.88 -20.85)"/><path class="cls-2" d="M63.64,103.85h-.38a3,3,0,0,0,.4-1.33,2.8,2.8,0,1,0-2.94,2.71H61a2.79,2.79,0,1,0,2.6-1.38Z" transform="translate(-7.88 -20.85)"/></g><path class="cls-7" d="M138.31,88.6c0-.06,0-.12,0-.18a.45.45,0,0,0,0-.11,2,2,0,0,0,0-.24l0-.11,0-.16a.65.65,0,0,1,0-.13l-.06-.2-.06-.16-.06-.14a.78.78,0,0,0-.05-.14,1,1,0,0,1-.07-.15c0-.07-.07-.15-.11-.22l-.06-.13-.09-.15-.06-.11c-.05-.1-.11-.2-.17-.3l0-.09-.12-.19,0-.06c-.83-1.3-2-2.78-3.3-4.72-1.86-2.84-3.86-6.07-5.33-8.48,0,0,0-.05,0-.08s-.15-.23-.22-.35l0-.06-.2-.34,0,0-.2-.33,0,0-.07-.12c2.23-5.48,4.42-9.94,6.16-10.59.4-.15.84-.32,1.29-.52-.81-.25-1.61-.48-2.43-.66-2-.45-4,.45-6,.18a21.33,21.33,0,0,1-9.22-3.79A30.55,30.55,0,0,1,110,47.39a27.77,27.77,0,0,1-2.74-5.13c-.15-.38-.29-.76-.43-1.13l-4.64-3.35a46.57,46.57,0,0,0-23.56-6.94c-1.3.13-2.6.21-3.85.31-2.35.2-4.7.27-7,.47l-.59.06.09.07-.47.09-.08-.12-1.31.14c.06.08.12.15.17.23l-.51.12h0c-1.47.35-2.89.75-4.23,1.2-22.29,8-29.67,27.46-32.23,32.38s-8.47,7.47-11,9.58-1.85,4-.89,7c.74,2.38.9,3.57.52,5.2-.05.24-.12.48-.19.74a0,0,0,0,0,0,0l-.12.37c0,.14-.09.29-.14.44a16.87,16.87,0,0,0-.65,2.61c-1.87,4.09-1.13,6.7-1.13,6.7.25,1,2.51,1.64,4.66,2a16.07,16.07,0,0,0,2.82.26c1.16.4,3.48.87,8,.83,7.73-.08,15-.46,26.05-1A37,37,0,0,0,66.05,99c7.26-.09,11.44.78,16.13-.58,3.56,1.65,8.65,2.89,15.39,3.12,13.37.46,35.35-4.45,39-8.91l.29-.36a.86.86,0,0,1,.07-.1c.08-.1.16-.22.23-.32l0,0,.22-.34.06-.09.16-.28,0,0,.16-.31a1,1,0,0,1,0-.1,1.73,1.73,0,0,0,.1-.24l0-.07c0-.1.07-.2.1-.29l0-.1a1.46,1.46,0,0,0,.05-.2.44.44,0,0,0,0-.1,2.38,2.38,0,0,0,.05-.26.38.38,0,0,0,0-.1c0-.07,0-.13,0-.19V89a1.13,1.13,0,0,0,0-.26Z" transform="translate(-7.88 -20.85)"/><path class="cls-8" d="M128.26,39.29s4.49-1.09,6.3-1.24,2.83-5.21,5.15-5.57,4.27,2.46,3.33,4.2a3.56,3.56,0,0,0,.15,4.13c.79,1.3,1.16,2.61,0,4.06s-8.48,3.47-8.48,3.47l-5.94-2.24S126.81,41.53,128.26,39.29Z" transform="translate(-7.88 -20.85)"/><path class="cls-9" d="M143,36.68a2.11,2.11,0,0,0,.24-1.08l0,0c-1.44,1.69-4.14,2.54-3.42,5.32.27,1,.84,2.24-.05,3.09s-3.05-.7-4.19-.52c-1.51.24-3.61,1.51-4.75-.22-.25-.39-.55-1-.3-1.43.41-.77-.2-1.52-.52-2.2a4.39,4.39,0,0,1-.26-.74c-.88.19-1.5.35-1.5.35-1.45,2.24.51,6.81.51,6.81l5.94,2.24s7.32-2,8.48-3.47.79-2.76,0-4.06A3.56,3.56,0,0,1,143,36.68Z" transform="translate(-7.88 -20.85)"/><g class="cls-6"><path class="cls-10" d="M143.19,40.81a3.56,3.56,0,0,1-.15-4.13,2.05,2.05,0,0,0,.24-1A4.75,4.75,0,0,1,142,38a3.4,3.4,0,0,0-1.38,3.91c.5,1.14,2.15,1.72,1.2,3.9a4.76,4.76,0,0,0,1.34-.92C144.35,43.42,144,42.11,143.19,40.81Z" transform="translate(-7.88 -20.85)"/></g><path class="cls-11" d="M136.68,46.77s6.06-2.74,7.82-4.63,2-4.1,4.24-4.62,3.71,2.67,2.74,3.91a6.68,6.68,0,0,0-.85,5.41c.46,2.08.52,4.1-1.37,5.53s-2.54.33-4.56,0-2.67-.39-6.45,2C138.25,54.4,136,49.51,136.68,46.77Z" transform="translate(-7.88 -20.85)"/><g class="cls-6"><path class="cls-11" d="M150.64,41.12c-2.08.92-3,2.3-2.85,3.92S150,47.42,149.71,49c-.22,1.11.84,2.29-.45,3.42h0c1.89-1.43,1.83-3.45,1.37-5.53a6.68,6.68,0,0,1,.85-5.41,1.73,1.73,0,0,0,.29-1.17A2.9,2.9,0,0,1,150.64,41.12Z" transform="translate(-7.88 -20.85)"/></g><path class="cls-12" d="M105.52,40.76a63.18,63.18,0,0,1,7.79-.61c5.07-.16,8-.31,9.89-1.19s2.3-1.94,3.43-1.69,3.38,2.31,2.82,3.44-.61,2.41.51,3.17a2.22,2.22,0,0,1,1,2.62c-.31.61-16.81,3.28-16.81,3.28Z" transform="translate(-7.88 -20.85)"/><path class="cls-13" d="M130,43.88c-1.12-.76-1.07-2-.51-3.17a1.63,1.63,0,0,0-.39-1.58,4.66,4.66,0,0,1-.54,1.53,3.5,3.5,0,0,0-.33,2.83c.43,2.14-2.31,1.89-3.77,2-1.69.18-3.38.46-5.08.6a5.06,5.06,0,0,1-3.82-.73,12.68,12.68,0,0,0-2.19-1.69c-.88-.43-1.88-.67-2.73-1.17a14,14,0,0,1-2.82-2.06c-1.49.15-2.26.28-2.26.28l8.61,9s16.5-2.67,16.81-3.28A2.22,2.22,0,0,0,130,43.88Z" transform="translate(-7.88 -20.85)"/><path class="cls-14" d="M14.62,93.31a24,24,0,0,1,1-5.82c.9-2.61.9-3.7-.06-6.76s-1.66-4.92.9-7,8.45-4.66,11-9.58,10-24.39,32.23-32.38c11.53-3.84,27.78-4.21,41.4,4.38,10.64,7.65,16.42,11.94,16.42,11.94S88.31,93.54,82.31,96.3c-5.84,2.16-10.45.62-20.29,1.08S14.62,93.31,14.62,93.31Z" transform="translate(-7.88 -20.85)"/><path class="cls-15" d="M96.35,34.49A33.85,33.85,0,0,0,84,30.29a65.88,65.88,0,0,0-16-.05,38.23,38.23,0,0,0-15,5.14c-.74.44-1.46.9-2.17,1.37a27.88,27.88,0,0,0-5,3.4,45.25,45.25,0,0,0-7.2,8.24c-2.05,2.88-4.17,5.8-5.92,8.87-.89,1.57-2.67,6.29-1.2,4.77,1.88-2,3.24-4.06,4.1-5.08,4.64-5.48,9.17-10.25,15.79-14,6.78-3.8,12.94-5.83,21.86-5.14,5.36.41,11.34,2.45,16.28,4.17,4.76,1.65,16.67,7,19,2.4C109.91,41.47,98.53,35.77,96.35,34.49Z" transform="translate(-7.88 -20.85)"/><path class="cls-16" d="M65.56,32.7a31.75,31.75,0,0,0,1.9,3c.19-1.47-.7-2.75-.89-4.2,0-.11.15-.38.27-.32a13.16,13.16,0,0,0,2.59,1.38,12.06,12.06,0,0,0,2.46.29,7.16,7.16,0,0,0,4.59-1.37,11.66,11.66,0,0,1-3.48.18c-.92-.08-2.45-.21-2.81-1.24a.34.34,0,0,1,.24-.36,13.36,13.36,0,0,1,2.81.43,8.17,8.17,0,0,0,3.29-.39,16.14,16.14,0,0,0,2.23-.93,52.8,52.8,0,0,0-14.82,1.33C64.4,31.31,65.07,32,65.56,32.7Z" transform="translate(-7.88 -20.85)"/><path class="cls-17" d="M71.39,81.92a35.39,35.39,0,0,1,3.26-9.33C77.71,67.2,80.56,62.11,85.45,58s10.37-7.85,16.77-9c3.13-.54,6.25-.93,9.35-1.62,1.3-.29,2.59-.61,3.88-.93l2.08,1.54S88.31,93.54,82.31,96.3c-5.84,2.16-10.45.62-20.29,1.08s-47.4-4.07-47.4-4.07a24,24,0,0,1,1-5.82,13.31,13.31,0,0,0,.47-1.57c1.9-2.48,4.32-4.55,6.23-7A58.4,58.4,0,0,0,25.71,74c1.15-1.85,2-3.94,3.33-5.64,1-1.3,1.91-.72,2.26.48a.83.83,0,0,0,.9.51c.91,0,2-1.66,2.64-2.19a59,59,0,0,1,11.44-8,58.3,58.3,0,0,1,6-2.71c1.43-.54,5.22-2.14,6.34-.33.51.83-1.88,3-2.35,3.79-.74,1.2-.28,2.82-.17,4.12.17,2-1.89,2.7-1.94,4.46a7.94,7.94,0,0,1-.93,4c-.46.85-1,1.66-1.4,2.55s-2.06,3.27-1.16,4.19a4.36,4.36,0,0,0,2.3.65,24,24,0,0,1,2.8.43C64.42,82.53,69.55,90.26,71.39,81.92Z" transform="translate(-7.88 -20.85)"/><path class="cls-12" d="M125.2,67.1s4,6.76,7.53,12.14,6.46,7.22,2.77,11.68-25.67,9.38-39,8.92-20.29-4.92-21.52-8.61S104.45,102,125.2,67.1Z" transform="translate(-7.88 -20.85)"/><path class="cls-13" d="M135.75,83.54c0,.16,0,.32,0,.48a8.94,8.94,0,0,1-4.88,7.45c-3.8,1.93-7.92,2.42-12,3.5a117.67,117.67,0,0,1-13,3.07c-1.15.17-8.16.68-6.36-2,.82-1.22,3.06-1.67,4.34-2.06a52.24,52.24,0,0,0,6.28-2.26,27.9,27.9,0,0,0,14-13.11c1-2.11,1.65-4.4,2.69-6.49a8.9,8.9,0,0,1,.66-1.12c-1.38-2.26-2.32-3.86-2.32-3.86C104.45,102,73.7,87.54,74.93,91.23s8.15,8.14,21.52,8.61,35.36-4.46,39.05-8.92C138,87.9,137.46,86.08,135.75,83.54Z" transform="translate(-7.88 -20.85)"/><path class="cls-18" d="M61.37,27.51s11.3,5,17.93-5.3C76.8,29.25,67.66,32.86,61.37,27.51Z" transform="translate(-7.88 -20.85)"/><path class="cls-19" d="M65.67,28.84a18.44,18.44,0,0,0,7.42-6.21C72.3,26.18,68,30.13,65.67,28.84Z" transform="translate(-7.88 -20.85)"/><path class="cls-20" d="M63.72,28.34s3.75-1.91,3-7.49C69,25.31,66.18,29.82,63.72,28.34Z" transform="translate(-7.88 -20.85)"/><path class="cls-21" d="M70.12,28.84a19.43,19.43,0,0,0,5.45-7.41C76,23.83,72.72,29.22,70.12,28.84Z" transform="translate(-7.88 -20.85)"/><path class="cls-20" d="M69.16,28.89s8.88.23,11.6-1.6C78,30,70.37,30.62,69.16,28.89Z" transform="translate(-7.88 -20.85)"/><path class="cls-21" d="M68.06,29.69a14.54,14.54,0,0,0,8.38,1.71c-3.86,1.78-7.86.86-11.18-2A14.08,14.08,0,0,0,68.06,29.69Z" transform="translate(-7.88 -20.85)"/><path class="cls-22" d="M62.87,28.4a26.46,26.46,0,0,1,4.51,7.3c1.47-2.24-2.57-6.58-2.57-6.58Z" transform="translate(-7.88 -20.85)"/><path class="cls-23" d="M66.93,30.11S71,32.51,75,31.75C73.56,32.82,68.61,31.77,66.93,30.11Z" transform="translate(-7.88 -20.85)"/><path class="cls-23" d="M71.13,28.35a15.72,15.72,0,0,0,4.22-5.89C75.14,24.32,72.86,27.57,71.13,28.35Z" transform="translate(-7.88 -20.85)"/><path class="cls-12" d="M45.29,79.91s9.67.93,15.85,3.87,9.74,6.57,9.58,8.89S66.4,98.3,55.35,98.85s-18.32.92-26,1-9-1.39-9-1.39S35.48,93.9,45.29,79.91Z" transform="translate(-7.88 -20.85)"/><g class="cls-24"><path class="cls-12" d="M62.38,84.58A26.27,26.27,0,0,0,49.7,80.52s0,0,0,0a31.39,31.39,0,0,1,5.88,1.38c2.28.81,4.32,2.14,6.58,3C62.26,84.93,62.5,84.65,62.38,84.58Z" transform="translate(-7.88 -20.85)"/><path class="cls-12" d="M66.16,87.15a8.18,8.18,0,0,0-1.56-1.24A6.88,6.88,0,0,0,62.93,85s-.16.11-.1.14A23.81,23.81,0,0,1,66,87.39C66.05,87.46,66.24,87.24,66.16,87.15Z" transform="translate(-7.88 -20.85)"/></g><path class="cls-13" d="M69,89.13a4.43,4.43,0,0,1-.64,3.67,7.94,7.94,0,0,1-3.83,2.48,26.61,26.61,0,0,1-5.57,1.27c-4.5.56-9.06.68-13.58,1-1.87.11-3.72.43-5.59.54-1.2.07-6.26.52-5.18-2,.85-2,3.57-2.17,4.23-4.19.18-.56.1-1.45.47-1.94.49-.65,1.3-.87,2-1.32,1-.71,1.35-1.94,2.29-2.66.4-.32.87-.52,1.28-.81.93-.66.89-1.56,1.23-2.48a5.53,5.53,0,0,1,1.87-2.4c-1.59-.23-2.62-.33-2.62-.33-9.81,14-25,18.55-25,18.55s1.32,1.47,9.05,1.39,15-.46,26.05-1S70.57,95,70.72,92.67C70.79,91.67,70.18,90.44,69,89.13Z" transform="translate(-7.88 -20.85)"/><path class="cls-25" d="M134.88,44.65s-6.76,1.39-22.44,2.93c-12.76,1.53-24.75,6-33.66,20.13C71.4,80,67.09,93.23,82.93,95.53c14.75,1.54,33.51-4,40.42-17.83,3.23-8.61,6.8-17.94,9.38-18.9,2.17-.81,5.56-2.49,6-3.47s.09-3.59-.45-5.21-.83-1.47-.34-2.85a2.19,2.19,0,0,0-.49-2.65C136.87,44,136.43,44,134.88,44.65Z" transform="translate(-7.88 -20.85)"/><path class="cls-25" d="M13.86,96.81S12.52,92.1,18,85.44c5.43-6.87,8.81-11.07,9.93-13.73s1.24-3.9,2.16-3.9.92,1.85.82,3.59c6.14-5,14.19-10.71,20.6-13.78,2.25-.93,3-1,3.68-1.39s2.26.46,1.29,2.1-1.95,3-1.59,4.16.82,1.38-.16,2.56a3.69,3.69,0,0,0-1.12,3.28c.15,1.43-.36,2.55-2,4.25-1.08,1.08-.93,1.69-1.18,3a5.22,5.22,0,0,1-2.77,3.79A5,5,0,0,0,45,82.42a5.6,5.6,0,0,1-2.46,2.92c-.77.41,0,1.43-4.31,3.48-1,.56-.76.67-.56,1.28s.31,1.18-1.74,2.46c-1.79,1.18-3.13,3-9,5.18-4.82,1.69-6.25,1.33-8.4,1S14.11,97.79,13.86,96.81Z" transform="translate(-7.88 -20.85)"/><path class="cls-12" d="M52.71,63.92c-.46.51-.66,1.19-1.16,1.67s-1.07.76-1.48,1.25c-.13.16-.28.63.11.5A4.38,4.38,0,0,0,51.84,66a3.5,3.5,0,0,0,.56-.82c.19-.36.3-.81.51-1.15S52.83,63.78,52.71,63.92Z" transform="translate(-7.88 -20.85)"/><path class="cls-12" d="M50,69.74a7.7,7.7,0,0,1-3,3.15c-.22.14-.62,1-.07.74a6.9,6.9,0,0,0,3.47-3.93C50.61,69.3,50.13,69.52,50,69.74Z" transform="translate(-7.88 -20.85)"/><path class="cls-12" d="M47.51,75.44c-.4,1.15-1.7,1.26-2.46,2-.09.1-.29.57,0,.51A4.37,4.37,0,0,0,47,76.7a2.13,2.13,0,0,0,.72-1.32C47.69,75.26,47.53,75.4,47.51,75.44Z" transform="translate(-7.88 -20.85)"/><path class="cls-12" d="M43.21,80.71a8.33,8.33,0,0,1-.92,1.05,6.36,6.36,0,0,1-1.69,1.07c-.18.09-.63.78-.17.74a3.34,3.34,0,0,0,1.84-1.13,6.05,6.05,0,0,0,1.19-1.71C43.57,80.49,43.28,80.61,43.21,80.71Z" transform="translate(-7.88 -20.85)"/><path class="cls-12" d="M37.71,86.67a1.52,1.52,0,0,1-.41.43,4.08,4.08,0,0,1-.36.36c-.31.21-.7.25-1,.45-.15.09-.52.61-.13.62a2.65,2.65,0,0,0,2.08-1.87C37.88,86.54,37.74,86.62,37.71,86.67Z" transform="translate(-7.88 -20.85)"/><path class="cls-12" d="M33.91,90.86c-.13.26-.62.48-.86.65A3.51,3.51,0,0,1,32,92c-.21,0-.64.68-.22.68A2.51,2.51,0,0,0,33.26,92a2.51,2.51,0,0,0,1-1.17C34.35,90.49,34,90.75,33.91,90.86Z" transform="translate(-7.88 -20.85)"/><path d="M95.18,56.47c0-.12-.17-.12-.27-.12a1.21,1.21,0,0,0-.63.33,1.92,1.92,0,0,0-.47.62.45.45,0,0,0,.16.62c.11.06.28,0,.38-.08a1.19,1.19,0,0,0,.33-.26,1.35,1.35,0,0,0,.31-.53,2,2,0,0,0,.14-.23A.53.53,0,0,0,95.18,56.47Z" transform="translate(-7.88 -20.85)"/><path d="M98.05,59.12c-.45,0-1.11,1.09-.47,1.09C98,60.21,98.7,59.12,98.05,59.12Z" transform="translate(-7.88 -20.85)"/><path d="M92.2,60.94h0c-.19-.06-.38.16-.47.29l0,0a.39.39,0,0,0-.08.36c.06.15.26.09.36,0S92.55,61,92.2,60.94Z" transform="translate(-7.88 -20.85)"/><path d="M91.52,65.85c-.34,0-.83.81-.35.81C91.5,66.66,92,65.85,91.52,65.85Z" transform="translate(-7.88 -20.85)"/><path d="M103.63,55.3a.14.14,0,0,0,0-.06h0a.59.59,0,0,0,0-.13s0-.19-.12-.17h-.08c-.22,0-.44.26-.51.44s-.07.39.16.37l.09,0h0a.68.68,0,0,0,.3-.23l0,0,0,0,.06-.1Z" transform="translate(-7.88 -20.85)"/><path d="M105.94,55.52a.53.53,0,0,0-.53.3c-.1.16-.24.5,0,.56s.56-.26.57-.51S106.09,55.55,105.94,55.52Z" transform="translate(-7.88 -20.85)"/><path d="M84.4,67c-.1-.15-.2-.23-.37-.18a.23.23,0,0,0-.15.19.39.39,0,0,0,.08.21c-.08.22-.31.42-.27.7a.37.37,0,0,0,.56.22.77.77,0,0,0,.35-.72A1,1,0,0,0,84.4,67Z" transform="translate(-7.88 -20.85)"/><path d="M110.82,53.9a.31.31,0,0,0,0-.28.13.13,0,0,0-.06,0s0,0,0,0c-.26-.14-.4.4-.39.57s.25.2.37,0l.07-.11A.35.35,0,0,0,110.82,53.9Z" transform="translate(-7.88 -20.85)"/><path d="M82.35,72.07c0-.11-.12-.2-.14-.32s-.28,0-.31.11h0c-.17.23-.28.6,0,.73s.37-.15.42-.28A.43.43,0,0,0,82.35,72.07Z" transform="translate(-7.88 -20.85)"/><path d="M79.83,81.17c-.09-.06-.2.06-.24.14a.13.13,0,0,0,0,.06c-.13.15-.2.44,0,.51s.29-.19.32-.29S80,81.24,79.83,81.17Z" transform="translate(-7.88 -20.85)"/><path d="M75.5,84l0-.06s0,0,0,0c-.4-.28-.73.29-.81.62s0,1,.5.73S75.79,84.37,75.5,84Z" transform="translate(-7.88 -20.85)"/><path d="M85,85.48a.4.4,0,0,0-.36.15,1.46,1.46,0,0,0-.21.25c-.17.26-.29.76,0,1s.66-.37.75-.56S85.4,85.54,85,85.48Z" transform="translate(-7.88 -20.85)"/><path d="M38.78,70.48a.29.29,0,0,0-.14-.15c-.08,0-.19,0-.25.09a.7.7,0,0,0-.19.29c-.06.18-.11.45.11.52s.47-.29.53-.47A.24.24,0,0,0,38.78,70.48Z" transform="translate(-7.88 -20.85)"/><path d="M30.55,76.09c0-.12-.2-.14-.32-.12s-.38.15-.49.31a.87.87,0,0,0-.09.17.35.35,0,0,0-.06.14.22.22,0,0,0,0,.08.24.24,0,0,0,.09.24c.28.18.63-.17.76-.38A.58.58,0,0,0,30.55,76.09Z" transform="translate(-7.88 -20.85)"/><path d="M31.63,78.12a.23.23,0,0,0-.34-.08.65.65,0,0,0-.27.39.23.23,0,0,0,.08.3.23.23,0,0,0,.12,0h.09a.33.33,0,0,0,.15-.11l.08-.09A.41.41,0,0,0,31.63,78.12Z" transform="translate(-7.88 -20.85)"/><path d="M36.26,77.56c0-.17-.2-.16-.34-.12a1.06,1.06,0,0,0-.55.3,1.08,1.08,0,0,0-.41.68c0,.24.27.27.44.24C35.84,78.59,36.39,78,36.26,77.56Z" transform="translate(-7.88 -20.85)"/><path d="M26.47,80.73s-.18.14-.09.17a.67.67,0,0,1,.28.22c.09.1.09.24.21.28s.23-.13.25-.22C27.19,80.85,26.74,80.68,26.47,80.73Z" transform="translate(-7.88 -20.85)"/><path d="M26.51,84.06a.72.72,0,0,1-.2-.09l-.06-.08c-.05-.06,0,0-.08,0s.15-.21,0-.17c-.33.11-.21.73.13.69C26.43,84.4,26.68,84.14,26.51,84.06Z" transform="translate(-7.88 -20.85)"/><path d="M22.58,87.61a.33.33,0,0,0-.22,0,.79.79,0,0,0-.55.34,1,1,0,0,0-.2.69.36.36,0,0,0,.54.26,1.2,1.2,0,0,0,.5-.61C22.72,88.13,22.84,87.69,22.58,87.61Z" transform="translate(-7.88 -20.85)"/><path d="M19.1,90.57a.42.42,0,0,0-.16.09l-.07,0a1,1,0,0,0-.34.51c0,.17,0,.44.24.42s.3-.21.37-.37S19.43,90.51,19.1,90.57Z" transform="translate(-7.88 -20.85)"/><path d="M35.17,62.05A.16.16,0,0,0,35,62c-.31-.09-.64.34-.72.61s-.26,1,.15.89a.48.48,0,0,0,.25-.14A.87.87,0,0,0,35,63a.49.49,0,0,0,.06-.17s0-.11.08-.16S35.34,62.23,35.17,62.05Z" transform="translate(-7.88 -20.85)"/><path d="M31.52,62.45c-.12-.1-.3,0-.38.13A1.06,1.06,0,0,0,31,63a1.29,1.29,0,0,0-.08.47c0,.1.06.22.17.23s.25-.13.32-.23a1.28,1.28,0,0,0,.19-.52C31.61,62.75,31.64,62.56,31.52,62.45Z" transform="translate(-7.88 -20.85)"/><path d="M39.18,55.52a0,0,0,0,0,0,0,.12.12,0,0,0,0-.1c-.22-.1-.36.34-.39.47s-.06.52.19.48S39.27,55.73,39.18,55.52Z" transform="translate(-7.88 -20.85)"/><path d="M38.85,52c-.28-.11-.48.33-.54.52a2.68,2.68,0,0,0-.11.49.61.61,0,0,0,0,.3.18.18,0,0,0,.12.19c.15,0,.32-.16.38-.27a2.36,2.36,0,0,0,.21-1.15A.09.09,0,0,0,38.85,52Z" transform="translate(-7.88 -20.85)"/><path d="M45.16,51.68a.92.92,0,0,0-.19-.35.18.18,0,0,0-.12-.08.16.16,0,0,0-.1,0l-.08.05s0,0,0,0l0,0a.1.1,0,0,0-.08,0,.45.45,0,0,0,.05.72C44.89,52.3,45.22,52,45.16,51.68Z" transform="translate(-7.88 -20.85)"/><path d="M47.35,49.84v0c0-.14-.11-.31-.28-.25s-.32.52-.28.79.45.17.55-.07A.81.81,0,0,0,47.35,49.84Z" transform="translate(-7.88 -20.85)"/><path d="M44,48.88c-.09,0-.15,0-.21.1a.38.38,0,0,0-.17.24.11.11,0,0,0,0,.08.71.71,0,0,0,0,.43c0,.07.11,0,.15,0A.8.8,0,0,0,44,49s0,0,0,0S44.06,48.89,44,48.88Z" transform="translate(-7.88 -20.85)"/><path d="M44,46.18a.1.1,0,0,0-.1,0c-.41,0-.78.62-.8,1,0,.11-.09.25,0,.33s.55-.32.64-.45S44.05,46.45,44,46.18Z" transform="translate(-7.88 -20.85)"/><path d="M38.53,49l-.15.07c-.23,0-.49.37-.55.54s-.09.33.05.41.39,0,.51-.18a1.38,1.38,0,0,0,.32-.52C38.75,49.18,38.75,49,38.53,49Z" transform="translate(-7.88 -20.85)"/><path d="M56.64,46.85c-.14-.25-.43,0-.53.17a.43.43,0,0,0,0,.07,1.46,1.46,0,0,0-.28.46.13.13,0,0,0,0,.17c.22.1.46-.12.6-.25S56.75,47,56.64,46.85Z" transform="translate(-7.88 -20.85)"/><path d="M54.83,43.61s0,0,0-.06c-.29-.07-.47.15-.58.41s-.08.52.22.51S55.11,43.77,54.83,43.61Z" transform="translate(-7.88 -20.85)"/><path d="M50.52,44.5a.37.37,0,0,0-.3.09.5.5,0,0,0-.29.18.58.58,0,0,0-.11.56c.09.17.31.1.44,0a1,1,0,0,0,.38-.44C50.7,44.76,50.7,44.55,50.52,44.5Z" transform="translate(-7.88 -20.85)"/><path d="M50.75,41.56c-.22-.05-.43.19-.55.35a.85.85,0,0,0-.13.31c0,.1,0,.15.11.19a.58.58,0,0,0,.54-.16l0,0,.11,0a.36.36,0,0,0,.24-.35C51.1,41.66,50.91,41.59,50.75,41.56Z" transform="translate(-7.88 -20.85)"/><path d="M67.5,42.61a.21.21,0,0,0-.08-.2c-.16-.14-.39,0-.51.14s-.34.4-.23.62a.32.32,0,0,0,.41.13C67.37,43.21,67.64,42.85,67.5,42.61Z" transform="translate(-7.88 -20.85)"/><path d="M63,40.22s-.08,0-.12,0a.27.27,0,0,0-.11-.1c-.08,0-.19.09-.21.15a.53.53,0,0,0,.36.66c.17,0,.31-.18.33-.32S63.1,40.32,63,40.22Z" transform="translate(-7.88 -20.85)"/><path d="M63,38.57s.05-.08,0-.09H63c-.06,0-.12.06-.13.12s-.13.29-.07.43.19.13.29,0a.39.39,0,0,0,.15-.33A.16.16,0,0,0,63,38.57Z" transform="translate(-7.88 -20.85)"/><path d="M60.45,36.54a.18.18,0,0,0-.2,0h0a.36.36,0,0,0-.2.59c.11.11.3,0,.38-.07a.83.83,0,0,0,.08-.12s.07-.06.07-.08A.23.23,0,0,0,60.45,36.54Z" transform="translate(-7.88 -20.85)"/><path d="M65,34.6c-.23-.24-.6.24-.64.44s0,.11.08.11a.85.85,0,0,0,.23,0,.29.29,0,0,0,.13-.1.22.22,0,0,0,.13,0A.26.26,0,0,0,65,34.6Z" transform="translate(-7.88 -20.85)"/><path d="M57.14,36.52a.35.35,0,0,0,.06-.22c0-.19-.22-.22-.37-.16a.75.75,0,0,0-.42.47c0,.07,0,.1.05.11a.21.21,0,0,0,0,.1c.11.1.3,0,.41,0a.63.63,0,0,0,.13-.11A.21.21,0,0,0,57.14,36.52Z" transform="translate(-7.88 -20.85)"/><path d="M54.44,37.31s0,0,0,0,0-.09-.05-.09c-.24,0-.56.46-.23.56S54.77,37.39,54.44,37.31Z" transform="translate(-7.88 -20.85)"/><path d="M84.62,36.57a.38.38,0,0,0-.31,0c-.25.07-.52.42-.34.66a.34.34,0,0,0,.32.08.57.57,0,0,0,.36-.3.23.23,0,0,0,0-.17l0,0C84.73,36.67,84.72,36.63,84.62,36.57Z" transform="translate(-7.88 -20.85)"/><path d="M87.87,34.6a.36.36,0,0,0-.3-.22.38.38,0,0,0-.39.22.4.4,0,0,0-.06.45c.1.15.28.05.37,0l.07-.09a0,0,0,0,0,0,0C87.82,35.07,87.94,34.8,87.87,34.6Z" transform="translate(-7.88 -20.85)"/><path d="M96.54,38.34h0a.3.3,0,0,0-.33-.22.49.49,0,0,0-.28.42.47.47,0,0,0,.2.41c.18.12.38,0,.47-.2A.41.41,0,0,0,96.54,38.34Z" transform="translate(-7.88 -20.85)"/><path d="M73,36.13a0,0,0,0,0,0-.07h-.08a.12.12,0,0,0-.1,0,.41.41,0,0,0-.24.08c-.12.09-.24.36,0,.44s.37-.12.44-.26a.32.32,0,0,0,0-.14S73,36.15,73,36.13Z" transform="translate(-7.88 -20.85)"/><path d="M70,34.48A.91.91,0,0,0,69.2,34a.79.79,0,0,0-.63.28.25.25,0,0,0,.14.4.73.73,0,0,0,.36,0,2.25,2.25,0,0,1,.63.11c.08,0,.26-.15.23-.24A.08.08,0,0,0,70,34.48Z" transform="translate(-7.88 -20.85)"/><path d="M47,41.62c-.13,0-.23.11-.31.19a.37.37,0,0,0-.07.14l0,0c-.05.12-.12.31,0,.38s.15,0,.19-.12A.41.41,0,0,0,47,42a.27.27,0,0,0,.06-.12C47.07,41.81,47.17,41.64,47,41.62Z" transform="translate(-7.88 -20.85)"/><path d="M70.45,56.39a.33.33,0,0,0-.26-.13h0s0-.05,0-.07,0-.05,0-.05,0,0-.06,0-.21.13-.21.18a.57.57,0,0,0,.15.47c.15.17.36-.12.41-.24A.12.12,0,0,0,70.45,56.39Z" transform="translate(-7.88 -20.85)"/><path d="M63.74,53.11a.25.25,0,0,0-.18-.22.11.11,0,0,0,0,0c-.12-.12-.27-.2-.38-.33s-.27.14-.27.22a1.12,1.12,0,0,0,.18.47c.09.13.21.31.38.32S63.77,53.27,63.74,53.11Z" transform="translate(-7.88 -20.85)"/><path d="M116.08,41.22a.11.11,0,0,0-.15,0l-.07,0a.28.28,0,0,0-.27.15c-.09.15-.23.53,0,.67s.37-.13.44-.23A.55.55,0,0,0,116.08,41.22Z" transform="translate(-7.88 -20.85)"/><path d="M117.19,43.44l-.12,0s-.12,0-.16.08a.43.43,0,0,0-.22.22c-.1.19.12.26.26.26a.63.63,0,0,0,.19,0h.1c.11,0,.25-.17.24-.27S117.32,43.46,117.19,43.44Z" transform="translate(-7.88 -20.85)"/><path d="M120.66,42.3a.28.28,0,0,0,0-.13s0,0,0,0,0,0,0,0a.21.21,0,0,0-.26,0,.53.53,0,0,0-.24.36.34.34,0,0,0,.16.35c.12,0,.26-.12.31-.2A.59.59,0,0,0,120.66,42.3Z" transform="translate(-7.88 -20.85)"/><path d="M124.7,41.83s0,0,0,0a.5.5,0,0,0,0-.12s0-.06-.07-.06l-.14,0h0a.46.46,0,0,0-.26,0c-.16,0-.4.15-.31.34a.49.49,0,0,0,.41.17.32.32,0,0,0,.26-.13C124.63,42,124.73,41.89,124.7,41.83Z" transform="translate(-7.88 -20.85)"/><path class="cls-26" d="M50.25,44.59a.2.2,0,0,0-.13,0c-.08,0-.18.17-.12.26a.13.13,0,0,0,.1,0C50.24,44.92,50.45,44.59,50.25,44.59Z" transform="translate(-7.88 -20.85)"/><path class="cls-26" d="M50.77,41.51c-.14,0-.34.34-.14.34S51,41.51,50.77,41.51Z" transform="translate(-7.88 -20.85)"/><path class="cls-26" d="M67.33,42.46c-.16,0-.4.4-.16.4S67.56,42.46,67.33,42.46Z" transform="translate(-7.88 -20.85)"/><path class="cls-26" d="M43.65,46.34c-.15,0-.37.36-.16.36S43.87,46.34,43.65,46.34Z" transform="translate(-7.88 -20.85)"/><path class="cls-26" d="M34.59,62.23s-.05.07-.08.1-.13.19,0,.26.2,0,.25-.09a.5.5,0,0,0,.2-.39C34.89,61.91,34.63,62.15,34.59,62.23Z" transform="translate(-7.88 -20.85)"/><path class="cls-26" d="M94.94,56.44a1.48,1.48,0,0,0-.64.44c-.12.13,0,.31.12.17s.36-.26.53-.4S95.1,56.4,94.94,56.44Z" transform="translate(-7.88 -20.85)"/><path class="cls-26" d="M35.55,77.79c-.14,0-.34.33-.14.33S35.74,77.79,35.55,77.79Z" transform="translate(-7.88 -20.85)"/><path class="cls-26" d="M84.33,36.59c-.14,0-.35.35-.15.35S84.54,36.59,84.33,36.59Z" transform="translate(-7.88 -20.85)"/><path class="cls-26" d="M75.26,83.87c-.08-.08-.22.09-.25.15a.66.66,0,0,0,0,.15c0,.26.36,0,.34-.17A.29.29,0,0,0,75.26,83.87Z" transform="translate(-7.88 -20.85)"/><path class="cls-26" d="M22.21,87.64c-.18,0-.45.43-.19.43S22.46,87.64,22.21,87.64Z" transform="translate(-7.88 -20.85)"/><path class="cls-26" d="M105.86,55.79c-.11,0-.28.27-.11.27S106,55.79,105.86,55.79Z" transform="translate(-7.88 -20.85)"/><path class="cls-26" d="M115.85,41.24c-.13,0-.33.33-.14.33S116.05,41.24,115.85,41.24Z" transform="translate(-7.88 -20.85)"/><g class="cls-27"><path class="cls-14" d="M60.63,32.18c-3.77.77-7.38,3-10.53,5.16a41.84,41.84,0,0,0-4.86,3.84c-1.45,1.33-2.59,2.87-3.94,4.27-.09.09,0,.21.08.12,1.29-1.09,2.35-2.5,3.59-3.66a33.63,33.63,0,0,1,5.15-4,40,40,0,0,1,5-2.7c1.74-.76,3.6-1.27,5.28-2.19C60.63,33,61.16,32.07,60.63,32.18Z" transform="translate(-7.88 -20.85)"/><path class="cls-14" d="M102.31,40.22c-1-1.65-2.77-2.73-4.26-3.86a23.29,23.29,0,0,0-5.64-2.94,33.61,33.61,0,0,0-5.85-1.83,63,63,0,0,0-6.73-.6c-.11,0-.3.25-.17.27,1.81.31,3.62.51,5.42.88a39.32,39.32,0,0,1,5.65,2,20.57,20.57,0,0,1,5.73,3.16c.85.69,1.65,1.44,2.53,2.1s1.19,1.46,2.13,1.95C101.63,41.67,102.63,40.75,102.31,40.22Z" transform="translate(-7.88 -20.85)"/><path class="cls-14" d="M106.87,43.84a3.71,3.71,0,0,0-1.3-1.34,5.56,5.56,0,0,0-1.82-.87c-.25-.06-.78.52-.51.68a9.28,9.28,0,0,1,1.42,1.24c.45.43.8,1,1.4,1.22C106.45,44.92,107,44.19,106.87,43.84Z" transform="translate(-7.88 -20.85)"/></g><g class="cls-28"><path class="cls-25" d="M87,59.58c-3.52,2.26-5.51,5.37-7.79,8.77-2.39,3.56-3.75,7.81-5.08,11.85,0,.17.14.07.18,0C76,76.64,77,72.7,79.14,69.4a58,58,0,0,1,3.53-5.11,25.18,25.18,0,0,1,4.48-4C87.5,60.06,87.61,59.18,87,59.58Z" transform="translate(-7.88 -20.85)"/><path class="cls-25" d="M107.62,50.11a12.56,12.56,0,0,0-4.7.64,30.17,30.17,0,0,0-4.66,1.51A30.87,30.87,0,0,0,90,56.78c-.4.33-.33,1,.24.58,4.91-3.61,10.87-4.81,16.71-6C107.27,51.33,108.3,50.22,107.62,50.11Z" transform="translate(-7.88 -20.85)"/></g><g class="cls-28"><path class="cls-25" d="M24.18,78.93a72,72,0,0,0-6.33,7.81,15.83,15.83,0,0,0-2.05,3.74c-.57,1.47-.41,2.82-.75,4.31,0,.12.14,0,.16,0,.42-1.26.44-2.58.88-3.86a14.73,14.73,0,0,1,2.55-4.36c1.94-2.44,3.9-4.89,5.9-7.29C24.89,78.83,24.55,78.55,24.18,78.93Z" transform="translate(-7.88 -20.85)"/><path class="cls-25" d="M30.13,70.88c-.9,0-1.42.66-1.89,1.32-.81,1.12-1,2.56-1.9,3.64-.05,0,0,.09,0,0a9,9,0,0,0,1.34-2.06c.4-.79,1-2.09,2-2.2C30,71.59,30.48,70.91,30.13,70.88Z" transform="translate(-7.88 -20.85)"/><path class="cls-25" d="M54.84,57.31c-3.66.63-8.13,3.59-11.44,5.27a29.35,29.35,0,0,0-4.64,3,17.29,17.29,0,0,0-2,1.86c-.58.61-1,1.46-1.6,2-.19.17-.32.74.09.48,1.16-.75,2-2,3-3A22.7,22.7,0,0,1,43,63.94c3.43-1.79,8-4,11.52-5.56C54.76,58.26,55.5,57.19,54.84,57.31Z" transform="translate(-7.88 -20.85)"/></g><path class="cls-29" d="M60.68,104.51s1.27,7.09,9.6,7,9.83-6.53,9.33-9.21C76,104.64,60.68,104.51,60.68,104.51Z" transform="translate(-7.88 -20.85)"/><path class="cls-30" d="M79.36,101.31c1.39,3.14-2.18,5.71-7.9,6.56-5.15.76-10.3-.93-10.78-3.36s3.75-4.77,8.87-5.74C73.73,98,78.16,98.59,79.36,101.31Z" transform="translate(-7.88 -20.85)"/><path class="cls-31" d="M78.54,101.31c1.27,2.87-2,5.23-7.24,6-4.71.7-9.43-.86-9.87-3.08s3.44-4.37,8.12-5.26C73.39,98.26,77.44,98.82,78.54,101.31Z" transform="translate(-7.88 -20.85)"/><path class="cls-32" d="M70.87,99.42a3.72,3.72,0,0,0-2.08.06c-.55.23-1.08.52-1.62.78s-1.24.52-1.85.8c-1.48.65-3.53,2-2,3.74.62.73,1,1.62,2.42.76a27.71,27.71,0,0,0,2.89-1.7,11.74,11.74,0,0,0,2-2.33,3.65,3.65,0,0,0,.55-1.3C71.29,99.81,71.17,99.48,70.87,99.42Z" transform="translate(-7.88 -20.85)"/><path class="cls-33" d="M71.05,99.5a1.7,1.7,0,0,1-.22.24,2,2,0,0,1-.77.4c-.89.28-.93,1-1,1.73a2.64,2.64,0,0,1-.83,1.44,3.77,3.77,0,0,0-.94,1.38,9,9,0,0,0,1.32-.83,11.74,11.74,0,0,0,2-2.33,3.65,3.65,0,0,0,.55-1.3A.72.72,0,0,0,71.05,99.5Z" transform="translate(-7.88 -20.85)"/><path class="cls-32" d="M67.84,105.73s.82-.68,1.54-1.3.31-1,1.59-2a5.3,5.3,0,0,1,2.86-1.34c1.47-.44,2.15-1,2.47-.8s2.36,1.85,1.82,3.22-1.29,1.69-3.22,2.33a8.55,8.55,0,0,1-4.55.51,3.54,3.54,0,0,0-1.94-.07C67.55,106.41,67.51,106.11,67.84,105.73Z" transform="translate(-7.88 -20.85)"/><path class="cls-33" d="M70,104.31a12,12,0,0,0,1.43-.92,4.13,4.13,0,0,1,2.14-.85c.57,0,1.82,0,2-.76a9.15,9.15,0,0,1,.23-1.16,1.54,1.54,0,0,1,.15-.35c-.4.12-1,.47-2.08.78A5.3,5.3,0,0,0,71,102.39c-1.28,1-.87,1.41-1.59,2l-.23.2A4.36,4.36,0,0,0,70,104.31Z" transform="translate(-7.88 -20.85)"/><path class="cls-34" d="M64.82,103.16c-.06,0-.12,0-.19,0a.59.59,0,0,0-.26.07.41.41,0,0,0-.2.19c0,.05-.06.18,0,.2a.45.45,0,0,0,.38-.12s.1,0,.14-.08a.8.8,0,0,0,.13-.13S64.87,103.16,64.82,103.16Z" transform="translate(-7.88 -20.85)"/><path class="cls-34" d="M65.4,104.23c-.06-.06-.13,0-.2,0s-.29.1-.33.18,0,.25.16.17.19-.14.3-.19S65.44,104.27,65.4,104.23Z" transform="translate(-7.88 -20.85)"/><path class="cls-34" d="M66.5,101.94c-.08,0-.06-.06-.1-.1l-.07,0a.13.13,0,0,0-.12,0h0c-.1,0-.37.27-.19.37s.18,0,.27-.08a1.7,1.7,0,0,1,.24-.09S66.52,101.94,66.5,101.94Z" transform="translate(-7.88 -20.85)"/><path class="cls-34" d="M67.92,100.83a1.94,1.94,0,0,1-.34,0,.41.41,0,0,0-.37.24c-.07.12,0,.26.14.22a1.25,1.25,0,0,0,.57-.27S68,100.83,67.92,100.83Z" transform="translate(-7.88 -20.85)"/><path class="cls-34" d="M72.41,104c0-.16-.22,0-.25.09a1.69,1.69,0,0,1-.17.29c0,.1-.11.17-.15.27s0,.09,0,.11.32-.17.39-.29a.37.37,0,0,0,0-.11s0,0,0,0l0-.07A.49.49,0,0,0,72.41,104Z" transform="translate(-7.88 -20.85)"/><path class="cls-34" d="M74,104.77s0-.07,0-.1a2.25,2.25,0,0,1-.12-.21s-.07,0-.07,0,0,.18,0,.27a.43.43,0,0,1,0,.11s0,.08,0,.11a.09.09,0,0,0,.07.08h0a.29.29,0,0,0,.24-.24C74.16,104.75,74.1,104.75,74,104.77Z" transform="translate(-7.88 -20.85)"/><path class="cls-34" d="M76.14,103.79a.32.32,0,0,1-.1-.13s-.09-.1-.13-.16-.13.07-.12.11a.74.74,0,0,1,0,.39c0,.12.09.14.17.1a.31.31,0,0,0,.16-.16S76.19,103.82,76.14,103.79Z" transform="translate(-7.88 -20.85)"/><path class="cls-34" d="M77.05,103.27a.46.46,0,0,0,0-.23c0-.07-.18.07-.16.13a.74.74,0,0,1,0,.21c0,.09,0,.17,0,.25s.3,0,.29-.11S77.06,103.35,77.05,103.27Z" transform="translate(-7.88 -20.85)"/><path class="cls-26" d="M71.38,98.82a16.41,16.41,0,0,0-5.19,1c-1.42.53-3.47,1.37-4.27,2.74-.11.17.08.23.21.13,2.66-2.21,5.92-3.09,9.23-3.81C71.37,98.87,71.41,98.82,71.38,98.82Z" transform="translate(-7.88 -20.85)"/><path class="cls-26" d="M61.8,103a1.38,1.38,0,0,0-.56,1c0,.1.1.09.16.06a.34.34,0,0,0,.17-.22,1.5,1.5,0,0,1,.28-.77C61.91,103.07,61.89,103,61.8,103Z" transform="translate(-7.88 -20.85)"/><path class="cls-29" d="M80.27,106.81s1.48,8.36,11.55,5.69c5.56-1.91,8.19-7.14,6.62-11.2C96.26,104.19,80.27,106.81,80.27,106.81Z" transform="translate(-7.88 -20.85)"/><path class="cls-30" d="M98.08,100.36c1.5,2.88-1.28,7.29-6.16,9.31s-10.21.68-11.46-2.32,2-6.77,6.87-8.75C91.33,97,96.45,97.2,98.08,100.36Z" transform="translate(-7.88 -20.85)"/><path class="cls-31" d="M97.62,100.28c1.38,2.66-1.3,6.79-6,8.73s-9.72.74-10.87-2,1.94-6.32,6.62-8.21C91.23,97.21,96.09,97.36,97.62,100.28Z" transform="translate(-7.88 -20.85)"/><path class="cls-32" d="M91.75,98.5a12,12,0,0,0-4.54,1.28,11.4,11.4,0,0,0-4,2.94.16.16,0,0,0,0,.15,4,4,0,0,0-.3.42,5.17,5.17,0,0,0-.49,1.83c-.14.68-.62,1.66-.39,2.37,1.07,3.36,5.3-1,6.18-2.48a17.11,17.11,0,0,1,3.29-4.57C91.93,100.05,93.14,98.5,91.75,98.5Z" transform="translate(-7.88 -20.85)"/><path class="cls-33" d="M92.22,98.6a3.52,3.52,0,0,1-.9,1.46,4.74,4.74,0,0,1-2.62,1.08c-.81.17-1.69.44-1.68,1.45,0,.66.22,1.31.2,2a5.59,5.59,0,0,1-.73,2.45,10.74,10.74,0,0,0,1.7-2,17.11,17.11,0,0,1,3.29-4.57C91.86,100.11,92.78,99,92.22,98.6Z" transform="translate(-7.88 -20.85)"/><path class="cls-32" d="M95.68,99.56a3.26,3.26,0,0,0-2.22.64,4.7,4.7,0,0,0-1.95,2A9.33,9.33,0,0,1,90,105c-.71.74-1.54,1.38-2.28,2.09-.23.23-2.07,2-1.44,2.43,1.07.76,3.22-.68,4.2-1.06a11.38,11.38,0,0,0,4-2,7.39,7.39,0,0,0,2-3.36c.35-.91.73-2.62-.09-3.2A1.71,1.71,0,0,0,95.68,99.56Z" transform="translate(-7.88 -20.85)"/><path class="cls-33" d="M90.22,104.86c.42-.16.86-.29,1.3-.41a2.91,2.91,0,0,0,1.34-.59c.73-.82-.3-2.12-.07-3.1l0-.14a4.18,4.18,0,0,0-1.33,1.58A9.44,9.44,0,0,1,90,104.94Z" transform="translate(-7.88 -20.85)"/><path class="cls-34" d="M83.59,106.86c0-.09-.16,0-.18.07s-.08.07-.11.11l-.1.1c-.07.08-.21.24-.16.35s.18,0,.24,0a1.66,1.66,0,0,0,.23-.31C83.56,107.07,83.63,107,83.59,106.86Z" transform="translate(-7.88 -20.85)"/><path class="cls-34" d="M83.51,105.37l-.24.15a1.32,1.32,0,0,0-.29.24s-.06.11,0,.15h0a.08.08,0,0,0,.1,0,.75.75,0,0,0,.29-.27l.13-.18a.94.94,0,0,0,.09-.12S83.54,105.36,83.51,105.37Z" transform="translate(-7.88 -20.85)"/><path class="cls-34" d="M83.31,104a1.22,1.22,0,0,0-.53.33c0,.06-.07.21.06.16a1.43,1.43,0,0,0,.52-.43S83.37,104,83.31,104Z" transform="translate(-7.88 -20.85)"/><path class="cls-34" d="M85.16,102.21a1.46,1.46,0,0,0-.3.07.87.87,0,0,0-.38.2s-.12.15,0,.18.3-.11.4-.17a.91.91,0,0,0,.32-.22S85.2,102.2,85.16,102.21Z" transform="translate(-7.88 -20.85)"/><path class="cls-34" d="M89.48,106.75c0-.08-.13,0-.14.07-.08.22-.2.44-.3.65a.12.12,0,0,0,0,.13h0s.1,0,.13,0a1,1,0,0,0,.24-.43A.82.82,0,0,0,89.48,106.75Z" transform="translate(-7.88 -20.85)"/><path class="cls-34" d="M90.69,106.61s0,0,0,0a1.34,1.34,0,0,1-.07.27c0,.12-.07.24-.11.36a.08.08,0,0,0,0,.08s0,0,0,0,.13,0,.16-.07S90.74,106.81,90.69,106.61Z" transform="translate(-7.88 -20.85)"/><path class="cls-34" d="M92.62,106.28c-.05-.12,0-.25-.1-.33s-.14,0-.13.1-.08.28,0,.41S92.66,106.38,92.62,106.28Z" transform="translate(-7.88 -20.85)"/><path class="cls-34" d="M94.29,105.25a1.06,1.06,0,0,1-.11-.09.49.49,0,0,0-.19-.07s-.11,0-.08.09a3.18,3.18,0,0,1,.16.32s.12,0,.15,0a.19.19,0,0,0,.08-.1S94.34,105.28,94.29,105.25Z" transform="translate(-7.88 -20.85)"/><path class="cls-26" d="M91.29,98c-4.1.36-8.86,2.18-10.26,6.47-.09.25.27,0,.32-.06a9,9,0,0,1,4.16-4.34,29.35,29.35,0,0,1,3.13-1.28c.86-.27,1.74-.39,2.59-.65C91.27,98.16,91.38,98,91.29,98Z" transform="translate(-7.88 -20.85)"/><path class="cls-26" d="M81,105.3c0-.12.09-.26,0-.4s-.2.06-.19.14a.4.4,0,0,1-.08.26.81.81,0,0,0-.08.25c0,.15-.07.33.09.4s.25-.12.24-.21S81.05,105.45,81,105.3Z" transform="translate(-7.88 -20.85)"/><path class="cls-35" d="M48.8,105A4.13,4.13,0,1,1,45,100.62,4.13,4.13,0,0,1,48.8,105Z" transform="translate(-7.88 -20.85)"/><path class="cls-36" d="M45.52,101.77c.36.74-.25,1.77-1.35,2.28s-2.27.34-2.63-.4.26-1.76,1.36-2.28S45.17,101,45.52,101.77Z" transform="translate(-7.88 -20.85)"/><path class="cls-26" d="M43.53,101c-1,.29-2.26,1.28-2.24,2.41,0,.2.27,0,.31-.09a3.75,3.75,0,0,1,1.89-2.1C43.57,101.22,43.7,101,43.53,101Z" transform="translate(-7.88 -20.85)"/><path class="cls-26" d="M41.39,104.7c0-.16,0-.32,0-.47s-.24,0-.25.1c-.06.28-.29.83,0,1.06s.33-.13.34-.24S41.4,104.85,41.39,104.7Z" transform="translate(-7.88 -20.85)"/><path class="cls-35" d="M56.36,101.49a4.13,4.13,0,1,1-3.91-4.34A4.14,4.14,0,0,1,56.36,101.49Z" transform="translate(-7.88 -20.85)"/><path class="cls-36" d="M53,98.29c.37.73-.22,1.77-1.31,2.31s-2.26.38-2.63-.35.22-1.77,1.31-2.31S52.64,97.55,53,98.29Z" transform="translate(-7.88 -20.85)"/><path class="cls-26" d="M51,97.59c-1,.31-2.24,1.33-2.21,2.46,0,.2.29,0,.32-.09A3.73,3.73,0,0,1,51,97.82C51.05,97.78,51.17,97.54,51,97.59Z" transform="translate(-7.88 -20.85)"/><path class="cls-26" d="M48.94,101.29c0-.15,0-.31,0-.46s-.24,0-.25.1c-.05.28-.27.84,0,1.06s.32-.13.32-.24S49,101.44,48.94,101.29Z" transform="translate(-7.88 -20.85)"/><path class="cls-35" d="M60.15,107.83a4.13,4.13,0,1,1-3.82-4.42A4.14,4.14,0,0,1,60.15,107.83Z" transform="translate(-7.88 -20.85)"/><path class="cls-36" d="M56.87,104.56c.35.74-.26,1.76-1.36,2.28s-2.27.34-2.62-.4.25-1.77,1.35-2.28S56.52,103.82,56.87,104.56Z" transform="translate(-7.88 -20.85)"/><path class="cls-26" d="M54.88,103.82c-1,.29-2.27,1.29-2.25,2.42,0,.19.27,0,.31-.09a3.79,3.79,0,0,1,1.9-2.11C54.92,104,55,103.78,54.88,103.82Z" transform="translate(-7.88 -20.85)"/><path class="cls-26" d="M52.73,107.48c0-.15,0-.31,0-.47s-.23,0-.25.11c0,.28-.29.82,0,1.06s.32-.13.33-.24S52.74,107.63,52.73,107.48Z" transform="translate(-7.88 -20.85)"/></g></g></svg>