<svg xmlns="http://www.w3.org/2000/svg" viewBox="0 0 239.45 101.54"><defs><style>.cls-1{isolation:isolate;}.cls-2{fill:#dadada;}.cls-3{fill:#f4f4f4;}.cls-4{fill:#ebeaea;}.cls-5{fill:#d9a455;}.cls-11,.cls-20,.cls-6{fill:#ecbf6b;}.cls-6{opacity:0.5;}.cls-14,.cls-20,.cls-22,.cls-26,.cls-27,.cls-32,.cls-6{mix-blend-mode:multiply;}.cls-7{fill:#f8d283;}.cls-8{fill:#eab662;}.cls-14,.cls-9{fill:#d59b51;}.cls-10{fill:#cd9032;}.cls-12{fill:#f5c880;}.cls-13{fill:#e7b069;}.cls-14,.cls-20,.cls-27,.cls-28{opacity:0.4;}.cls-15{fill:#fdda89;}.cls-16{fill:#c49443;}.cls-17{fill:#ffe9a9;}.cls-18{fill:#ffdb94;}.cls-19{fill:#f1c36e;}.cls-21{fill:#ffe092;}.cls-23{fill:#cec2b2;}.cls-24{fill:#bc2c00;}.cls-25{fill:#9e1e00;}.cls-26{opacity:0.8;}.cls-28,.cls-33{mix-blend-mode:screen;}.cls-29{fill:none;}.cls-30{fill:#3f9f36;}.cls-31{fill:#6ab432;}.cls-32{opacity:0.6;}.cls-33{fill:#a0bc2b;opacity:0.7;}.cls-34{fill:#8a8f23;}.cls-35{fill:#fffbdf;}</style></defs><g class="cls-1"><g id="Layer_1" data-name="Layer 1"><path class="cls-2" d="M566.74,182c0,26.21-53.6,47.46-119.72,47.46S327.3,208.19,327.3,182,380.9,134.52,447,134.52,566.74,155.76,566.74,182Z" transform="translate(-327.3 -127.9)"/><path class="cls-3" d="M566.74,179.59c0,26.22-53.6,47.46-119.72,47.46S327.3,205.81,327.3,179.59,380.9,132.13,447,132.13,566.74,153.38,566.74,179.59Z" transform="translate(-327.3 -127.9)"/><path class="cls-4" d="M528.67,174.7c0,17.88-36.55,32.37-81.65,32.37s-81.65-14.49-81.65-32.37,36.55-32.37,81.65-32.37S528.67,156.82,528.67,174.7Z" transform="translate(-327.3 -127.9)"/><path class="cls-3" d="M525.83,175.3c0,17-35.28,30.71-78.81,30.71s-78.81-13.75-78.81-30.71,35.28-30.72,78.81-30.72S525.83,158.33,525.83,175.3Z" transform="translate(-327.3 -127.9)"/><path class="cls-5" d="M443.54,154.4c-.08-3.67,2.67-4.43,2.67-4.43,6.07.87,25.44,8.12,25.44,8.12s-.74-.17-1.32.82-.87,5.54,2.54,9.39c1.78,2,2.32,2,2.72,2.13-17.95-4.17-29.4-9.83-29.4-9.83A9.82,9.82,0,0,1,443.54,154.4Z" transform="translate(-327.3 -127.9)"/><path class="cls-6" d="M443.54,154.4a5,5,0,0,1,.7-2.84,6,6,0,0,0-.07,1.08,9.75,9.75,0,0,0,2.66,6.2,143.67,143.67,0,0,0,25.56,8.89c.16.19.31.38.48.57,1.78,2,2.32,2,2.72,2.13-17.95-4.17-29.4-9.83-29.4-9.83A9.82,9.82,0,0,1,443.54,154.4Z" transform="translate(-327.3 -127.9)"/><path class="cls-7" d="M472.87,168.3c-3.41-3.85-3.13-8.4-2.54-9.39s1.32-.82,1.32-.82c1,.3,3.74,1.53,5.23,6.22,1.33,4.15-.17,6.38-1.29,6.12C475.19,170.3,474.65,170.31,472.87,168.3Z" transform="translate(-327.3 -127.9)"/><path class="cls-8" d="M473.35,167.83c-2.69-3.05-2.46-6.64-2-7.43s1-.64,1-.64c.8.23,2.95,1.21,4.14,4.92,1.05,3.28-.15,5-1,4.83C475.19,169.41,474.76,169.42,473.35,167.83Z" transform="translate(-327.3 -127.9)"/><path class="cls-9" d="M471.35,160.4a1.19,1.19,0,0,1,.86-.65,8.45,8.45,0,0,1,2.4,3.92c.9,2.83.14,4.52-.65,4.81-.18-.18-.38-.4-.61-.65C470.66,164.78,470.89,161.19,471.35,160.4Z" transform="translate(-327.3 -127.9)"/><path class="cls-10" d="M466.19,164.4l-.63-.26c-.4-.16-1-.4-1.66-.66s-1.49-.56-2.36-.87c-.43-.15-.88-.33-1.34-.47l-1.4-.46-2.75-.87c-.44-.14-.88-.23-1.29-.34l-1.15-.3c-.71-.18-1.32-.31-1.73-.42l-.66-.14.64.22,1.69.55,2.41.75c.86.3,1.8.6,2.74.91s1.87.59,2.74.88,1.7.54,2.4.76l1.7.53Z" transform="translate(-327.3 -127.9)"/><path class="cls-10" d="M449.58,155.88l.84.19,2.2.5c.91.21,2,.46,3.1.75.57.13,1.15.29,1.74.44l1.79.5,1.78.51,1.71.54,1.6.54,1.41.52,1.19.47c.35.13.65.28.9.39l.79.34-.76-.41c-.24-.12-.53-.29-.88-.45s-.73-.35-1.16-.54l-1.4-.58c-.5-.2-1-.39-1.59-.59l-1.71-.57-1.78-.53-1.8-.48-1.76-.42c-1.14-.27-2.21-.46-3.13-.64C450.82,156,449.58,155.88,449.58,155.88Z" transform="translate(-327.3 -127.9)"/><path class="cls-5" d="M404.71,159a3,3,0,0,1,1.91-3.16c4.33.62,18.15,5.8,18.15,5.8s-.53-.13-.95.58-.62,3.94,1.82,6.7c1.27,1.44,1.65,1.42,1.94,1.52a105.83,105.83,0,0,1-21-7A7,7,0,0,1,404.71,159Z" transform="translate(-327.3 -127.9)"/><path class="cls-6" d="M404.71,159a3.72,3.72,0,0,1,.5-2,6.1,6.1,0,0,0,0,.77,7,7,0,0,0,1.9,4.43,103,103,0,0,0,18.24,6.34l.34.41c1.27,1.44,1.65,1.42,1.94,1.52a105.83,105.83,0,0,1-21-7A7,7,0,0,1,404.71,159Z" transform="translate(-327.3 -127.9)"/><path class="cls-7" d="M425.64,168.94c-2.44-2.76-2.23-6-1.82-6.7s.95-.58.95-.58c.72.21,2.66,1.08,3.73,4.43.95,3-.13,4.55-.92,4.37C427.29,170.36,426.91,170.38,425.64,168.94Z" transform="translate(-327.3 -127.9)"/><path class="cls-8" d="M426,168.6c-1.92-2.18-1.76-4.74-1.43-5.3s.75-.45.75-.45c.57.16,2.1.85,2.95,3.5.75,2.34-.11,3.6-.74,3.45C427.29,169.73,427,169.74,426,168.6Z" transform="translate(-327.3 -127.9)"/><path class="cls-9" d="M424.55,163.3a.83.83,0,0,1,.62-.46,6,6,0,0,1,1.71,2.8c.64,2,.1,3.22-.47,3.42l-.43-.46C424.06,166.42,424.22,163.86,424.55,163.3Z" transform="translate(-327.3 -127.9)"/><path class="cls-10" d="M420.87,166.15l-.44-.18c-.29-.11-.69-.29-1.19-.47l-1.69-.63-.95-.33-1-.33-2-.62-.92-.24-.82-.21-1.24-.3-.47-.1.46.15,1.21.4,1.71.53,1.95.65c.67.22,1.34.42,2,.63l1.72.54,1.21.38Z" transform="translate(-327.3 -127.9)"/><path class="cls-10" d="M409,160.08l.59.13,1.57.36c.65.14,1.41.33,2.21.53l1.24.32,1.28.35,1.27.37c.42.13.83.25,1.22.39l1.14.38,1,.37.84.33c.26.09.47.2.65.28.35.16.56.24.56.24l-.54-.29c-.17-.08-.38-.21-.63-.32l-.82-.39c-.32-.12-.65-.26-1-.41l-1.13-.42-1.23-.4-1.27-.39-1.29-.33-1.25-.31c-.81-.19-1.57-.32-2.23-.45C409.91,160.18,409,160.08,409,160.08Z" transform="translate(-327.3 -127.9)"/><path class="cls-5" d="M427.49,170.27c-2.66-2.39-2.11-4.65-2.11-4.65,3-3.32,16-10.91,16-10.91s-.42.35.06,1.38a11,11,0,0,0,7.74,4.61c2.16.19,2.37-.16,2.61-.33C441.61,169.1,433,172.68,433,172.68A9.11,9.11,0,0,1,427.49,170.27Z" transform="translate(-327.3 -127.9)"/><path class="cls-7" d="M449.14,160.7a11,11,0,0,1-7.74-4.61c-.48-1-.06-1.38-.06-1.38.62-.46,2.58-1.39,6.55.77,3.5,1.9,4.49,4.35,3.86,4.89C451.51,160.54,451.3,160.89,449.14,160.7Z" transform="translate(-327.3 -127.9)"/><path class="cls-8" d="M449,160.08a8.71,8.71,0,0,1-6.12-3.65c-.38-.81-.05-1.09-.05-1.09.49-.36,2-1.1,5.17.61,2.77,1.51,3.56,3.44,3.06,3.87C450.87,160,450.7,160.23,449,160.08Z" transform="translate(-327.3 -127.9)"/><path class="cls-9" d="M442.88,156.43a1.14,1.14,0,0,1-.12-1,7,7,0,0,1,3.76,1.07c2.38,1.29,3.3,2.9,3.19,3.6-.2,0-.44,0-.71,0A8.71,8.71,0,0,1,442.88,156.43Z" transform="translate(-327.3 -127.9)"/><path class="cls-10" d="M443.69,162.39l-.44.23c-.27.15-.67.35-1.13.63s-1,.58-1.57.93c-.29.17-.58.35-.87.55l-.89.59-1.72,1.19c-.27.19-.51.4-.75.59l-.68.55c-.41.33-.75.63-1,.83l-.36.32.41-.26c.26-.18.63-.41,1.07-.72l1.49-1c.57-.35,1.15-.75,1.75-1.14s1.16-.81,1.72-1.18,1.07-.73,1.51-1l1.05-.74Z" transform="translate(-327.3 -127.9)"/><path class="cls-10" d="M431,167.38l.47-.42,1.23-1.07c.52-.45,1.12-.95,1.78-1.49.32-.27.66-.55,1-.82s.71-.54,1.07-.82l1.07-.8c.37-.25.72-.51,1.07-.74l1-.66.93-.57.81-.44c.24-.14.46-.23.64-.32l.56-.28-.59.21c-.19.08-.43.15-.68.27l-.85.38-1,.52c-.34.18-.7.39-1.06.62s-.71.48-1.09.72l-1.09.79c-.36.28-.72.55-1.06.84s-.69.56-1,.84c-.65.56-1.22,1.11-1.71,1.58C431.56,166.68,431,167.38,431,167.38Z" transform="translate(-327.3 -127.9)"/><path class="cls-11" d="M499.57,148c.81-1.08,1.73-3.18-.87-5.87-3.37-3.52-5.48-2.12-6.61-1.64s-9.88,9.14-13,12.08c-.36.34-.72.7-1.06,1.06,0,0,4.44-2.58,7.34.93s1,6.69-.83,8.31c.31-.23.56-.44.73-.58C487.87,160.17,499,148.78,499.57,148Z" transform="translate(-327.3 -127.9)"/><path class="cls-12" d="M484.57,162.86c1.87-1.62,3.74-4.8.83-8.31s-7.32-1-7.34-.93c-2.57,2.71-4.31,5.87-1,9.11,3,2.92,6,1.24,7.53.13Z" transform="translate(-327.3 -127.9)"/><path class="cls-13" d="M483.39,162.25c1.54-1.4,3.12-4.09.89-6.9s-5.83-.53-5.85-.52c-2.12,2.33-3.59,5-1,7.58,2.29,2.31,4.76.82,6-.16Z" transform="translate(-327.3 -127.9)"/><path class="cls-14" d="M479.19,160.28c1.92,1.94,4,.69,5-.12a5.8,5.8,0,0,0,1.13-1.42,4.44,4.44,0,0,0-1.07-3.39,3.88,3.88,0,0,0-4.46-1.14C478.18,156.1,477.15,158.23,479.19,160.28Z" transform="translate(-327.3 -127.9)"/><path class="cls-10" d="M494.3,141.86l-.36.45c-.25.28-.59.69-1,1.17s-.9,1.05-1.43,1.64-1.08,1.23-1.64,1.87-1.13,1.26-1.67,1.84c-.27.3-.51.6-.75.88s-.46.53-.66.78c-.41.48-.78.87-1,1.15l-.4.43.33-.49c.21-.31.51-.76.88-1.28l.61-.84c.22-.29.43-.62.69-.92.51-.61,1.08-1.25,1.63-1.89.29-.31.57-.63.85-.94s.57-.6.84-.89c.55-.57,1.09-1.08,1.54-1.53s.85-.8,1.13-1Z" transform="translate(-327.3 -127.9)"/><path class="cls-10" d="M495,145l-.24.33c-.16.19-.37.49-.65.82s-.6.73-1,1.14l-1.11,1.28c-.39.43-.78.86-1.16,1.24s-.74.75-1,1-.59.55-.77.73l-.3.26.23-.33c.16-.2.36-.5.64-.84s.58-.75.93-1.16.73-.86,1.12-1.29.77-.86,1.16-1.25.76-.72,1.07-1,.6-.53.78-.7Z" transform="translate(-327.3 -127.9)"/><path class="cls-11" d="M494.3,149.09l-.18.31c-.14.2-.3.49-.53.81s-.5.71-.8,1.11-.64.8-1,1.21-.69.8-1,1.16a6,6,0,0,1-.51.5l-.46.44c-.29.27-.55.48-.72.64l-.28.23.21-.3c.15-.18.34-.46.59-.76l1.84-2.25,1-1.16c.32-.38.65-.71.91-1s.51-.52.66-.69Z" transform="translate(-327.3 -127.9)"/><path class="cls-11" d="M431.55,166.15c.8-4.07-1.37-5.63-1.37-5.63-5.28-.64-23.05,2.32-23.05,2.32s.66,0,1,1.26-.37,6.38-4,9.78c-1.91,1.77-2.36,1.61-2.72,1.64,15.95.1,26.71-3.18,26.71-3.18A11.11,11.11,0,0,0,431.55,166.15Z" transform="translate(-327.3 -127.9)"/><path class="cls-7" d="M404.33,173.88c3.64-3.4,4.31-8.52,4-9.78s-1-1.26-1-1.26c-.9.06-3.44.71-5.64,5.54-1.95,4.27-1.12,7.14-.13,7.15C402,175.49,402.42,175.65,404.33,173.88Z" transform="translate(-327.3 -127.9)"/><path class="cls-8" d="M404,173.22c2.88-2.68,3.41-6.73,3.17-7.72s-.75-1-.75-1c-.72.05-2.72.56-4.46,4.38-1.54,3.37-.89,5.64-.11,5.65C402.15,174.5,402.51,174.62,404,173.22Z" transform="translate(-327.3 -127.9)"/><path class="cls-9" d="M407.18,165.5c-.15-.66-.42-.88-.6-1a8.73,8.73,0,0,0-2.79,3.74c-1.33,2.9-1,5-.41,5.51q.27-.22.63-.57C406.89,170.54,407.42,166.49,407.18,165.5Z" transform="translate(-327.3 -127.9)"/><path class="cls-10" d="M410.73,171.3l.58-.13c.37-.07.89-.19,1.52-.29l2.17-.35,1.22-.17,1.27-.14L420,170c.4,0,.79,0,1.15,0l1,0c.64,0,1.18,0,1.55,0h.58l-.58.07-1.54.17-2.17.2-2.49.29c-.85.09-1.69.16-2.48.26l-2.18.21-1.54.14Z" transform="translate(-327.3 -127.9)"/><path class="cls-10" d="M426.41,166.21l-.74,0-1.95,0c-.81,0-1.75,0-2.76,0-.5,0-1,0-1.55,0s-1.07.05-1.61.08l-1.6.09-1.55.16-1.45.17-1.3.2-1.09.22c-.33.05-.6.14-.84.19l-.73.18.72-.26c.23-.07.51-.19.83-.27l1.09-.3,1.29-.26c.46-.1.95-.17,1.45-.25l1.56-.17,1.61-.13c.54,0,1.08-.05,1.61-.05s1.06,0,1.56,0c1,0,2,.07,2.76.11C425.34,166,426.41,166.21,426.41,166.21Z" transform="translate(-327.3 -127.9)"/><path class="cls-11" d="M437.56,168.17c-1.47-3.37.79-5.1.79-5.1,5.94-1.51,26.62-2.16,26.62-2.16s-.75.12-.92,1.26,1.3,5.45,5.92,7.72c2.42,1.19,2.91,1,3.33.93-18.19,3-30.93,2.08-30.93,2.08A9.81,9.81,0,0,1,437.56,168.17Z" transform="translate(-327.3 -127.9)"/><path class="cls-6" d="M437.56,168.17a5,5,0,0,1-.43-2.89,7.17,7.17,0,0,0,.34,1,9.81,9.81,0,0,0,4.82,4.73,143.76,143.76,0,0,0,27-1.49l.65.35c2.42,1.19,2.91,1,3.33.93-18.19,3-30.93,2.08-30.93,2.08A9.81,9.81,0,0,1,437.56,168.17Z" transform="translate(-327.3 -127.9)"/><path class="cls-7" d="M470,169.89c-4.62-2.27-6.08-6.58-5.92-7.72s.92-1.26.92-1.26c1-.11,4,0,7.2,3.77,2.81,3.33,2.26,6,1.13,6.14C472.88,170.86,472.39,171.08,470,169.89Z" transform="translate(-327.3 -127.9)"/><path class="cls-8" d="M470.24,169.27c-3.65-1.8-4.81-5.21-4.67-6.1s.72-1,.72-1c.83-.09,3.18,0,5.69,3,2.22,2.63,1.78,4.71.89,4.86C472.55,170,472.15,170.21,470.24,169.27Z" transform="translate(-327.3 -127.9)"/><path class="cls-9" d="M465.57,163.17a1.16,1.16,0,0,1,.55-.94,8.49,8.49,0,0,1,3.71,2.72c1.9,2.27,1.84,4.12,1.22,4.69l-.81-.37C466.59,167.47,465.43,164.06,465.57,163.17Z" transform="translate(-327.3 -127.9)"/><path class="cls-10" d="M462.32,168.82h-.68c-.43,0-1.05,0-1.79,0s-1.6,0-2.52.08c-.46,0-.93,0-1.42.08l-1.46.11c-1,.08-2,.15-2.88.24-.46,0-.9.12-1.32.17l-1.18.17c-.73.1-1.33.21-1.76.27l-.67.11.68,0c.43,0,1.05-.06,1.78-.13l2.51-.22,2.87-.2c1-.07,2-.17,2.88-.23s1.77-.14,2.51-.2l1.77-.16Z" transform="translate(-327.3 -127.9)"/><path class="cls-10" d="M443.72,167.25l.84-.15,2.23-.37c.92-.16,2-.31,3.15-.49.57-.09,1.17-.16,1.78-.24s1.22-.15,1.84-.23l1.84-.2,1.79-.15,1.68-.11,1.51-.06h1.27c.38,0,.71,0,1,0l.85,0-.85-.1c-.27,0-.6-.07-1-.08l-1.28-.06h-1.51c-.54,0-1.11,0-1.69.05l-1.8.13-1.86.18-1.84.25c-.61.09-1.21.17-1.79.27-1.15.19-2.22.42-3.13.6C444.92,166.91,443.72,167.25,443.72,167.25Z" transform="translate(-327.3 -127.9)"/><path class="cls-15" d="M513.28,154.68c.92-3.56-1.58-4.93-1.58-4.93-6.1-.56-26.63,2-26.63,2s.75,0,1.1,1.1-.43,5.58-4.64,8.55c-2.2,1.55-2.72,1.41-3.14,1.44,18.43.09,30.87-2.78,30.87-2.78A9.85,9.85,0,0,0,513.28,154.68Z" transform="translate(-327.3 -127.9)"/><path class="cls-7" d="M481.53,161.44c4.21-3,5-7.46,4.64-8.55s-1.1-1.1-1.1-1.1c-1.06.05-4,.62-6.53,4.84-2.25,3.73-1.29,6.25-.15,6.25C478.81,162.85,479.33,163,481.53,161.44Z" transform="translate(-327.3 -127.9)"/><path class="cls-8" d="M481.17,160.87c3.32-2.35,3.93-5.89,3.66-6.76s-.87-.87-.87-.87c-.83,0-3.14.49-5.16,3.83-1.77,3-1,4.93-.11,4.94C479,162,479.43,162.09,481.17,160.87Z" transform="translate(-327.3 -127.9)"/><path class="cls-9" d="M484.83,154.11a1.2,1.2,0,0,0-.69-.84,8.38,8.38,0,0,0-3.23,3.27c-1.53,2.54-1.19,4.36-.48,4.82.21-.13.46-.29.74-.49C484.49,158.52,485.1,155,484.83,154.11Z" transform="translate(-327.3 -127.9)"/><path class="cls-10" d="M488.93,159.19l.67-.12c.42-.06,1-.16,1.76-.25s1.59-.21,2.51-.31c.45,0,.93-.11,1.41-.15l1.46-.12,2.89-.21c.45,0,.9,0,1.32,0l1.19,0h2.46l-.68.07c-.42,0-1,.1-1.77.15l-2.51.17-2.87.25-2.88.23c-.92.08-1.77.13-2.51.19l-1.78.12Z" transform="translate(-327.3 -127.9)"/><path class="cls-10" d="M507.05,154.73l-.86,0-2.25,0c-.93,0-2,0-3.19,0l-1.79,0c-.62,0-1.24,0-1.86.07l-1.86.08-1.79.14-1.67.15-1.49.18-1.27.18c-.38.05-.7.13-1,.17l-.84.16.83-.23c.27-.06.59-.16,1-.23l1.25-.26,1.5-.24c.53-.08,1.1-.14,1.68-.21s1.19-.1,1.8-.15l1.86-.11c.62,0,1.25-.05,1.86-.05s1.22,0,1.8,0c1.17,0,2.26.06,3.2.1C505.81,154.58,507.05,154.73,507.05,154.73Z" transform="translate(-327.3 -127.9)"/><path class="cls-5" d="M467,171.12c1.68-3.27,4.46-2.63,4.46-2.63,4.93,3.64,18.53,19.23,18.53,19.23s-.57-.51-1.55.09-3.4,4.45-2.22,9.47c.61,2.62,1.09,2.86,1.38,3.17-13.82-12.2-21.2-22.61-21.2-22.61A9.81,9.81,0,0,1,467,171.12Z" transform="translate(-327.3 -127.9)"/><path class="cls-7" d="M486.26,197.28c-1.18-5,1.24-8.88,2.22-9.47s1.55-.09,1.55-.09c.76.74,2.57,3.11,1.66,8-.81,4.28-3.2,5.52-4.05,4.77C487.35,200.14,486.87,199.9,486.26,197.28Z" transform="translate(-327.3 -127.9)"/><path class="cls-8" d="M486.9,197.1c-.92-4,1-7,1.77-7.49s1.22-.07,1.22-.07c.59.58,2,2.46,1.31,6.29-.64,3.38-2.52,4.37-3.2,3.77C487.77,199.36,487.39,199.17,486.9,197.1Z" transform="translate(-327.3 -127.9)"/><path class="cls-9" d="M488.67,189.61a1.15,1.15,0,0,1,1.07-.16A8.36,8.36,0,0,1,490,194c-.55,2.92-2,4.05-2.85,3.93-.07-.25-.15-.53-.23-.86C486,193.13,487.88,190.08,488.67,189.61Z" transform="translate(-327.3 -127.9)"/><path class="cls-10" d="M482.23,190.68s-.15-.2-.43-.53-.66-.82-1.15-1.37-1-1.2-1.66-1.89c-.31-.34-.62-.7-1-1l-1-1.07-2-2.07c-.32-.33-.66-.62-1-.91l-.87-.81c-.54-.5-1-.9-1.33-1.19l-.51-.44.46.49c.3.32.72.77,1.23,1.29l1.76,1.81,2,2.1c.68.71,1.37,1.4,2,2.08s1.24,1.27,1.75,1.81l1.25,1.27Z" transform="translate(-327.3 -127.9)"/><path class="cls-10" d="M471.66,175.29l.65.56c.41.36,1,.88,1.7,1.49s1.51,1.34,2.37,2.13l1.32,1.22c.45.41.89.85,1.34,1.28l1.32,1.3c.43.44.86.86,1.26,1.29l1.14,1.23,1,1.13c.3.36.57.69.82,1s.44.56.61.78l.52.67-.46-.72c-.16-.22-.33-.51-.56-.81s-.48-.66-.77-1-.62-.76-1-1.18-.72-.83-1.11-1.27L480.61,183l-1.31-1.32c-.46-.43-.91-.86-1.36-1.27s-.91-.82-1.35-1.2c-.87-.78-1.72-1.46-2.45-2.06C472.69,176,471.66,175.29,471.66,175.29Z" transform="translate(-327.3 -127.9)"/><path class="cls-5" d="M446.21,182.15c0-3.67,2.78-4.35,2.78-4.35,6.05,1,25.22,8.8,25.22,8.8s-.73-.2-1.34.78-1,5.51,2.29,9.45c1.72,2.07,2.27,2.07,2.66,2.2-17.83-4.64-29.12-10.6-29.12-10.6A9.82,9.82,0,0,1,446.21,182.15Z" transform="translate(-327.3 -127.9)"/><path class="cls-7" d="M475.16,196.83c-3.31-3.94-2.9-8.48-2.29-9.45s1.34-.78,1.34-.78c1,.32,3.7,1.62,5.07,6.36,1.21,4.18-.35,6.36-1.46,6.07C477.43,198.9,476.88,198.9,475.16,196.83Z" transform="translate(-327.3 -127.9)"/><path class="cls-8" d="M475.65,196.38c-2.61-3.12-2.29-6.71-1.8-7.48s1.06-.61,1.06-.61c.8.25,2.92,1.28,4,5,1,3.31-.28,5-1.15,4.81C477.45,198,477,198,475.65,196.38Z" transform="translate(-327.3 -127.9)"/><path class="cls-9" d="M473.85,188.9a1.11,1.11,0,0,1,.88-.62,8.25,8.25,0,0,1,2.29,4c.82,2.85,0,4.52-.78,4.78-.17-.18-.36-.4-.59-.66C473,193.26,473.36,189.67,473.85,188.9Z" transform="translate(-327.3 -127.9)"/><path class="cls-10" d="M468.59,192.76l-.62-.28c-.4-.17-1-.43-1.64-.7s-1.48-.61-2.34-.94c-.43-.16-.87-.35-1.33-.5l-1.38-.5c-.93-.32-1.86-.65-2.74-.94-.43-.15-.87-.26-1.27-.38l-1.15-.32c-.71-.21-1.3-.35-1.72-.47l-.65-.16.63.23,1.68.6,2.38.81c.87.33,1.79.65,2.71,1s1.86.63,2.73,1l2.37.83,1.69.57Z" transform="translate(-327.3 -127.9)"/><path class="cls-10" d="M452.21,183.8l.84.21,2.18.56c.9.23,2,.51,3.08.83l1.73.49,1.77.54,1.77.56,1.7.59,1.58.58,1.4.55,1.17.51c.35.14.64.3.89.41l.78.37-.75-.44c-.24-.13-.52-.31-.86-.47l-1.15-.57L467,187.9c-.49-.21-1-.42-1.56-.63s-1.12-.4-1.7-.61l-1.77-.59c-.6-.17-1.2-.36-1.79-.52l-1.74-.47c-1.13-.3-2.2-.52-3.11-.72C453.45,184,452.21,183.8,452.21,183.8Z" transform="translate(-327.3 -127.9)"/><path class="cls-5" d="M400.21,158.06c2.54-2.64,5-1.23,5-1.23,3.67,4.91,12.19,23.77,12.19,23.77s-.4-.64-1.51-.36-4.54,3.28-4.87,8.42c-.18,2.69.22,3.06.41,3.43-9.71-15.67-13.76-27.77-13.76-27.77A9.77,9.77,0,0,1,400.21,158.06Z" transform="translate(-327.3 -127.9)"/><path class="cls-7" d="M411,188.66c.33-5.14,3.75-8.14,4.87-8.42s1.51.36,1.51.36c.5.93,1.55,3.72-.72,8.1-2,3.87-4.65,4.37-5.25,3.39C411.25,191.72,410.85,191.35,411,188.66Z" transform="translate(-327.3 -127.9)"/><path class="cls-8" d="M411.7,188.67c.26-4.06,3-6.43,3.85-6.65s1.2.28,1.2.28c.39.74,1.22,2.94-.57,6.41-1.59,3-3.68,3.44-4.16,2.68C411.88,191.09,411.57,190.8,411.7,188.67Z" transform="translate(-327.3 -127.9)"/><path class="cls-9" d="M415.55,182a1.15,1.15,0,0,1,1.07.15,8.32,8.32,0,0,1-1.09,4.46c-1.37,2.64-3.1,3.29-3.86,2.93,0-.25,0-.54,0-.89C412,184.61,414.67,182.24,415.55,182Z" transform="translate(-327.3 -127.9)"/><path class="cls-10" d="M409.08,181.18l-.25-.63c-.17-.4-.4-1-.71-1.64s-.65-1.46-1-2.29c-.2-.42-.39-.86-.62-1.29s-.43-.87-.66-1.31c-.44-.87-.89-1.75-1.32-2.57-.21-.4-.45-.78-.66-1.15l-.61-1c-.37-.64-.7-1.16-.92-1.53l-.37-.57s.12.23.3.61.46.94.81,1.59.73,1.42,1.16,2.23.84,1.71,1.28,2.58.9,1.75,1.31,2.57.82,1.59,1.15,2.24l.83,1.58C409,181,409.08,181.18,409.08,181.18Z" transform="translate(-327.3 -127.9)"/><path class="cls-10" d="M403.41,163.4l.46.72c.29.46.71,1.12,1.2,1.91s1.06,1.73,1.65,2.73c.31.5.61,1,.91,1.55s.61,1.07.91,1.61l.9,1.63.83,1.6c.25.52.5,1,.74,1.5s.43.95.63,1.37.34.83.5,1.17.26.67.36.92c.19.51.31.8.31.8s-.09-.3-.24-.83c-.09-.26-.17-.58-.31-.94s-.26-.76-.43-1.21-.37-.9-.58-1.39-.45-1-.7-1.54-.53-1.07-.8-1.62l-.88-1.64c-.32-.54-.62-1.09-.94-1.61s-.62-1-.93-1.54c-.61-1-1.23-1.9-1.75-2.67C404.19,164.38,403.41,163.4,403.41,163.4Z" transform="translate(-327.3 -127.9)"/><path class="cls-5" d="M471.59,176.32c-2.42,3.45-.66,5.92-.66,5.92,5.52,3,26,8.52,26,8.52s-.72-.31-.57-1.62,2.85-5.83,8.12-7.32c2.75-.77,3.19-.42,3.59-.28-17.37-7.5-30.37-9.42-30.37-9.42A10.93,10.93,0,0,0,471.59,176.32Z" transform="translate(-327.3 -127.9)"/><path class="cls-6" d="M471.59,176.32a6.44,6.44,0,0,0-1.25,3.15,8.24,8.24,0,0,1,.63-1.07,11,11,0,0,1,6.16-4.21s11.17,1.67,26.64,7.87l.75-.24c2.75-.77,3.19-.42,3.59-.28-17.37-7.5-30.37-9.42-30.37-9.42A10.93,10.93,0,0,0,471.59,176.32Z" transform="translate(-327.3 -127.9)"/><path class="cls-7" d="M504.52,181.82c-5.27,1.49-8,6-8.12,7.32s.57,1.62.57,1.62c1,.36,4,.93,8.27-2.58,3.76-3.1,3.95-6.18,2.87-6.64C507.71,181.4,507.27,181.05,504.52,181.82Z" transform="translate(-327.3 -127.9)"/><path class="cls-8" d="M504.61,182.58c-4.16,1.18-6.28,4.74-6.41,5.78s.45,1.28.45,1.28c.8.29,3.18.74,6.54-2,3-2.45,3.11-4.89,2.26-5.26C507.13,182.25,506.79,182,504.61,182.58Z" transform="translate(-327.3 -127.9)"/><path class="cls-9" d="M498.2,188.36a1.31,1.31,0,0,0,.3,1.17,8.93,8.93,0,0,0,4.47-2.2c2.56-2.11,3-4.2,2.56-5-.27.06-.56.13-.92.23C500.45,183.76,498.33,187.32,498.2,188.36Z" transform="translate(-327.3 -127.9)"/><path class="cls-10" d="M496.55,181.27l-.68-.15c-.43-.1-1.05-.24-1.78-.43l-2.5-.68c-.45-.13-.93-.26-1.4-.41l-1.43-.46c-1-.31-1.92-.62-2.82-.93-.44-.15-.87-.33-1.27-.49l-1.13-.46c-.7-.28-1.28-.54-1.68-.71l-.64-.28.66.2,1.75.56,2.44.82c.91.27,1.87.58,2.83.88s1.91.64,2.81.92,1.74.57,2.45.8l1.73.59Z" transform="translate(-327.3 -127.9)"/><path class="cls-10" d="M477.48,178.77l.81.36,2.12.93c.88.38,1.91.81,3,1.26.55.24,1.12.46,1.71.69s1.19.45,1.78.67l1.79.65,1.75.58,1.65.51,1.49.41,1.27.31c.37.1.72.14,1,.2l.87.17-.89-.09a10,10,0,0,1-1-.13l-1.3-.22-1.51-.35c-.54-.13-1.1-.29-1.68-.45s-1.16-.37-1.77-.56l-1.8-.62c-.6-.24-1.2-.46-1.78-.7s-1.16-.48-1.7-.72c-1.11-.47-2.11-1-3-1.39C478.59,179.43,477.48,178.77,477.48,178.77Z" transform="translate(-327.3 -127.9)"/><path class="cls-12" d="M499.54,163.69c-2.47,5.28-.15,5.44-.13,5.44,2.27-.24,4.18-1.92,5.65-4.17,1.69-2.59,1.31-4.52.38-5.52C504.36,158.68,501.81,158.83,499.54,163.69Z" transform="translate(-327.3 -127.9)"/><path class="cls-13" d="M500.31,163.76c-2.25,4.06-.6,4.44-.59,4.44,1.65.05,3.17-1.12,4.43-2.81,1.44-1.93,1.34-3.56.77-4.49C504.21,160.17,502.37,160,500.31,163.76Z" transform="translate(-327.3 -127.9)"/><path class="cls-9" d="M503.29,163.78a5,5,0,0,0,1.17-3.19c-.89-.36-2.44.07-4.15,3.17a9.42,9.42,0,0,0-1.13,2.83C500.71,166.5,502.11,165.37,503.29,163.78Z" transform="translate(-327.3 -127.9)"/><path class="cls-11" d="M504.14,158.7c-1.6-.29-23.12-3-25.95-3.08-4.43-.2-9.28,4.93-6.5,7.87,1.23,1.31,22.49,5.31,26.71,5.65a5.67,5.67,0,0,0,1,0s-2.34-.16.13-5.44c2.27-4.86,4.82-5,5.9-4.25A2.4,2.4,0,0,0,504.14,158.7Z" transform="translate(-327.3 -127.9)"/><path class="cls-16" d="M479.29,163.09l.69,0c.45,0,1.08.07,1.83.15s1.63.14,2.57.24l2.95.32c1,.12,2,.24,2.94.37l2.56.35c.76.11,1.38.22,1.81.29l.69.11-.69-.05c-.44,0-1.08-.07-1.83-.14l-2.57-.25c-.94-.09-1.95-.2-2.95-.32s-2-.24-2.94-.37l-2.56-.35-1.82-.28Z" transform="translate(-327.3 -127.9)"/><path class="cls-16" d="M484.91,160.17l.59.05c.37,0,.9.07,1.53.15s1.37.14,2.16.24l2.47.33,2.47.36,2.15.36c.63.11,1.15.22,1.51.29l.58.11-.59,0-1.53-.15-2.16-.25-2.47-.33-2.47-.36c-.79-.12-1.52-.26-2.15-.36l-1.51-.28Z" transform="translate(-327.3 -127.9)"/><path class="cls-16" d="M480.12,156.74l.59,0c.37,0,.9.07,1.53.14l2.16.25c.79.09,1.63.21,2.47.32l2.47.37c.79.12,1.52.26,2.15.36s1.14.22,1.51.28l.57.12-.58,0c-.37,0-.9-.07-1.53-.14l-2.16-.25-2.48-.33c-.84-.12-1.68-.24-2.46-.37l-2.15-.35c-.63-.11-1.15-.22-1.51-.29Z" transform="translate(-327.3 -127.9)"/><path class="cls-15" d="M382.78,161.85a3.6,3.6,0,0,0-4.43-2.71c-3.83.7-3.74,3.22-3.88,4.42s2.22,13.35,3,17.56c.09.5.18,1,.29,1.48,0,0,.06-5.11,3.69-5.42s5.07,3,5.41,5.51c0-.39-.07-.71-.1-.93C386.34,178.45,383.08,162.78,382.78,161.85Z" transform="translate(-327.3 -127.9)"/><path class="cls-12" d="M386.83,182.69c-.34-2.46-1.77-5.83-5.41-5.51s-3.69,5.4-3.69,5.42c.81,3.67,2.27,6.93,5.88,6.14,3.26-.71,3.36-4.16,3.22-6.05Z" transform="translate(-327.3 -127.9)"/><path class="cls-13" d="M385.92,183.3c-.33-2.07-1.54-4.92-4.41-4.74s-2.79,4.42-2.79,4.45c.73,3.08,2,5.83,4.81,5.25,2.55-.51,2.55-3.39,2.39-5Z" transform="translate(-327.3 -127.9)"/><path class="cls-14" d="M382.81,185.57c2.14-.43,2.14-2.84,2-4.17a7.07,7.07,0,0,0-.5-1.74,3.41,3.41,0,0,0-2.8-1.1c-1.73.11-2.38,1.7-2.64,3C379.5,184,380.54,186,382.81,185.57Z" transform="translate(-327.3 -127.9)"/><path class="cls-11" d="M376.34,162.56l.16.56c.1.36.24.88.4,1.5s.36,1.34.54,2.11.41,1.6.61,2.42.41,1.66.58,2.43c.09.39.21.76.3,1.12l.26,1c.17.61.28,1.14.38,1.5l.13.57-.21-.55c-.12-.35-.31-.85-.51-1.46l-.33-1c-.11-.35-.25-.72-.35-1.1-.21-.77-.42-1.6-.63-2.43l-.3-1.23c-.1-.41-.18-.81-.26-1.2-.17-.79-.3-1.52-.42-2.15s-.2-1.15-.26-1.52S376.34,162.56,376.34,162.56Z" transform="translate(-327.3 -127.9)"/><path class="cls-11" d="M378.85,163.81s0,.14.12.39.19.59.3,1,.25.92.38,1.44.28,1.1.42,1.66.28,1.13.39,1.66.2,1,.29,1.47.14.79.18,1,.06.4.06.4l-.13-.38c-.08-.25-.2-.59-.32-1s-.28-.91-.41-1.44-.29-1.09-.44-1.66-.27-1.13-.38-1.66-.18-1-.25-1.47-.12-.79-.17-1S378.85,163.81,378.85,163.81Z" transform="translate(-327.3 -127.9)"/><path class="cls-11" d="M381.35,166.76l.14.34c.08.22.21.53.34.91s.28.82.43,1.29.29,1,.44,1.49.26,1,.37,1.51c.06.24.1.48.14.71s.07.43.11.63c.07.39.11.72.14,1s0,.36,0,.36l-.11-.34c-.07-.23-.18-.54-.29-.92-.21-.77-.5-1.79-.78-2.8-.14-.51-.27-1-.39-1.51s-.22-.93-.32-1.31-.15-.72-.2-.94S381.35,166.76,381.35,166.76Z" transform="translate(-327.3 -127.9)"/><path class="cls-15" d="M410,156.12a3.59,3.59,0,0,0,0-5.19c-2.57-2.92-4.68-1.54-5.79-1s-10.29,8.79-13.51,11.6c-.38.33-.76.67-1.12,1,0,0,4.41-2.59,6.55.36s0,5.91-1.94,7.47c.32-.22.58-.42.75-.55C397.64,167.74,409.38,156.86,410,156.12Z" transform="translate(-327.3 -127.9)"/><path class="cls-12" d="M394.25,170.34c1.94-1.56,4.09-4.52,1.94-7.47s-6.53-.38-6.55-.36c-2.73,2.58-4.76,5.51-2.22,8.2,2.28,2.42,5.29.73,6.83-.37Z" transform="translate(-327.3 -127.9)"/><path class="cls-13" d="M393.27,169.88c1.61-1.35,3.42-3.85,1.79-6.22s-5.23-.11-5.25-.1c-2.27,2.22-4,4.7-2,6.83,1.76,1.92,4.22.44,5.49-.51Z" transform="translate(-327.3 -127.9)"/><path class="cls-14" d="M389.72,168.39c1.47,1.61,3.54.36,4.6-.43a6.93,6.93,0,0,0,1.23-1.34,3.42,3.42,0,0,0-.49-3c-1-1.43-2.7-1.17-3.9-.74C389.4,164.71,388.16,166.68,389.72,168.39Z" transform="translate(-327.3 -127.9)"/><path class="cls-11" d="M406.1,151l-.4.43-1.08,1.11c-.45.45-1,1-1.53,1.55s-1.16,1.17-1.76,1.77l-1.78,1.76c-.29.28-.55.56-.81.82l-.71.74c-.44.46-.83.83-1.09,1.09l-.42.41.36-.46c.24-.28.57-.7,1-1.19l.67-.79c.24-.28.48-.58.76-.87l1.75-1.79c.31-.29.61-.6.91-.89s.6-.57.89-.85l1.62-1.46c.47-.44.89-.77,1.17-1Z" transform="translate(-327.3 -127.9)"/><path class="cls-11" d="M406.31,153.77l-.26.3c-.17.19-.42.47-.72.78s-.65.69-1,1.07l-1.19,1.22c-.42.41-.83.81-1.24,1.19s-.77.71-1.09,1-.61.53-.8.69l-.32.26.26-.31c.17-.19.4-.47.7-.79s.64-.71,1-1.1.78-.81,1.19-1.22.83-.82,1.24-1.19.79-.69,1.12-1,.62-.51.81-.67Z" transform="translate(-327.3 -127.9)"/><path class="cls-11" d="M405.07,157.44l-.21.29c-.15.18-.34.45-.6.76s-.55.66-.88,1-.7.76-1.06,1.15l-1.1,1.1-.53.48-.49.42c-.3.26-.56.46-.74.61a3.17,3.17,0,0,1-.29.22l.24-.28.64-.71,2-2.12,1.09-1.11,1-.95c.28-.27.53-.49.7-.65Z" transform="translate(-327.3 -127.9)"/><path class="cls-15" d="M446.6,170.42a3.6,3.6,0,0,0,1.13-5.07c-1.91-3.39-4.26-2.5-5.45-2.23s-11.9,6.42-15.65,8.49c-.44.25-.88.5-1.3.76,0,0,4.85-1.6,6.33,1.74s-1.25,5.77-3.47,6.89c.36-.15.65-.29.85-.39C432.05,179.17,445.82,171,446.6,170.42Z" transform="translate(-327.3 -127.9)"/><path class="cls-6" d="M447.73,165.35a6,6,0,0,0-.69-1,3.58,3.58,0,0,1-1.16,5c-.61.46-9,5.47-14.17,8.37a7.6,7.6,0,0,1-3.52,3.31c.36-.15.65-.29.85-.39,3-1.44,16.78-9.61,17.56-10.19A3.6,3.6,0,0,0,447.73,165.35Z" transform="translate(-327.3 -127.9)"/><path class="cls-12" d="M428.19,181c2.22-1.12,4.95-3.56,3.47-6.89s-6.31-1.74-6.33-1.74c-3.21,2-5.81,4.39-3.9,7.56,1.73,2.84,5,1.82,6.76,1.07Z" transform="translate(-327.3 -127.9)"/><path class="cls-13" d="M427.33,180.34c1.85-1,4.15-3,3.05-5.7s-5.09-1.21-5.11-1.2c-2.68,1.69-4.88,3.75-3.41,6.25,1.31,2.25,4,1.31,5.47.65Z" transform="translate(-327.3 -127.9)"/><path class="cls-14" d="M424.17,178.14c1.1,1.88,3.38,1.1,4.59.54a7,7,0,0,0,1.49-1.05,3.41,3.41,0,0,0,.13-3c-.66-1.61-2.39-1.71-3.65-1.54C424.63,174.48,423,176.14,424.17,178.14Z" transform="translate(-327.3 -127.9)"/><path class="cls-11" d="M443.84,164.56l-.48.33-1.28.86-1.83,1.2-2.1,1.37c-.71.46-1.43.92-2.11,1.33l-1,.64c-.3.21-.59.4-.86.57-.53.36-1,.64-1.29.84l-.5.31.45-.37c.3-.23.71-.57,1.22-1l.82-.63c.29-.22.59-.47.93-.69L438,168l1.07-.68c.35-.23.71-.44,1.05-.64.69-.41,1.34-.77,1.89-1.09s1-.56,1.36-.74Z" transform="translate(-327.3 -127.9)"/><path class="cls-11" d="M443.46,167.34l-.32.24-.86.61L441,169l-1.43.94c-.49.31-1,.62-1.45.9s-.91.53-1.29.75-.7.38-.92.51l-.36.18.31-.25.85-.63,1.22-.85,1.43-.95,1.46-.9,1.3-.72.94-.49Z" transform="translate(-327.3 -127.9)"/><path class="cls-11" d="M441.48,170.66l-.27.24c-.18.15-.43.37-.75.61s-.67.54-1.07.83-.84.6-1.28.9l-1.31.85c-.2.13-.42.24-.62.35l-.56.31c-.35.2-.65.33-.85.44l-.33.16.29-.22c.19-.14.45-.34.78-.57l2.39-1.65,1.3-.85c.41-.28.8-.51,1.14-.73l.82-.49Z" transform="translate(-327.3 -127.9)"/><path class="cls-15" d="M416.94,143c.57-4.06-2.5-5.23-2.5-5.23-7.11.2-30.4,5.84-30.4,5.84s.87-.1,1.42,1.07.29,6.25-4.14,10.1c-2.32,2-2.94,1.93-3.42,2,21.25-2.4,35.18-7.25,35.18-7.25A10.9,10.9,0,0,0,416.94,143Z" transform="translate(-327.3 -127.9)"/><path class="cls-12" d="M381.32,154.81c4.43-3.85,4.69-8.93,4.14-10.1s-1.42-1.07-1.42-1.07c-1.21.2-4.51,1.23-6.85,6.25-2.06,4.44-.61,7.09.71,7C378.38,156.74,379,156.83,381.32,154.81Z" transform="translate(-327.3 -127.9)"/><path class="cls-13" d="M380.82,154.23c3.5-3,3.7-7.06,3.27-8s-1.12-.85-1.12-.85c-1,.16-3.56,1-5.41,4.94-1.63,3.51-.48,5.61.56,5.49C378.49,155.76,379,155.82,380.82,154.23Z" transform="translate(-327.3 -127.9)"/><path class="cls-9" d="M384.09,146.25a1.34,1.34,0,0,0-.92-.84,9.41,9.41,0,0,0-3.26,4.06c-1.41,3-.75,5,.12,5.41.23-.18.49-.39.79-.65C384.32,151.18,384.52,147.17,384.09,146.25Z" transform="translate(-327.3 -127.9)"/><path class="cls-11" d="M389.52,151.32l.76-.22c.48-.12,1.16-.32,2-.52s1.79-.44,2.84-.68l1.6-.35,1.67-.33c1.12-.22,2.24-.44,3.29-.63.53-.09,1-.14,1.53-.22l1.37-.18,2.05-.25.78-.08-.77.16c-.49.1-1.18.25-2,.41l-2.86.53-3.28.67-3.28.63c-1,.22-2,.39-2.86.55l-2,.37Z" transform="translate(-327.3 -127.9)"/><path class="cls-11" d="M409.78,143.93l-1,.1-2.6.28c-1.08.12-2.33.28-3.67.45-.68.08-1.37.18-2.07.28s-1.41.21-2.13.33l-2.12.34c-.7.13-1.39.25-2.05.39l-1.9.4-1.7.39c-.52.15-1,.27-1.43.38s-.79.23-1.09.32l-.95.29.92-.36c.3-.11.65-.27,1.08-.4l1.41-.45,1.69-.47c.6-.16,1.24-.31,1.9-.46l2.05-.41,2.13-.38c.71-.09,1.43-.21,2.13-.3s1.4-.18,2.08-.25c1.35-.16,2.62-.24,3.69-.32C408.33,143.94,409.78,143.93,409.78,143.93Z" transform="translate(-327.3 -127.9)"/><path class="cls-11" d="M416,172.11c1.47-3.37-.78-5.11-.78-5.11-5.95-1.51-26.63-2.16-26.63-2.16s.76.12.92,1.26-1.3,5.45-5.92,7.72c-2.41,1.19-2.91,1-3.32.94,18.19,3,30.92,2.08,30.92,2.08A9.86,9.86,0,0,0,416,172.11Z" transform="translate(-327.3 -127.9)"/><path class="cls-7" d="M383.61,173.82c4.62-2.27,6.09-6.58,5.92-7.72s-.92-1.26-.92-1.26c-1-.11-4,0-7.2,3.77-2.8,3.34-2.25,6-1.12,6.15C380.7,174.79,381.2,175,383.61,173.82Z" transform="translate(-327.3 -127.9)"/><path class="cls-8" d="M383.34,173.2c3.66-1.79,4.81-5.2,4.68-6.1s-.73-1-.73-1c-.82-.09-3.18,0-5.69,3-2.21,2.64-1.78,4.72-.89,4.86C381,174,381.43,174.14,383.34,173.2Z" transform="translate(-327.3 -127.9)"/><path class="cls-9" d="M388,167.1a1.16,1.16,0,0,0-.56-.93,8.39,8.39,0,0,0-3.7,2.72c-1.9,2.27-1.85,4.12-1.22,4.68a8.59,8.59,0,0,0,.8-.37C387,171.41,388.15,168,388,167.1Z" transform="translate(-327.3 -127.9)"/><path class="cls-10" d="M391.27,172.75H392c.43,0,1,0,1.78,0s1.6,0,2.52.08c.46,0,.94,0,1.42.08l1.46.1c1,.08,2,.16,2.89.25.45,0,.9.11,1.32.17l1.17.16c.74.1,1.34.21,1.76.27l.67.12-.68,0c-.43,0-1-.07-1.77-.14l-2.51-.21-2.88-.2c-1-.08-2-.17-2.87-.23s-1.78-.15-2.51-.21l-1.78-.16Z" transform="translate(-327.3 -127.9)"/><path class="cls-10" d="M409.87,171.19,409,171l-2.23-.38-3.15-.48-1.78-.25c-.61-.09-1.23-.14-1.84-.22l-1.85-.21-1.79-.15-1.68-.1-1.5-.06-1.28,0c-.38,0-.71,0-1,0l-.86,0,.86-.09c.27,0,.6-.07,1-.08l1.28-.07h1.52l1.69.06,1.8.12,1.85.19c.62.08,1.24.15,1.85.24l1.78.28c1.16.18,2.22.41,3.14.6C408.66,170.85,409.87,171.19,409.87,171.19Z" transform="translate(-327.3 -127.9)"/><path class="cls-11" d="M466.63,178.37c1.46-3.37-.79-5.1-.79-5.1-5.94-1.51-26.62-2.16-26.62-2.16s.75.12.91,1.26-1.29,5.45-5.91,7.72c-2.42,1.19-2.91,1-3.33.94,18.19,3,30.92,2.07,30.92,2.07A9.81,9.81,0,0,0,466.63,178.37Z" transform="translate(-327.3 -127.9)"/><path class="cls-7" d="M434.22,180.09c4.62-2.27,6.08-6.59,5.91-7.72s-.91-1.26-.91-1.26c-1.05-.11-4,0-7.2,3.77-2.81,3.33-2.26,6-1.13,6.15C431.31,181.06,431.8,181.28,434.22,180.09Z" transform="translate(-327.3 -127.9)"/><path class="cls-8" d="M434,179.47c3.65-1.8,4.8-5.2,4.67-6.1s-.72-1-.72-1c-.83-.09-3.19,0-5.7,3-2.21,2.63-1.77,4.72-.88,4.86C431.64,180.24,432,180.41,434,179.47Z" transform="translate(-327.3 -127.9)"/><path class="cls-9" d="M438.62,173.37a1.18,1.18,0,0,0-.55-.94,8.45,8.45,0,0,0-3.7,2.72c-1.91,2.27-1.85,4.12-1.23,4.69l.81-.37C437.6,177.67,438.75,174.27,438.62,173.37Z" transform="translate(-327.3 -127.9)"/><path class="cls-10" d="M441.88,179h.67c.43,0,1.05,0,1.79,0s1.59,0,2.52.09c.46,0,.93,0,1.42.07l1.46.11c1,.08,2,.15,2.88.24.46,0,.9.12,1.32.17l1.18.17c.73.1,1.33.21,1.76.27l.66.12-.67-.05c-.43,0-1.05-.06-1.78-.13l-2.51-.22c-.91,0-1.89-.13-2.87-.2s-2-.16-2.88-.22l-2.51-.21-1.77-.16Z" transform="translate(-327.3 -127.9)"/><path class="cls-10" d="M460.47,177.45l-.84-.15-2.23-.37c-.92-.16-2-.31-3.15-.48l-1.78-.25c-.6-.09-1.22-.15-1.84-.22l-1.84-.21-1.79-.15-1.68-.11-1.51-.06h-1.27c-.38,0-.72,0-1,0l-.86,0,.86-.1c.27,0,.6-.07,1-.08l1.28-.06h1.51c.54,0,1.11,0,1.69.06l1.8.12,1.86.18,1.84.25,1.78.27c1.16.19,2.23.42,3.14.6C459.27,177.11,460.47,177.45,460.47,177.45Z" transform="translate(-327.3 -127.9)"/><path class="cls-11" d="M484.5,157.29c-.85-3.58-3.69-3.62-3.69-3.62-5.66,2.36-22.6,14.25-22.6,14.25s.67-.36,1.49.45,2.23,5.14-.1,9.73c-1.22,2.4-1.75,2.53-2.1,2.75,16.33-8.55,26-16.9,26-16.9A9.73,9.73,0,0,0,484.5,157.29Z" transform="translate(-327.3 -127.9)"/><path class="cls-7" d="M459.6,178.1c2.33-4.59.91-8.91.1-9.73s-1.49-.45-1.49-.45c-.91.54-3.23,2.41-3.5,7.33-.25,4.35,1.77,6.13,2.79,5.6C457.85,180.63,458.38,180.5,459.6,178.1Z" transform="translate(-327.3 -127.9)"/><path class="cls-8" d="M459,177.77c1.85-3.63.72-7.05.08-7.69s-1.18-.36-1.18-.36c-.71.43-2.55,1.9-2.77,5.8-.19,3.43,1.41,4.84,2.21,4.42C457.63,179.76,458.05,179.66,459,177.77Z" transform="translate(-327.3 -127.9)"/><path class="cls-9" d="M459.09,170.08a1.15,1.15,0,0,0-1-.41,8.49,8.49,0,0,0-1.33,4.39c-.16,3,1,4.41,1.84,4.49.12-.22.26-.47.42-.78C460.86,174.14,459.73,170.72,459.09,170.08Z" transform="translate(-327.3 -127.9)"/><path class="cls-10" d="M465.08,172.65l.54-.41c.35-.25.84-.63,1.44-1.05l2.07-1.44c.38-.26.77-.54,1.18-.79l1.24-.8c.83-.52,1.66-1,2.45-1.53.39-.24.79-.45,1.16-.65l1-.58,1.57-.83.6-.31-.57.37c-.36.23-.87.57-1.5,1l-2.13,1.33-2.42,1.56c-.83.53-1.67,1-2.44,1.54s-1.51.95-2.13,1.35l-1.52.93Z" transform="translate(-327.3 -127.9)"/><path class="cls-10" d="M479,160.24l-.77.39-2,1c-.83.43-1.79,1-2.81,1.51-.51.27-1,.57-1.57.87s-1.07.62-1.61.92l-1.6.95c-.52.32-1,.63-1.52,1l-1.41.92-1.24.85c-.37.29-.72.54-1,.76s-.55.43-.77.61l-.68.53.63-.59c.21-.18.44-.42.74-.66l1-.82,1.21-.91c.43-.31.9-.64,1.38-1s1-.65,1.52-1l1.59-1c.55-.3,1.09-.62,1.63-.91l1.59-.85c1-.55,2-1,2.87-1.4C477.85,160.69,479,160.24,479,160.24Z" transform="translate(-327.3 -127.9)"/><path class="cls-11" d="M426.35,193.71c-1.46-3.37.79-5.1.79-5.1,5.94-1.51,26.62-2.16,26.62-2.16s-.75.12-.91,1.26,1.29,5.45,5.92,7.72c2.41,1.19,2.91,1,3.32.93-18.19,3-30.93,2.08-30.93,2.08A9.81,9.81,0,0,1,426.35,193.71Z" transform="translate(-327.3 -127.9)"/><path class="cls-7" d="M458.77,195.43c-4.63-2.27-6.09-6.58-5.92-7.72s.91-1.26.91-1.26c1.05-.11,4,0,7.21,3.76,2.8,3.34,2.25,6,1.12,6.15C461.68,196.4,461.18,196.62,458.77,195.43Z" transform="translate(-327.3 -127.9)"/><path class="cls-8" d="M459,194.81c-3.66-1.79-4.81-5.2-4.68-6.1s.72-1,.72-1c.83-.1,3.19,0,5.7,3,2.21,2.63,1.77,4.72.88,4.86C461.34,195.58,460.94,195.75,459,194.81Z" transform="translate(-327.3 -127.9)"/><path class="cls-9" d="M454.36,188.71a1.12,1.12,0,0,1,.56-.93,8.44,8.44,0,0,1,3.7,2.71c1.9,2.27,1.84,4.13,1.22,4.69-.23-.1-.5-.22-.8-.37C455.38,193,454.23,189.61,454.36,188.71Z" transform="translate(-327.3 -127.9)"/><path class="cls-10" d="M451.11,194.36h-.68c-.43,0-1.05,0-1.79,0l-2.52.09c-.45,0-.93,0-1.41.07l-1.47.11c-1,.08-2,.15-2.88.24-.46,0-.9.12-1.32.17l-1.17.17c-.74.1-1.34.21-1.77.27l-.66.11.67,0c.43,0,1.05-.06,1.78-.13l2.51-.22c.91-.05,1.89-.13,2.87-.2s2-.17,2.88-.23,1.78-.14,2.51-.2l1.77-.16Z" transform="translate(-327.3 -127.9)"/><path class="cls-10" d="M432.51,192.79l.85-.15,2.22-.37c.92-.16,2-.32,3.15-.48l1.78-.25c.61-.09,1.22-.15,1.84-.22l1.85-.21L446,191l1.67-.11,1.51,0,1.28,0c.37,0,.7,0,1,0l.85,0-.85-.1c-.27,0-.61-.07-1-.08l-1.29-.06h-1.51c-.54,0-1.1,0-1.69.06l-1.8.12-1.86.18-1.84.25-1.79.27c-1.15.19-2.22.42-3.13.6C433.71,192.45,432.51,192.79,432.51,192.79Z" transform="translate(-327.3 -127.9)"/><path class="cls-17" d="M412.54,146.38c-.4-3.65-3.22-4-3.22-4-5.91,1.65-24.17,11.37-24.17,11.37s.71-.27,1.42.63,1.59,5.38-1.3,9.65c-1.5,2.23-2,2.29-2.42,2.46,17.26-6.47,27.87-13.57,27.87-13.57A9.75,9.75,0,0,0,412.54,146.38Z" transform="translate(-327.3 -127.9)"/><path class="cls-18" d="M385.27,164c2.89-4.27,2-8.74,1.3-9.65s-1.42-.63-1.42-.63c-1,.42-3.5,2-4.38,6.85-.77,4.28,1,6.29,2.08,5.89C383.23,166.28,383.77,166.22,385.27,164Z" transform="translate(-327.3 -127.9)"/><path class="cls-19" d="M384.74,163.58c2.27-3.37,1.57-6.9,1-7.62s-1.13-.5-1.13-.5c-.76.34-2.76,1.57-3.46,5.41-.61,3.39.8,5,1.65,4.66C383.12,165.39,383.54,165.35,384.74,163.58Z" transform="translate(-327.3 -127.9)"/><path class="cls-9" d="M385.76,156a1.16,1.16,0,0,0-.95-.53,8.4,8.4,0,0,0-1.86,4.2c-.53,2.92.45,4.5,1.27,4.68l.52-.73C387,160.21,386.31,156.68,385.76,156Z" transform="translate(-327.3 -127.9)"/><path class="cls-11" d="M391.39,159.25l.58-.34c.38-.21.91-.52,1.56-.87s1.41-.75,2.24-1.17c.4-.21.83-.44,1.27-.64l1.32-.64c.89-.42,1.77-.84,2.61-1.22.42-.19.84-.35,1.23-.51l1.11-.44,1.66-.64.64-.23-.61.3c-.39.19-.94.46-1.61.77l-2.28,1c-.82.41-1.71.84-2.6,1.26l-2.61,1.23c-.82.4-1.61.76-2.27,1.07L392,159Z" transform="translate(-327.3 -127.9)"/><path class="cls-11" d="M406.74,148.64l-.8.3-2.12.78c-.87.32-1.89.72-3,1.14-.55.21-1.11.44-1.67.67s-1.14.49-1.71.73l-1.7.74c-.56.25-1.1.5-1.63.76l-1.51.74-1.34.69c-.4.24-.78.44-1.11.63s-.61.36-.84.5l-.74.45.7-.51c.23-.16.49-.37.82-.56s.67-.45,1.08-.69l1.31-.76c.47-.26,1-.52,1.49-.79s1.07-.51,1.63-.78l1.7-.77c.57-.24,1.15-.48,1.72-.7s1.14-.45,1.69-.65c1.09-.41,2.13-.75,3-1C405.53,149,406.74,148.64,406.74,148.64Z" transform="translate(-327.3 -127.9)"/><path class="cls-15" d="M400.38,165.16a3.87,3.87,0,0,0-2.73-4.78c-3.9-1.41-5.08.9-5.81,1.91s-4.65,13.16-6.07,17.34c-.17.49-.33,1-.47,1.48,0,0,2.62-4.55,6.14-2.91s3.15,5.43,2.22,7.82c.17-.36.3-.68.38-.88C395.35,182,400.19,166.15,400.38,165.16Z" transform="translate(-327.3 -127.9)"/><path class="cls-12" d="M393.66,186c.93-2.39,1.3-6.17-2.22-7.82s-6.13,2.89-6.14,2.91c-1.1,3.73-1.38,7.42,2.36,8.63,3.36,1.09,5.19-2,6-3.72Z" transform="translate(-327.3 -127.9)"/><path class="cls-13" d="M392.53,186.08c.72-2,1-5.23-1.71-6.59S386,182,386,182c-.88,3.16-1.11,6.28,1.8,7.27,2.62.89,4.06-1.69,4.71-3.19Z" transform="translate(-327.3 -127.9)"/><path class="cls-9" d="M390.82,179.49c-2-1-3.66.83-4.4,1.87-.28,2.23.1,4.15,2.09,4.87,2.4.87,3.75-1.73,4.36-3.23l.12-.37A3.85,3.85,0,0,0,390.82,179.49Z" transform="translate(-327.3 -127.9)"/><path class="cls-11" d="M394.07,162.38l-.14.59c-.09.38-.23.91-.39,1.55s-.36,1.39-.56,2.18-.44,1.65-.67,2.5-.45,1.7-.67,2.5-.4,1.54-.56,2.18c-.09.31-.15.61-.22.87s-.11.49-.16.67c-.09.38-.15.59-.15.59s0-.21.08-.6c0-.19.06-.42.1-.69s.07-.57.14-.89.13-.67.21-1,.14-.77.24-1.17c.19-.81.4-1.66.63-2.52s.46-1.69.71-2.49.48-1.52.68-2.15.4-1.15.52-1.51Z" transform="translate(-327.3 -127.9)"/><path class="cls-11" d="M395.76,164.84l-.08.4-.24,1.07c-.11.44-.23.95-.38,1.49l-.44,1.71c-.16.58-.32,1.16-.48,1.7s-.32,1-.45,1.47-.27.79-.35,1-.15.39-.15.39l.08-.41c.05-.26.11-.63.21-1.07s.21-1,.34-1.51l.44-1.71c.16-.58.31-1.16.48-1.7s.35-1,.49-1.46.29-.78.38-1S395.76,164.84,395.76,164.84Z" transform="translate(-327.3 -127.9)"/><path class="cls-11" d="M396.59,168.82s-.06.54-.19,1.35c-.07.41-.15.88-.25,1.39s-.23,1-.35,1.57-.27,1.06-.41,1.56c-.06.24-.15.48-.22.7s-.15.44-.21.63c-.14.39-.27.71-.35.94s-.14.35-.14.35,0-.14.07-.38.11-.57.21-1,.21-.86.32-1.36.24-1,.36-1.56c.28-1.06.54-2.12.76-2.91.12-.4.21-.72.28-1S396.59,168.82,396.59,168.82Z" transform="translate(-327.3 -127.9)"/><path class="cls-15" d="M463.89,159.32a4.11,4.11,0,0,0-2-5.48c-3.81-2.17-5.45,0-6.4.94s-7.23,12.87-9.47,17c-.27.48-.52,1-.77,1.46,0,0,3.57-4.27,6.93-1.92s2.29,6.23.9,8.55c.24-.35.43-.65.56-.85C455.59,175.9,463.51,160.32,463.89,159.32Z" transform="translate(-327.3 -127.9)"/><path class="cls-20" d="M462.86,158.52c-.3.81-5.41,10.9-8.44,16.5a8.47,8.47,0,0,1-1.32,4.81c.24-.35.43-.65.56-.85,1.93-3.08,9.85-18.66,10.23-19.66a4.1,4.1,0,0,0-1.78-5.36A4.1,4.1,0,0,1,462.86,158.52Z" transform="translate(-327.3 -127.9)"/><path class="cls-12" d="M453.1,179.83c1.39-2.32,2.47-6.19-.9-8.55s-6.91,1.9-6.93,1.92c-1.81,3.68-2.77,7.48.9,9.42,3.31,1.74,5.77-1.09,6.93-2.79Z" transform="translate(-327.3 -127.9)"/><path class="cls-13" d="M451.9,179.69c1.14-2,2-5.26-.57-7.18s-5.45,1.73-5.47,1.74c-1.48,3.14-2.29,6.35.56,7.91,2.57,1.4,4.54-1,5.48-2.47Z" transform="translate(-327.3 -127.9)"/><path class="cls-9" d="M451.33,172.51c-1.92-1.41-4,.2-4.92,1.15-.71,2.28-.67,4.35,1.28,5.46,2.35,1.34,4.23-1.12,5.13-2.58.07-.11.13-.24.19-.36A4.05,4.05,0,0,0,451.33,172.51Z" transform="translate(-327.3 -127.9)"/><path class="cls-11" d="M457.82,155.28s-.09.22-.26.59-.4.91-.68,1.55-.63,1.37-1,2.17-.76,1.63-1.14,2.48-.79,1.68-1.15,2.47-.7,1.54-1,2.17c-.15.32-.27.61-.38.88l-.29.67-.27.58.2-.61c.06-.19.13-.43.22-.7s.18-.58.31-.9.27-.68.41-1,.29-.78.47-1.18c.35-.8.72-1.66,1.1-2.5s.8-1.69,1.2-2.47.77-1.5,1.1-2.12.62-1.11.82-1.47S457.82,155.28,457.82,155.28Z" transform="translate(-327.3 -127.9)"/><path class="cls-11" d="M459.13,158.14l-.16.42c-.11.25-.25.63-.44,1.06s-.42.95-.67,1.49-.51,1.12-.77,1.7-.54,1.15-.8,1.68-.53,1-.75,1.45-.42.77-.55,1-.22.38-.22.38l.15-.42c.11-.25.24-.63.42-1.07s.39-1,.63-1.51.5-1.12.77-1.7.54-1.15.81-1.68.55-1,.77-1.44.44-.76.58-1Z" transform="translate(-327.3 -127.9)"/><path class="cls-11" d="M459.27,162.44s-.15.56-.44,1.38c-.14.41-.32.89-.51,1.39s-.43,1-.66,1.58-.47,1.06-.7,1.55l-.36.7-.34.61c-.21.38-.4.69-.52.91s-.22.34-.22.34l.14-.37c.1-.24.22-.58.39-1s.38-.86.59-1.36.43-1,.66-1.56c.48-1,.94-2.11,1.32-2.89.19-.39.35-.72.47-1Z" transform="translate(-327.3 -127.9)"/><path class="cls-15" d="M436,165.62a3.88,3.88,0,0,0-.64-5.47c-3-2.82-5-1.16-6.1-.51s-9.42,10.29-12.36,13.58c-.35.39-.69.78-1,1.18,0,0,4.2-3.16,6.79-.28s.78,6.23-1,8.07c.3-.27.54-.51.7-.67C424.84,179.11,435.48,166.46,436,165.62Z" transform="translate(-327.3 -127.9)"/><path class="cls-12" d="M421.7,182.19c1.79-1.84,3.61-5.17,1-8.07s-6.76.27-6.79.28c-2.46,3-4.16,6.29-1.19,8.87,2.66,2.31,5.54.23,7-1.08Z" transform="translate(-327.3 -127.9)"/><path class="cls-13" d="M420.63,181.8c1.47-1.58,3-4.4,1-6.73s-5.4.41-5.41.43c-2,2.56-3.48,5.35-1.19,7.4,2.07,1.84,4.4,0,5.58-1.1Z" transform="translate(-327.3 -127.9)"/><path class="cls-9" d="M421.65,175.07c-1.47-1.71-3.7-.67-4.78,0-1.14,1.94-1.55,3.86,0,5.3,1.87,1.74,4.13-.12,5.27-1.27.09-.09.17-.19.26-.29A3.84,3.84,0,0,0,421.65,175.07Z" transform="translate(-327.3 -127.9)"/><path class="cls-11" d="M431.33,160.6s-.14.17-.37.48l-1,1.28-1.37,1.78-1.59,2c-.55.69-1.08,1.39-1.59,2L424.07,170c-.2.26-.37.51-.54.72s-.3.4-.41.56c-.23.31-.37.48-.37.48l.31-.52.36-.6c.14-.22.29-.49.48-.76l.6-.88c.21-.32.43-.65.69-1,.48-.67,1-1.38,1.55-2.07s1.09-1.38,1.63-2,1-1.22,1.47-1.72.81-.9,1.07-1.18S431.33,160.6,431.33,160.6Z" transform="translate(-327.3 -127.9)"/><path class="cls-11" d="M431.91,163.51l-.23.35c-.16.21-.36.52-.64.88s-.58.79-.93,1.23l-1.07,1.4c-.37.47-.74.94-1.11,1.38s-.7.83-1,1.17-.55.62-.73.82a3.55,3.55,0,0,1-.28.3l.22-.34c.15-.22.36-.54.62-.9l.9-1.25c.34-.46.71-.94,1.08-1.41s.74-.95,1.11-1.38.72-.81,1-1.15.57-.61.74-.8Z" transform="translate(-327.3 -127.9)"/><path class="cls-11" d="M431.12,167.5s-.26.48-.7,1.17c-.22.35-.48.75-.77,1.18s-.61.86-.94,1.31-.66.87-1,1.27l-.48.57-.45.49c-.27.31-.52.56-.68.73l-.26.27s.07-.12.21-.32.32-.48.56-.81l.84-1.13c.29-.42.61-.86.94-1.29.66-.87,1.32-1.75,1.84-2.39.26-.31.47-.58.63-.76Z" transform="translate(-327.3 -127.9)"/><path class="cls-21" d="M401.31,181.69c3.58,2.45,2.28,6.75.7,9.36h0c.27-.4.48-.74.63-1,2.2-3.46,11.27-20.88,11.71-22,.61-1.54,1.15-4.23-2-5.94-4.05-2.23-5.9.24-7,1.28s-8.24,14.41-10.8,19c-.3.54-.6,1.09-.88,1.64C393.78,184.05,397.75,179.24,401.31,181.69Z" transform="translate(-327.3 -127.9)"/><path class="cls-7" d="M402,191.05c1.58-2.61,2.88-6.91-.7-9.36s-7.53,2.36-7.56,2.38c-2.08,4.11-3.25,8.32.67,10.3,3.52,1.79,6.27-1.42,7.59-3.32Z" transform="translate(-327.3 -127.9)"/><path class="cls-8" d="M400.72,190.93c1.28-2.22,2.37-5.85-.39-7.86s-6,2.11-6,2.14c-1.71,3.49-2.7,7,.34,8.65,2.73,1.44,4.95-1.3,6-2.93Z" transform="translate(-327.3 -127.9)"/><path class="cls-6" d="M396,191.36c2.31,1.22,4.18-1.1,5.08-2.47a8.61,8.61,0,0,0,1-2.38,4.08,4.08,0,0,0-1.72-3.44c-1.37-1-2.84-.48-4,.29a8.56,8.56,0,0,0-.63.7C394.27,187,393.44,190,396,191.36Z" transform="translate(-327.3 -127.9)"/><path class="cls-11" d="M408.21,164l-.3.66c-.2.41-.48,1-.83,1.72s-.76,1.54-1.22,2.42-.94,1.81-1.42,2.74-1,1.86-1.48,2.72-.94,1.67-1.33,2.36-.73,1.25-1,1.65l-.38.62.31-.65c.2-.42.47-1,.83-1.73s.75-1.54,1.21-2.41.94-1.82,1.43-2.75,1-1.86,1.48-2.72.94-1.67,1.33-2.36.73-1.25,1-1.65S408.21,164,408.21,164Z" transform="translate(-327.3 -127.9)"/><path class="cls-11" d="M408.15,168s-.06.17-.18.45-.29.71-.52,1.19-.48,1.06-.76,1.66-.59,1.26-.9,1.9-.62,1.29-.92,1.88-.6,1.15-.85,1.62-.48.86-.63,1.14l-.25.42.18-.46c.12-.29.28-.7.49-1.2s.45-1.07.73-1.68.59-1.25.89-1.9.62-1.29.93-1.88.63-1.13.89-1.6.49-.85.65-1.12Z" transform="translate(-327.3 -127.9)"/><path class="cls-11" d="M408.69,172.83l-.14.37-.38,1c-.32.8-.79,1.84-1.25,2.88-.24.51-.48,1-.72,1.51s-.43.94-.62,1.32-.35.7-.47.93-.18.34-.18.34l.11-.37c.08-.24.18-.58.33-1s.31-.87.5-1.37.44-1,.68-1.54.47-1,.72-1.52.48-.91.69-1.29C408.38,173.31,408.69,172.83,408.69,172.83Z" transform="translate(-327.3 -127.9)"/><path class="cls-17" d="M449.1,182.26c.74-4-2.27-5.34-2.27-5.34-7.12-.11-30.63,4.53-30.63,4.53s.88-.07,1.38,1.12,0,6.26-4.58,9.92c-2.4,1.91-3,1.8-3.49,1.87,21.32-1.48,35.45-5.73,35.45-5.73A10.85,10.85,0,0,0,449.1,182.26Z" transform="translate(-327.3 -127.9)"/><path class="cls-18" d="M413,192.49c4.6-3.66,5.07-8.72,4.58-9.92s-1.38-1.12-1.38-1.12c-1.21.14-4.55,1-7.1,5.94-2.26,4.35-.92,7.07.41,7C410,194.29,410.6,194.4,413,192.49Z" transform="translate(-327.3 -127.9)"/><path class="cls-19" d="M412.53,191.89c3.63-2.9,4-6.9,3.61-7.84s-1.08-.9-1.08-.9c-1,.12-3.6.82-5.62,4.71-1.78,3.43-.72,5.58.32,5.51C410.14,193.31,410.63,193.4,412.53,191.89Z" transform="translate(-327.3 -127.9)"/><path class="cls-9" d="M416.14,184.05a1.33,1.33,0,0,0-.88-.87,9.53,9.53,0,0,0-3.44,3.91c-1.53,3-1,4.95-.1,5.41.24-.17.5-.37.81-.61C416.16,189,416.54,185,416.14,184.05Z" transform="translate(-327.3 -127.9)"/><path class="cls-11" d="M421.35,189.35l.77-.18c.48-.1,1.18-.27,2-.43s1.82-.37,2.87-.56c.53-.1,1.07-.2,1.63-.28l1.67-.27,3.32-.48c.53-.07,1.05-.1,1.53-.15l1.38-.12,2.06-.17.78,0-.77.13-2,.31-2.89.41c-1.05.18-2.18.35-3.3.53s-2.25.32-3.31.49-2,.3-2.88.43l-2.05.28Z" transform="translate(-327.3 -127.9)"/><path class="cls-11" d="M441.9,182.85l-1,.05-2.61.17c-1.08.07-2.34.18-3.68.29-.68,0-1.37.12-2.08.19s-1.42.16-2.14.23l-2.14.26-2.06.29-1.92.32-1.71.32c-.53.13-1,.23-1.44.32s-.8.2-1.11.27l-1,.25.95-.33c.3-.09.66-.23,1.09-.34s.9-.26,1.43-.39l1.7-.4c.61-.13,1.26-.25,1.92-.37s1.37-.22,2.07-.33l2.14-.28c.72-.07,1.44-.16,2.15-.21s1.41-.12,2.09-.16c1.35-.1,2.62-.13,3.7-.16C440.46,182.79,441.9,182.85,441.9,182.85Z" transform="translate(-327.3 -127.9)"/><path class="cls-12" d="M473.43,183.45c-4.59-3.59-2.59-4.78-2.57-4.79,2.13-.81,4.59-.18,6.92,1.16,2.68,1.54,3.21,3.43,2.83,4.75C480,185.73,477.65,186.75,473.43,183.45Z" transform="translate(-327.3 -127.9)"/><path class="cls-13" d="M474.08,183c-3.83-2.61-2.54-3.69-2.53-3.7,1.45-.79,3.33-.43,5.22.5,2.16,1.08,2.82,2.57,2.72,3.66C479.19,184.48,477.62,185.45,474.08,183Z" transform="translate(-327.3 -127.9)"/><path class="cls-9" d="M476.74,181.67a4.91,4.91,0,0,1,2.47,2.31c-.62.73-2.2,1.05-5.13-.94a9.45,9.45,0,0,1-2.29-2C473.2,180.42,475,180.79,476.74,181.67Z" transform="translate(-327.3 -127.9)"/><path class="cls-15" d="M479.79,185.82c-1.3,1-19.28,13.1-21.75,14.49-3.86,2.18-10.51-.2-9.36-4.09.51-1.72,17.66-14.9,21.27-17.11a4.53,4.53,0,0,1,.91-.45s-2,1.2,2.57,4.79c4.22,3.3,6.56,2.28,7.18,1.12A2.38,2.38,0,0,1,479.79,185.82Z" transform="translate(-327.3 -127.9)"/><path class="cls-11" d="M455.64,193.14l.6-.35,1.56-1,2.19-1.38c.8-.51,1.64-1.07,2.48-1.62s1.68-1.12,2.46-1.66,1.5-1,2.12-1.48,1.13-.81,1.49-1.06l.55-.42-.59.36c-.38.23-.92.55-1.56,1s-1.4.87-2.19,1.38-1.64,1.07-2.48,1.63l-2.46,1.65c-.78.53-1.5,1-2.12,1.48s-1.13.81-1.49,1.07Z" transform="translate(-327.3 -127.9)"/><path class="cls-11" d="M462,193.2l.5-.3c.31-.2.77-.48,1.3-.83l1.82-1.19,2.06-1.41,2-1.45c.65-.46,1.24-.91,1.75-1.29s.93-.71,1.22-.94l.46-.36-.5.31c-.31.2-.77.47-1.3.82s-1.16.75-1.82,1.2-1.36.92-2.05,1.41-1.39,1-2,1.44l-1.75,1.3c-.51.37-.93.7-1.22.93Z" transform="translate(-327.3 -127.9)"/><path class="cls-11" d="M459.26,198.43l.5-.3c.31-.2.77-.48,1.3-.83s1.16-.75,1.82-1.2,1.35-.92,2.05-1.4l2-1.45c.64-.46,1.23-.91,1.75-1.29s.92-.71,1.22-.94l.46-.36-.5.3c-.31.2-.77.48-1.3.83s-1.16.75-1.82,1.2-1.36.92-2,1.4l-2,1.45-1.75,1.29c-.51.38-.93.71-1.22.94Z" transform="translate(-327.3 -127.9)"/><path class="cls-17" d="M453.13,173.84c.07-3.81,3.05-4.45,3.05-4.45,6.49,1.21,27,9.72,27,9.72s-.78-.23-1.45.77-1.17,5.69,2.35,9.86c1.84,2.18,2.42,2.19,2.84,2.34-19.14-5.23-31.22-11.68-31.22-11.68A10.12,10.12,0,0,1,453.13,173.84Z" transform="translate(-327.3 -127.9)"/><path class="cls-18" d="M484.12,189.74c-3.52-4.17-3-8.86-2.35-9.86s1.45-.77,1.45-.77c1.08.35,4,1.76,5.38,6.7,1.26,4.37-.45,6.59-1.64,6.27C486.54,191.93,486,191.92,484.12,189.74Z" transform="translate(-327.3 -127.9)"/><path class="cls-19" d="M484.66,189.28c-2.78-3.3-2.39-7-1.86-7.8s1.15-.61,1.15-.61c.85.28,3.13,1.39,4.25,5.3,1,3.45-.35,5.21-1.29,5C486.57,191,486.11,191,484.66,189.28Z" transform="translate(-327.3 -127.9)"/><path class="cls-9" d="M482.8,181.48a1.23,1.23,0,0,1,1-.63,8.82,8.82,0,0,1,2.42,4.19c.85,3,0,4.68-.89,4.94-.19-.2-.4-.43-.63-.7C481.88,186,482.27,182.27,482.8,181.48Z" transform="translate(-327.3 -127.9)"/><path class="cls-11" d="M477.09,185.36l-.66-.31c-.42-.18-1-.46-1.76-.76l-2.5-1c-.47-.18-.94-.38-1.43-.55l-1.48-.55c-1-.36-2-.72-2.93-1-.46-.17-.93-.29-1.37-.42l-1.23-.37c-.76-.22-1.4-.39-1.85-.51s-.7-.19-.7-.19l.69.26,1.8.66,2.55.89c.92.36,1.91.72,2.91,1.08s2,.71,2.91,1.06l2.55.91,1.81.63Z" transform="translate(-327.3 -127.9)"/><path class="cls-11" d="M459.58,175.69l.89.23,2.35.63c1,.26,2.09.59,3.3.94.6.16,1.22.36,1.85.54s1.27.41,1.9.61l1.91.62c.61.22,1.23.43,1.81.65l1.7.64,1.5.6c.45.21.88.39,1.25.55s.69.33,1,.45l.83.4-.8-.46c-.25-.14-.56-.34-.92-.52l-1.23-.62-1.49-.67c-.52-.23-1.09-.46-1.68-.69l-1.82-.67-1.9-.65c-.64-.19-1.28-.4-1.92-.58s-1.26-.37-1.86-.53c-1.22-.34-2.36-.59-3.34-.82C460.9,175.9,459.58,175.69,459.58,175.69Z" transform="translate(-327.3 -127.9)"/><path class="cls-17" d="M485.38,165c-1.38,3.55,1.13,5.27,1.13,5.27,6.47,1.35,28.71,1.28,28.71,1.28s-.82-.09-1.06-1.27,1.09-5.7,5.92-8.22c2.53-1.32,3.07-1.11,3.52-1.1-19.7-2.42-33.32-1-33.32-1A10.08,10.08,0,0,0,485.38,165Z" transform="translate(-327.3 -127.9)"/><path class="cls-18" d="M520.08,162c-4.83,2.52-6.16,7-5.92,8.22s1.06,1.27,1.06,1.27c1.13.08,4.32-.13,7.52-4.16,2.82-3.56,2.08-6.28.86-6.43C523.15,160.91,522.61,160.7,520.08,162Z" transform="translate(-327.3 -127.9)"/><path class="cls-19" d="M520.4,162.64c-3.81,2-4.86,5.58-4.67,6.51s.83,1,.83,1c.9.06,3.42-.11,6-3.3,2.23-2.81,1.64-5,.68-5.07C522.83,161.77,522.4,161.61,520.4,162.64Z" transform="translate(-327.3 -127.9)"/><path class="cls-9" d="M515.73,169.15a1.25,1.25,0,0,0,.65.95,8.76,8.76,0,0,0,3.82-3c1.92-2.42,1.75-4.34,1.06-4.91l-.86.41C516.59,164.64,515.54,168.22,515.73,169.15Z" transform="translate(-327.3 -127.9)"/><path class="cls-11" d="M511.92,163.4l-.73,0c-.46,0-1.12,0-1.92,0h-2.7l-1.53,0-1.58-.06c-1.06,0-2.12-.09-3.11-.15-.49,0-1-.09-1.42-.13l-1.28-.13c-.79-.08-1.44-.17-1.9-.21l-.72-.1.73,0c.46,0,1.12,0,1.91.08l2.7.13c1,0,2.05.06,3.1.1l3.1.14c1,0,1.92.08,2.71.12l1.91.1Z" transform="translate(-327.3 -127.9)"/><path class="cls-11" d="M492,165.7l.92.12,2.41.31,3.41.38c.62.08,1.27.14,1.92.2l2,.16,2,.15,1.93.09,1.81,0H510l1.37,0c.41,0,.76,0,1.05,0l.92-.06-.91.13c-.29,0-.64.1-1.05.12l-1.38.11-1.62.06c-.58,0-1.19,0-1.82,0l-1.94-.07-2-.12c-.67-.06-1.34-.11-2-.19l-1.93-.22c-1.25-.15-2.41-.35-3.4-.51C493.35,166,492,165.7,492,165.7Z" transform="translate(-327.3 -127.9)"/><path class="cls-11" d="M477.48,173c-1.7,3.44.83,5.34.83,5.34,6.73,1.82,30.22,3.37,30.22,3.37a1.43,1.43,0,0,1-1-1.34c-.18-1.19,1.53-5.61,6.81-7.78,2.76-1.13,3.32-.88,3.79-.83-20.63-3.85-35.1-3.47-35.1-3.47A10.47,10.47,0,0,0,477.48,173Z" transform="translate(-327.3 -127.9)"/><path class="cls-18" d="M514.32,172.58c-5.28,2.17-7,6.59-6.81,7.78a1.43,1.43,0,0,0,1,1.34c1.19.16,4.58.19,8.23-3.6,3.22-3.35,2.63-6.11,1.35-6.35C517.64,171.7,517.08,171.45,514.32,172.58Z" transform="translate(-327.3 -127.9)"/><path class="cls-19" d="M514.62,173.24c-4.17,1.71-5.53,5.2-5.39,6.14s.81,1.06.81,1.06c.94.14,3.62.15,6.51-2.84,2.55-2.65,2.08-4.83,1.07-5C517.24,172.54,516.8,172.34,514.62,173.24Z" transform="translate(-327.3 -127.9)"/><path class="cls-9" d="M509.23,179.38a1.23,1.23,0,0,0,.62,1,9.1,9.1,0,0,0,4.24-2.66c2.2-2.28,2.15-4.21,1.45-4.82-.27.09-.57.2-.92.35C510.45,175,509.09,178.44,509.23,179.38Z" transform="translate(-327.3 -127.9)"/><path class="cls-10" d="M505.61,173.37l-.77,0c-.49,0-1.19,0-2-.1s-1.81-.11-2.86-.2c-.52,0-1.06-.07-1.61-.13l-1.66-.17-3.27-.38c-.52-.06-1-.16-1.5-.23l-1.34-.23-2-.35-.76-.15.77.07c.49.05,1.19.11,2,.22l2.84.33c1,.09,2.16.21,3.27.33l3.26.36c1,.1,2,.22,2.85.32l2,.24Z" transform="translate(-327.3 -127.9)"/><path class="cls-10" d="M484.46,174.21l1,.19,2.52.48c1.05.2,2.27.41,3.58.64l2,.33c.69.12,1.39.21,2.09.31l2.1.29c.69.08,1.37.17,2,.23l1.9.19,1.72.12,1.44.07c.43,0,.81,0,1.12,0h1l-1,.06c-.31,0-.69.05-1.12.05h-1.45l-1.73-.06c-.61,0-1.25-.08-1.91-.13l-2.05-.21-2.1-.26-2.1-.34c-.68-.12-1.36-.23-2-.37-1.31-.23-2.52-.51-3.56-.75C485.82,174.61,484.46,174.21,484.46,174.21Z" transform="translate(-327.3 -127.9)"/><path class="cls-12" d="M501.07,166.64c-.75,5.78,1.52,5.22,1.53,5.22,2.09-.92,3.4-3.1,4.12-5.7.82-3-.13-4.69-1.32-5.36C504.14,160.41,501.75,161.32,501.07,166.64Z" transform="translate(-327.3 -127.9)"/><path class="cls-13" d="M501.82,166.47c-.9,4.55.79,4.41.8,4.41,1.58-.45,2.67-2,3.36-4,.78-2.28.2-3.81-.63-4.51C504.45,161.86,502.65,162.27,501.82,166.47Z" transform="translate(-327.3 -127.9)"/><path class="cls-9" d="M504.68,165.58a5,5,0,0,0,.13-3.39c-.95-.07-2.3.81-3,4.28a9.19,9.19,0,0,0-.21,3C503,169,504,167.45,504.68,165.58Z" transform="translate(-327.3 -127.9)"/><path class="cls-15" d="M503.93,160.48c-1.6.22-22.92,4.22-25.65,5-4.28,1.16-7.35,7.52-3.8,9.48,1.57.87,23-1.79,27.16-2.75a4.9,4.9,0,0,0,1-.31s-2.28.56-1.53-5.22c.68-5.32,3.07-6.23,4.33-5.84A2.41,2.41,0,0,0,503.93,160.48Z" transform="translate(-327.3 -127.9)"/><path class="cls-11" d="M481.6,172.23l.67-.17c.44-.1,1.05-.26,1.79-.42s1.6-.36,2.52-.55l2.91-.59c1-.19,2-.38,2.91-.54l2.55-.44c.75-.13,1.37-.21,1.81-.28l.69-.1-.68.17c-.43.09-1,.25-1.78.41s-1.6.36-2.53.55-1.91.39-2.9.59l-2.92.55-2.55.43c-.74.13-1.37.22-1.8.29Z" transform="translate(-327.3 -127.9)"/><path class="cls-11" d="M486.07,167.73l.57-.13,1.5-.33,2.14-.42,2.45-.44,2.47-.4,2.15-.31c.63-.09,1.16-.14,1.53-.19l.58-.07-.57.14c-.37.07-.88.2-1.51.32s-1.35.28-2.13.42-1.62.3-2.46.44-1.67.29-2.46.4-1.52.22-2.15.32-1.16.14-1.53.19Z" transform="translate(-327.3 -127.9)"/><path class="cls-11" d="M480.46,165.92l.57-.13c.36-.08.88-.21,1.51-.33s1.35-.28,2.13-.42l2.46-.45,2.46-.39c.78-.13,1.52-.23,2.15-.31s1.16-.15,1.53-.2l.58-.06-.57.13-1.5.33c-.63.12-1.36.28-2.14.42s-1.62.3-2.46.44l-2.46.4-2.15.31-1.53.2Z" transform="translate(-327.3 -127.9)"/><path class="cls-20" d="M523.6,160.92c-5-.62-9.69-1-13.81-1.2a9.62,9.62,0,0,0,3.49-5c.05-.2.08-.38.11-.57l0-.16c0-.14,0-.27,0-.4s0-.09,0-.14V153a1.79,1.79,0,0,1,0-.23c0-.06,0-.12,0-.18a3.9,3.9,0,0,0-1.74-2.83c-2.85-.25-8.84.17-14.42.7,1.26-1.31,2.14-2.25,2.29-2.46.81-1.08,1.73-3.18-.87-5.87-.1-.11-.19-.21-.29-.3-3.21-3.13-5.22-1.81-6.32-1.34s-9.88,9.14-13,12.08c-.36.34-.72.7-1.06,1.06a14.48,14.48,0,0,0-1.77,2.22,8.38,8.38,0,0,0-4.33,2.87c-1.36.87-2.75,1.77-4.1,2.66a6.11,6.11,0,0,0-2.89-.46l-1.87.07c.44-.89.72-1.49.79-1.66l.09-.27,0-.11.06-.18.06-.23v-.07a3.87,3.87,0,0,0-1.56-4.17h0c-.13-.1-.28-.2-.44-.3l0,0h0l-.2-.13c-3.81-2.17-5.45,0-6.4.94a63.46,63.46,0,0,0-4,6.79l-1.31.09q.76-.63,1.53-1.29c.63-.54-.36-3-3.86-4.89-4-2.16-5.93-1.23-6.55-.77,0,0-3.46,2-7.23,4.46-2.32-1.36-3.9-.08-4.81.47a6.17,6.17,0,0,0-.87.79,135.68,135.68,0,0,0-16.23,1.63,5.13,5.13,0,0,0-4.15-.59c-.44-.81-.87-1.57-1.28-2.25,1.76-1.64,3.05-2.87,3.26-3.1a3.74,3.74,0,0,0,1-3.64,10.8,10.8,0,0,0,1.19-2.6l.89-.29a10.9,10.9,0,0,0,3.86-6.56c0-.22.05-.43.06-.64v-.18c0-.16,0-.3,0-.45a.76.76,0,0,1,0-.15c0-.17,0-.32-.06-.47a1.84,1.84,0,0,0-.05-.25c0-.07,0-.13,0-.2a4.35,4.35,0,0,0-2.4-2.89c-7.11.2-30.4,5.84-30.4,5.84-1.21.2-4.51,1.23-6.85,6.25-2.06,4.44-.61,7.09.71,7,1.52-.18,3-.36,4.44-.56a11,11,0,0,0-1.32,3.19,3.81,3.81,0,0,0-2.67-.33l-.64.14a3,3,0,0,0-.36.12l-.19,0h0c-2.63,1-2.58,3.05-2.7,4.11-.14,1.21,2.22,13.35,3,17.56.09.5.18,1,.29,1.48.81,3.67,2.27,6.93,5.88,6.14a4,4,0,0,0,1.64-.76,4.17,4.17,0,0,0,2.41,1.76,4,4,0,0,0,4.37-1.19c-.52,2.44-.08,4.58,2.39,5.82,3.52,1.79,6.27-1.42,7.59-3.32.27-.4.48-.74.63-1,.71-1.12,2.13-3.69,3.75-6.7.78,1.43,1.61,2.92,2.49,4.45-1.93,4.08-.65,6.61.63,6.52,6.14-.42,11.68-1.08,16.46-1.8l0,.07c0,.12.07.25.11.39s0,.1,0,.15.12.35.2.54a9.81,9.81,0,0,0,4.81,4.73,128.21,128.21,0,0,0,17.55-.42c1,2.75,6.11,4.11,9.33,2.29.92-.52,4-2.55,7.6-4.93,3.6,1.22,7.68,2.49,12.18,3.65,1.11.29,2.67-1.89,1.46-6.07-.06-.21-.12-.4-.19-.59,2.5,2.53,5.35,5.25,8.55,8.08.85.75,3.24-.49,4.05-4.77a9.9,9.9,0,0,0-.66-6.57c3.46,1,5.94,1.65,5.94,1.65,1,.36,4,.93,8.27-2.58,3.47-2.87,3.9-5.71,3.09-6.49h.2c1.19.16,4.58.19,8.23-3.6,3.22-3.35,2.63-6.11,1.35-6.35l-1.64-.3c1.52-.22,3.9-1.11,6.27-4.1C525.56,163.79,524.82,161.07,523.6,160.92ZM379.53,177.31c-1.25,1.57-1.93,2.63-2.37.53-.71-3.4-1.42-6.81-1.78-9.24-.78-5.06-.85-8.41,1.78-8.66s3.29,2.75,2.54,7.24-2,7.69.8,8.15S380.64,175.89,379.53,177.31Zm6.57-30c.34-2.2-.94-3.54.46-3.89,4.11-1,15.37-3.73,20.4-4.46s7.57-1.34,8.26,0-1.19,5.27-3.38,3.88-1.7-1.61-6.77-.15-14.36,6.47-17.55,7.54S385.75,149.51,386.1,147.32Zm1.17,5.77a135.09,135.09,0,0,1,17.8-8.93c4.75-1.84,8.57,1.76-.3,7.61s-17,8.34-16.74,6.22C388.6,153.83,386.39,153.66,387.27,153.09Zm4,24.22a4.25,4.25,0,0,0-3.24,0c-.93.44-.93-.69.64-5.87,2.31-7.59,4.23-11.62,6.86-11.23s2.19,3.33.53,10.39S393.07,177.89,391.27,177.31Zm16.14-.44c-4.1,7.93-4.33,4.76-6.63,4s-5.17.47-4.19-1.56c1.07-2.22,3-5.38,5.28-9.42,4.09-7.34,6.18-8.7,9-7.35S411.5,168.94,407.41,176.87Zm75.79-27.78c5.17-4.85,9.47-10,12.49-8.46s1.18,4.61-1.39,7.37S478.36,153.62,483.2,149.09Zm-5.64,6.78c3.68-1.62,5.1.27,4.16,3.62s-7.41,7.2-13.28,10.38-9.71-1.54-7.26-3.34C466.75,162.42,473.88,157.49,477.56,155.87Zm-28.05,10.72c5.28-10,7.06-13.54,10.07-12.92s.85,5.74-1.53,11.3S446.82,171.65,449.51,166.59Zm-26.76.38c4.09-4.77,7.09-8.65,10.49-7.23s-.58,6.15-3.88,10.29-4.5,4.59-6.61,3.35S419,171.41,422.75,167ZM421,181.41c7.16-1.46,17-3.33,22.6-4s5.88,5.26-5.51,7.71C418.76,189.32,415.3,182.58,421,181.41Zm16.66,14.74c-10.62.29-8.2-3.05-5.73-3.49,4.51-.8,9.21-2,13.2-2.76s5.45-.57,6.28.68S448.32,195.86,437.7,196.15Zm23.95-.19c-4.35,3.38-16.86,5-11.07-1,10.35-10.61,12.87-10.64,17.56-8.41S466,192.58,461.65,196Zm14.74-11.52c-4.64-2.08-14.78-5.42-18-7.17s-4.1-8.41-.46-7.1c6.88,2.46,17.59,5.46,20.14,9.16S481,186.52,476.39,184.44Zm2-18.59c6.09-1.74,15.73-3.13,19.72-3.84s3,1.18,2.3,3.69-2.5,4.2-12.59,6.29C477.13,174.19,470.81,168,478.39,165.85Zm30,9c-2.13,4.38-4,4-13.06,3.83s-18.55-2-5.15-4.07C496.68,173.61,510.53,170.46,508.39,174.83ZM503,156.28c-14.89,1-18.89-4-14-4.73,4.24-.62,14.58-1.57,18.48-1.57S508.82,155.88,503,156.28Z" transform="translate(-327.3 -127.9)"/><g class="cls-22"><path class="cls-23" d="M414.84,134.19c4.15,2.31,8.53,3.12,12.68,0,1.85-1.49,2.88-3,5.42-3.34,2.08-.11,3.11,1,4.95,1.85,4.5,2.19,7.84-.81,11.88-2.77,5.88-3,9.57,3.11,15.34,3.11,2.53,0,4.95.35,6.56,2.66,1.28,1.72,1.73,2.65,4.38,3a44.4,44.4,0,0,0,5.16-.09,6.08,6.08,0,0,1,3.47.82c1.47,1,1.89,2.64,3.09,3.82a3.93,3.93,0,0,0,1.55.82,14,14,0,0,1,2.51,1.32,7,7,0,0,1,3.5,4.07,8.71,8.71,0,0,1-.05,5.32,5.78,5.78,0,0,1-1.69,2.28c-2.49,1.89-5.77.7-8.5.19a18.12,18.12,0,0,0-3.61-.1c-1.69,0-3.69.26-4.91,1.57-1.05,1.12-1.22,2.59-2.94,3-2.65.69-5.64-.58-7.95-1.85a7.61,7.61,0,0,0-6.34-.34c-2.31.81-4,2.42-6.57,2.53-3.46.12-4.5-1.49-6.92-3.34a6.14,6.14,0,0,0-6.69-.57c-1.67,1.07-2.24,3-3.2,4.63a5.92,5.92,0,0,1-4,3,9.3,9.3,0,0,1-5.09-.38c-1.71-.61-2.92-1.92-4.5-2.74a9,9,0,0,0-5.55-.51,15.36,15.36,0,0,1-5,.45,18.1,18.1,0,0,1-5.16-1.34,4.87,4.87,0,0,1-2.1-1.77c-1.34-1.83-.32-4.18.58-5.93.78-1.52,1.15-3.22-.87-3.83-1.79-.54-3.77.06-5.55-.48-2-.6-3.05-3.54-2.2-5.42,1.36-3,6.11-2.17,8.43-3.9a5.35,5.35,0,0,0,1.33-1.59c.37-.62.54-1.29.87-1.94A5.72,5.72,0,0,1,414.84,134.19Z" transform="translate(-327.3 -127.9)"/></g><path class="cls-24" d="M414.84,133.21c4.15,2.3,8.53,3.11,12.68,0,1.85-1.5,2.88-3,5.42-3.34,2.08-.12,3.11,1,4.95,1.84,4.5,2.19,7.84-.81,11.88-2.77,5.88-3,9.57,3.12,15.34,3.12,2.53,0,4.95.34,6.56,2.65,1.28,1.73,1.73,2.65,4.38,3a49.32,49.32,0,0,0,5.16-.09,6,6,0,0,1,3.47.81c1.47,1,1.89,2.64,3.09,3.82a3.81,3.81,0,0,0,1.55.82,14.64,14.64,0,0,1,2.51,1.32,7.06,7.06,0,0,1,3.5,4.07,8.71,8.71,0,0,1-.05,5.32,5.88,5.88,0,0,1-1.69,2.29c-2.49,1.88-5.77.69-8.5.18a18.12,18.12,0,0,0-3.61-.1c-1.69,0-3.69.27-4.91,1.57-1.05,1.12-1.22,2.6-2.94,3-2.65.69-5.64-.58-7.95-1.84a7.58,7.58,0,0,0-6.34-.35c-2.31.81-4,2.42-6.57,2.54-3.46.11-4.5-1.5-6.92-3.35a6.14,6.14,0,0,0-6.69-.57c-1.67,1.08-2.24,3-3.2,4.63a6,6,0,0,1-4,3,9.49,9.49,0,0,1-5.09-.38c-1.71-.62-2.92-1.93-4.5-2.75a9,9,0,0,0-5.55-.51,15.36,15.36,0,0,1-5,.45,18.42,18.42,0,0,1-5.16-1.33,4.89,4.89,0,0,1-2.1-1.78c-1.34-1.82-.32-4.18.58-5.93.78-1.52,1.15-3.21-.87-3.82-1.79-.54-3.77,0-5.55-.48-2-.6-3.05-3.55-2.2-5.43,1.36-3,6.11-2.17,8.43-3.9a5.35,5.35,0,0,0,1.33-1.59c.37-.62.54-1.29.87-1.93A5.71,5.71,0,0,1,414.84,133.21Z" transform="translate(-327.3 -127.9)"/><path class="cls-25" d="M439.71,148.53a1.53,1.53,0,0,1,.12-.28,2.93,2.93,0,0,1,.45-.64,3.27,3.27,0,0,1,.37-.38,2.54,2.54,0,0,1,.49-.35,2.86,2.86,0,0,1,.58-.29,4.32,4.32,0,0,1,.64-.19l.66-.06c.22,0,.44,0,.65,0l.58.12.49.19a3.7,3.7,0,0,1,.7.36l.25.15-.29-.07-.32-.09a3.26,3.26,0,0,0-.42-.1l-.49-.1-.55-.06c-.19,0-.39,0-.58,0a4.09,4.09,0,0,0-.6.07,3.68,3.68,0,0,0-.57.15l-.28.1-.26.12a5.26,5.26,0,0,0-.47.27c-.14.1-.28.2-.4.3A4.25,4.25,0,0,0,439.71,148.53Z" transform="translate(-327.3 -127.9)"/><path class="cls-25" d="M399.79,143.42a2.39,2.39,0,0,1,.48-.77c.09-.1.2-.2.32-.31a3.08,3.08,0,0,1,.41-.3,2.19,2.19,0,0,1,.48-.25,2.55,2.55,0,0,1,.53-.18c.19-.05.38-.06.56-.1h.54l.5.07c.15,0,.29.08.43.11a4.4,4.4,0,0,1,.61.25l.22.12-.25,0A6.13,6.13,0,0,0,404,142c-.13,0-.27,0-.42,0h-.46c-.16,0-.32,0-.49,0s-.33,0-.49.09a3.82,3.82,0,0,0-.48.15l-.44.19a4.81,4.81,0,0,0-.75.46A4.31,4.31,0,0,0,399.79,143.42Z" transform="translate(-327.3 -127.9)"/><path class="cls-25" d="M458.85,143.9a2.36,2.36,0,0,1,.17-.27l.23-.28a2.57,2.57,0,0,1,.33-.33,3.34,3.34,0,0,1,.45-.35,3.59,3.59,0,0,1,.55-.31,4.49,4.49,0,0,1,.65-.21,4.18,4.18,0,0,1,.71-.09c.24,0,.47,0,.71.06s.45.12.65.19l.58.28.46.31.2.15.16.15c.1.1.19.18.26.26l.21.22-.27-.16-.3-.18a3.65,3.65,0,0,0-.4-.21l-.48-.24-.55-.19c-.19-.06-.39-.08-.6-.14s-.42-.05-.63,0a2.68,2.68,0,0,0-.62.07,3.92,3.92,0,0,0-.59.15,5.29,5.29,0,0,0-.53.22,4,4,0,0,0-.46.27,3.67,3.67,0,0,0-.65.47A2.45,2.45,0,0,0,458.85,143.9Z" transform="translate(-327.3 -127.9)"/><path class="cls-25" d="M481.12,146.46a3.74,3.74,0,0,1,.83-.65,3.78,3.78,0,0,1,.45-.24,3,3,0,0,1,.55-.19,3.87,3.87,0,0,1,.61-.13,3.64,3.64,0,0,1,.66,0,1.88,1.88,0,0,1,.33,0l.31.09a2.75,2.75,0,0,1,.57.28,3.62,3.62,0,0,1,.47.36,2,2,0,0,1,.34.39,1.52,1.52,0,0,1,.25.35c.06.12.12.21.16.29l.13.26-.21-.2-.22-.24a2.06,2.06,0,0,0-.3-.28,2.84,2.84,0,0,0-.37-.3c-.15-.08-.28-.2-.45-.28a3.39,3.39,0,0,0-.51-.2l-.27-.08-.28,0a2.79,2.79,0,0,0-.58,0,5.17,5.17,0,0,0-.55.07,4,4,0,0,0-.52.12c-.16,0-.32.11-.46.15C481.5,146.26,481.12,146.46,481.12,146.46Z" transform="translate(-327.3 -127.9)"/><path class="cls-25" d="M468.82,149.84a2.37,2.37,0,0,1,.39-.66,2.63,2.63,0,0,1,.59-.55,2,2,0,0,1,.4-.24,2.47,2.47,0,0,1,.46-.15l.24,0h.25a1.78,1.78,0,0,1,.47.07,1.82,1.82,0,0,1,.41.15,1.5,1.5,0,0,1,.33.19,2.4,2.4,0,0,1,.42.37l.14.16-.2-.08-.21-.1a1.82,1.82,0,0,0-.28-.11,2.39,2.39,0,0,0-.32-.11c-.12,0-.24-.07-.37-.08a2.51,2.51,0,0,0-.39,0H471l-.2,0a1.9,1.9,0,0,0-.39.11c-.12.06-.25.1-.36.16l-.33.21-.28.19C469.05,149.63,468.82,149.84,468.82,149.84Z" transform="translate(-327.3 -127.9)"/><path class="cls-25" d="M421.35,155.16a4.37,4.37,0,0,1,.36-1.13,4.36,4.36,0,0,1,.67-1,4.1,4.1,0,0,1,.52-.5,3.34,3.34,0,0,1,.64-.37,3,3,0,0,1,.71-.23,3.56,3.56,0,0,1,.72-.06,6,6,0,0,1,.65.09,3.69,3.69,0,0,1,.56.18,2.34,2.34,0,0,1,.45.2l.32.19.28.17-.31-.09-.35-.11a2.63,2.63,0,0,0-.46-.1c-.17,0-.35-.08-.54-.1l-.6,0c-.21,0-.42,0-.63.08a3.44,3.44,0,0,0-1.17.53c-.17.14-.34.27-.49.41a5.57,5.57,0,0,0-.41.45c-.13.15-.23.3-.33.44a8.35,8.35,0,0,0-.44.72Z" transform="translate(-327.3 -127.9)"/><path class="cls-25" d="M409.21,151.52s-.1.4-.21,1c0,.3-.11.64-.13,1,0,.18,0,.38,0,.57s0,.38,0,.57a5.21,5.21,0,0,0,.08.57,4.56,4.56,0,0,0,.13.53,2.29,2.29,0,0,0,.19.48,2.61,2.61,0,0,0,.21.41l.22.34c.08.1.14.18.2.24l.17.23-.23-.16-.27-.19-.3-.29a2.59,2.59,0,0,1-.31-.41,2.71,2.71,0,0,1-.26-.51,2.81,2.81,0,0,1-.19-.58c-.05-.21-.06-.42-.1-.63s0-.42,0-.62a3.79,3.79,0,0,1,.07-.6,5.18,5.18,0,0,1,.28-1A4.23,4.23,0,0,1,409.21,151.52Z" transform="translate(-327.3 -127.9)"/><path class="cls-25" d="M410.05,136.54l.12-.25a2.9,2.9,0,0,1,.41-.59,3.44,3.44,0,0,1,.81-.67,2.69,2.69,0,0,1,.54-.26,4.08,4.08,0,0,1,.6-.16c.21,0,.42,0,.62-.05a5.61,5.61,0,0,1,.59.06l.54.13a4.69,4.69,0,0,1,.45.18,3.74,3.74,0,0,1,.63.35l.23.15-.27-.07c-.17,0-.39-.13-.68-.18l-.44-.1-.51-.06c-.17,0-.36,0-.54,0l-.54.06a2.93,2.93,0,0,0-.53.13l-.26.09-.24.11a4.15,4.15,0,0,0-.81.5A5.2,5.2,0,0,0,410.05,136.54Z" transform="translate(-327.3 -127.9)"/><path class="cls-25" d="M431.66,153.67a.7.7,0,1,1-.7-.75A.73.73,0,0,1,431.66,153.67Z" transform="translate(-327.3 -127.9)"/><path class="cls-25" d="M436.28,145a.72.72,0,0,1-.69.75.75.75,0,1,1,.69-.75Z" transform="translate(-327.3 -127.9)"/><path class="cls-25" d="M474.91,140.49a.69.69,0,1,1-.69-.75A.73.73,0,0,1,474.91,140.49Z" transform="translate(-327.3 -127.9)"/><path class="cls-25" d="M467.81,134.88a.69.69,0,1,1-.68-.75A.72.72,0,0,1,467.81,134.88Z" transform="translate(-327.3 -127.9)"/><path class="cls-25" d="M427.73,159.49a.69.69,0,1,1-.69-.75A.73.73,0,0,1,427.73,159.49Z" transform="translate(-327.3 -127.9)"/><ellipse class="cls-25" cx="123.29" cy="14.45" rx="0.69" ry="0.75"/><path class="cls-25" d="M409.38,136.82a.69.69,0,1,1-1.38,0,.69.69,0,1,1,1.38,0Z" transform="translate(-327.3 -127.9)"/><path class="cls-25" d="M472.71,157.78A.69.69,0,1,1,472,157,.73.73,0,0,1,472.71,157.78Z" transform="translate(-327.3 -127.9)"/><path class="cls-25" d="M419.21,154.71a1,1,0,1,1-1-1.05A1,1,0,0,1,419.21,154.71Z" transform="translate(-327.3 -127.9)"/><path class="cls-25" d="M412.4,147.32a1,1,0,1,1-1-1A1,1,0,0,1,412.4,147.32Z" transform="translate(-327.3 -127.9)"/><path class="cls-25" d="M441.11,153.27a1,1,0,1,1-1.93,0,1,1,0,1,1,1.93,0Z" transform="translate(-327.3 -127.9)"/><path class="cls-25" d="M423.35,148.7a.76.76,0,1,1-.76-.81A.78.78,0,0,1,423.35,148.7Z" transform="translate(-327.3 -127.9)"/><path class="cls-25" d="M464.26,139.68a.75.75,0,1,1-.75-.81A.78.78,0,0,1,464.26,139.68Z" transform="translate(-327.3 -127.9)"/><path class="cls-25" d="M448.58,150.62a1,1,0,1,1-1-1.05A1,1,0,0,1,448.58,150.62Z" transform="translate(-327.3 -127.9)"/><ellipse class="cls-25" cx="86.82" cy="14.75" rx="0.73" ry="0.79"/><path class="cls-25" d="M417.79,136.5a.78.78,0,1,1-1.55,0,.78.78,0,1,1,1.55,0Z" transform="translate(-327.3 -127.9)"/><ellipse class="cls-25" cx="149.57" cy="21.78" rx="0.78" ry="0.84"/><path class="cls-25" d="M459.15,150.73a.78.78,0,1,1-.77-.85A.81.81,0,0,1,459.15,150.73Z" transform="translate(-327.3 -127.9)"/><path class="cls-25" d="M486.82,148.46a.58.58,0,1,1-.58-.63A.6.6,0,0,1,486.82,148.46Z" transform="translate(-327.3 -127.9)"/><path class="cls-25" d="M430.14,147.86a.78.78,0,1,1-1.56,0,.78.78,0,1,1,1.56,0Z" transform="translate(-327.3 -127.9)"/><path class="cls-25" d="M466.88,145a.78.78,0,1,1-.78-.84A.81.81,0,0,1,466.88,145Z" transform="translate(-327.3 -127.9)"/><path class="cls-25" d="M402.9,145a.78.78,0,1,1-.78-.84A.81.81,0,0,1,402.9,145Z" transform="translate(-327.3 -127.9)"/><path class="cls-25" d="M483.2,141.65a.78.78,0,1,1-.77-.84A.81.81,0,0,1,483.2,141.65Z" transform="translate(-327.3 -127.9)"/><g class="cls-26"><path class="cls-24" d="M495.33,148.46a7.06,7.06,0,0,0-3.5-4.07,14.64,14.64,0,0,0-2.51-1.32,3.81,3.81,0,0,1-1.55-.82c-1.2-1.18-1.62-2.86-3.09-3.82a6,6,0,0,0-3.47-.81,49.32,49.32,0,0,1-5.16.09c-2.65-.35-3.1-1.27-4.38-3-1.61-2.31-4-2.65-6.56-2.65-5.77,0-9.46-6.11-15.34-3.12-4,2-7.38,5-11.88,2.77-1.84-.81-2.87-2-4.95-1.84-2.54.34-3.57,1.84-5.42,3.34-4.15,3.11-8.53,2.3-12.68,0a5.71,5.71,0,0,0-7.71,2.23c-.33.64-.5,1.31-.87,1.93a5.35,5.35,0,0,1-1.33,1.59c-2.32,1.73-7.07.88-8.43,3.9-.85,1.88.21,4.83,2.2,5.43,1.78.53,3.76-.06,5.55.48,2,.61,1.65,2.3.87,3.82-.9,1.75-1.92,4.11-.58,5.93a4.89,4.89,0,0,0,2.1,1.78,18.42,18.42,0,0,0,5.16,1.33,15.36,15.36,0,0,0,5-.45,9,9,0,0,1,5.55.51c1.58.82,2.79,2.13,4.5,2.75a9.49,9.49,0,0,0,5.09.38,6,6,0,0,0,4-3c1-1.62,1.53-3.55,3.2-4.63a6.14,6.14,0,0,1,6.69.57c2.42,1.85,3.46,3.46,6.92,3.35,2.53-.12,4.26-1.73,6.57-2.54a7.58,7.58,0,0,1,6.34.35c2.31,1.26,5.3,2.53,7.95,1.84,1.72-.44,1.89-1.92,2.94-3,1.22-1.3,3.22-1.55,4.91-1.57a18.12,18.12,0,0,1,3.61.1c2.73.51,6,1.7,8.5-.18a5.88,5.88,0,0,0,1.69-2.29A8.71,8.71,0,0,0,495.33,148.46Zm-9.67,6c-4.53-2.58-9.22-2.11-10.09,1.86s-4.2,5-7.76,1.69-7.05-3.74-9.13-.94c-2.38,3.2-7.15,4.54-12,0s-9.24-2-11.17,3.19-7.35,4.59-10.14.91c-3.91-5.16-9.2-1.07-11.94-.81-10.68,1-7.9-6.36-6.45-10.23.55-1.47,1.06-3.52-3.8-2.74-4.07.66-6.94-1.63-6.05-3.9s3.08-2.25,7.47-2.95,1.7-3.12,4.52-5.61c4.1-3.61,12.39,2.59,9.5,5.61-2.06,2.15-2.11,4.19-1.07,4.79s2-1.12,6.27-2.19c5.38-1.34,11.81,2.69,16.2,2.69a6.58,6.58,0,0,0,6-3.29c2.88.94,8-.1,10-3.62,4.4-8.08,13.17-6,15.74-1.8,1.71,2.79,3.86,2.71,7.63,1.8,5.82-1.41,5.17,5.06,7.53,5,5.07-.07,7.91,2.26,8.38,6.34S490.2,157,485.66,154.42Z" transform="translate(-327.3 -127.9)"/></g><g class="cls-27"><path class="cls-24" d="M495.33,148.46a7.06,7.06,0,0,0-3.5-4.07,14.64,14.64,0,0,0-2.51-1.32,3.81,3.81,0,0,1-1.55-.82c-1.2-1.18-1.62-2.86-3.09-3.82a6,6,0,0,0-3.47-.81,49.32,49.32,0,0,1-5.16.09c-2.65-.35-3.1-1.27-4.38-3-1.61-2.31-4-2.65-6.56-2.65-5.77,0-9.46-6.11-15.34-3.12-4,2-7.38,5-11.88,2.77-1.84-.81-2.87-2-4.95-1.84-2.54.34-3.57,1.84-5.42,3.34-4.15,3.11-8.53,2.3-12.68,0a5.71,5.71,0,0,0-7.71,2.23c-.33.64-.5,1.31-.87,1.93a5.35,5.35,0,0,1-1.33,1.59c-2.32,1.73-7.07.88-8.43,3.9-.85,1.88.21,4.83,2.2,5.43,1.78.53,3.76-.06,5.55.48,2,.61,1.65,2.3.87,3.82-.9,1.75-1.92,4.11-.58,5.93a4.89,4.89,0,0,0,2.1,1.78,18.42,18.42,0,0,0,5.16,1.33,15.36,15.36,0,0,0,5-.45,9,9,0,0,1,5.55.51c1.58.82,2.79,2.13,4.5,2.75a9.49,9.49,0,0,0,5.09.38,6,6,0,0,0,4-3c1-1.62,1.53-3.55,3.2-4.63a6.14,6.14,0,0,1,6.69.57c2.42,1.85,3.46,3.46,6.92,3.35,2.53-.12,4.26-1.73,6.57-2.54a7.58,7.58,0,0,1,6.34.35c2.31,1.26,5.3,2.53,7.95,1.84,1.72-.44,1.89-1.92,2.94-3,1.22-1.3,3.22-1.55,4.91-1.57a18.12,18.12,0,0,1,3.61.1c2.73.51,6,1.7,8.5-.18a5.88,5.88,0,0,0,1.69-2.29A8.71,8.71,0,0,0,495.33,148.46Zm-57.88,5.45c-1.61.13-2.21,1-2.83,2.31a7.23,7.23,0,0,1-2.24,3,6.15,6.15,0,0,1-3.68.46,4.21,4.21,0,0,1-2.37-1.15c-1.7-1.41-3.1-2.35-5.42-2.24-3,.14-5.5,1.82-8.5,1.85-1.91,0-3.76.16-4.44-2-.6-2,.17-3.87,1-5.65a3.86,3.86,0,0,0,.38-2.3c-.48-3.25-5.51-1.42-7.65-1.94-1.67-.35-3.58-2.25-1.79-3.81,2.49-2.17,5.72-.09,8.39-1.44,2-1,.69-3.75,1.87-5.3,1.67-2.31,5.88-.87,7.32.8,2.43,2.81-1.8,4.33-2,7-.18,1.94-.18,5.42,2.65,5a5.17,5.17,0,0,0,2.63-1.73,7.39,7.39,0,0,1,3.89-1.89,8.84,8.84,0,0,1,5.8,1,15.37,15.37,0,0,0,1.9,1.17,10.7,10.7,0,0,0,4.4.37,15.57,15.57,0,0,0,3.83-1.17,5.84,5.84,0,0,1,2.9-.39c1.77.15,3.35.5,4.29,2.11,2,3.4-2.14,5.71-5,6C441,154.27,439.22,153.78,437.45,153.91Zm21.26,1.65c-.75.5-1.39,1.4-2.1,1.91a4.82,4.82,0,0,1-3.17.95c-2.48-.14-4.71-1.59-6.86-2.7-.49-.25-1.07-.78-.72-1.38s1.4-.55,2-.78c1-.35,1.5-1.32,2.4-1.77,1.05-.52,2.08.21,2.93.77a6.73,6.73,0,0,0,3.94,1.52c.77-.08,3.61-1.62,4-.54s-1.51,1.53-2.15,1.85Zm34.66-2.37a5,5,0,0,1-3.4.94,9,9,0,0,1-3.46-.81,25,25,0,0,0-3.24-1.8c-1.84-.62-5.06-1.37-6.73,0-1.12.91-1.47,2.42-2.09,3.66-1.22,2.42-5.21,3.32-7.16,1.26s.3-4.63.66-6.82a2.37,2.37,0,0,0-1.27-2.65,3.6,3.6,0,0,0-3,.52c-1.73,1-2.54,2.74-4.63,3.22a6,6,0,0,1-5.52-1.16c-1.11-1-2.13-3.7-1.07-5.1.95-1.25,2.8-1.66,4.24-2,1-.23,3.17-.08,3.56-1.27.5-1.54-1.5-2.24-1.82-3.47-.75-2.93,3.83-3.69,5.81-3.26a7.15,7.15,0,0,1,3,1.49c.95.86,1.35,2.14,2.24,3.06,1.45,1.53,4,2.14,6.08,2.16,2.88,0,6-2,8.37.62a11.8,11.8,0,0,0,2.22,2.51c1.76,1.13,4,1.47,5.78,2.5C494.21,148.09,495.91,151.15,493.37,153.19Z" transform="translate(-327.3 -127.9)"/></g><g class="cls-28"><path class="cls-25" d="M429.54,156.61c1.61-.23,2.54-4.27,4.55-3.11,1.15.66.3,2.31-.23,3.08-.78,1.12-1.39,2.27-2.86,2.54-1.64.3-3.16-.76-4.51-1.57a11.91,11.91,0,0,0-2.42-1.4c-.74-.23-1.49-.32-1.66-1.23a1.77,1.77,0,0,1,1.26-1.95c1.45-.41,2.64.76,3.28,1.88S428.25,156.8,429.54,156.61Z" transform="translate(-327.3 -127.9)"/></g><g class="cls-28"><path class="cls-25" d="M409.83,156.28a3.76,3.76,0,0,0,3.25,1.36,3.46,3.46,0,0,0,2.12-.49,1.39,1.39,0,0,0,.42-1c0-.66-.57-.92-1.09-1.3-.81-.52-1.56-.87-1.82-1.87s.61-1.85.29-2.71a1.3,1.3,0,0,0-2.25-.23,5.66,5.66,0,0,0-1.28,5.6A3,3,0,0,0,409.83,156.28Z" transform="translate(-327.3 -127.9)"/></g><g class="cls-28"><path class="cls-25" d="M400.27,143.16a1.64,1.64,0,0,0-.28.63,2.11,2.11,0,0,0,1.93,2.27c1.27.06,1.09-1.29,1.78-2,.4-.4,2.56-.53,1.88-1.53-.43-.63-1.38-.43-2-.54a4,4,0,0,0-.6,0A3.42,3.42,0,0,0,400.27,143.16Z" transform="translate(-327.3 -127.9)"/></g><g class="cls-28"><path class="cls-25" d="M411.23,138.87c-.42.29-1,.45-1.17-.17-.41-1.42.87-2.6,2-3.11a3.34,3.34,0,0,1,3.13.17c.48.31,1,1.45.17,1.66a20.25,20.25,0,0,0-2.54.26,3.07,3.07,0,0,0-1.28.88A2,2,0,0,1,411.23,138.87Z" transform="translate(-327.3 -127.9)"/></g><g class="cls-28"><path class="cls-25" d="M442.28,147.19a5.13,5.13,0,0,1,3.17.14c.81.29,2.13,1.44.89,2.13s-2.54-.17-3.72.09c-.91.18-1.65,1-2.57,1-.5,0-.68-.42-.59-.84a2.94,2.94,0,0,1,.92-1.31A4.74,4.74,0,0,1,442.28,147.19Z" transform="translate(-327.3 -127.9)"/></g><g class="cls-28"><path class="cls-25" d="M423.46,146.32a6.32,6.32,0,0,1,4.43-.23c.52.18,4.24,1.47,3.52,2.25-.37.4-1.41.29-1.9.29-1.21,0-2.36-.44-3.6-.35a16.2,16.2,0,0,0-4,.92c-.73.27-1.42.76-2.22.49s-1.08-.86-.26-1.34a7.53,7.53,0,0,1,1.16-.39C421.64,147.57,422.44,146.75,423.46,146.32Z" transform="translate(-327.3 -127.9)"/></g><g class="cls-28"><path class="cls-25" d="M452.38,153.67c1.27.61,2.54,1.8,4,1.42.46-.12,1.22-1,1.15-.2-.08.66-.92,1.27-1.46,1.54-2,1-4.34,1.43-6.3.27-.72-.42-3.06-1.3-2.24-2.57.35-.53,1.38-.62,1.93-.75A4.22,4.22,0,0,1,452.38,153.67Z" transform="translate(-327.3 -127.9)"/></g><g class="cls-28"><path class="cls-25" d="M464.45,143.47c.54.31,1.08.77.92,1.5s-1.11.61-1.8.61c-1.62,0-3.46-.15-4.38,1.42-.46.78-1.15,1.31-1.59.24a2,2,0,0,1,.31-2.07,7.51,7.51,0,0,1,1.77-1.65A4.78,4.78,0,0,1,464.45,143.47Z" transform="translate(-327.3 -127.9)"/></g><g class="cls-28"><path class="cls-25" d="M465.83,138.57l.22.25c1,1,2.7,3.42,4.4,2.57.68-.34.3-.84-.16-1.11A11.7,11.7,0,0,1,468,139a11.12,11.12,0,0,1-1.28-2.35,2.89,2.89,0,0,0-1.77-1.32,6.68,6.68,0,0,0-4.94.58c-.4.23-.8.54-.55,1.08.38.8,1.63.53,2.27.27a2.25,2.25,0,0,1,1.41-.18,5,5,0,0,1,1.66.57A4.58,4.58,0,0,1,465.83,138.57Z" transform="translate(-327.3 -127.9)"/></g><g class="cls-28"><path class="cls-25" d="M473.9,150.81c.16.61.12,1.38-.57,1.57-1.05.3-2.48-1.49-3.43-.2-.58.82-.14,2-.48,2.86s-1.19.73-1.73.17a2.55,2.55,0,0,1-.54-1.89,5.06,5.06,0,0,1,3.31-4C471.88,149,473.54,149.1,473.9,150.81Z" transform="translate(-327.3 -127.9)"/></g><g class="cls-28"><path class="cls-25" d="M482.2,146.28c-1.23.19-2.88,1.77-1.15,2.61,1.26.62,2.53.07,3.45,1.35.72,1,1.64,1.58,2.16.12a2.77,2.77,0,0,0-1.19-3.61A5.2,5.2,0,0,0,482.2,146.28Z" transform="translate(-327.3 -127.9)"/></g><g class="cls-28"><path class="cls-25" d="M491,151.12c-.5.46-1.19.3-1.8.34-.85,0-1.08.39-.31.88a4.81,4.81,0,0,0,4,.35,2.4,2.4,0,0,0,.78-3.53,4,4,0,0,0-1.85-1.41,1.07,1.07,0,0,0-1,0c-.58.47.23,1.08.46,1.5A1.6,1.6,0,0,1,491,151.12Z" transform="translate(-327.3 -127.9)"/></g><path class="cls-29" d="M419.29,143.59l0,0Z" transform="translate(-327.3 -127.9)"/><path class="cls-30" d="M419.29,143.59c.32-.54,3.14-4.75,12.69-1.56,9.12,3,12.29,1.4,12.68-.89C443.33,133.13,424.49,133.88,419.29,143.59Z" transform="translate(-327.3 -127.9)"/><path class="cls-31" d="M444.7,140.32c-.37-4.28-4.87-7.36-11.3-7.23-5.88.12-13.37,5.5-14.14,10.55l0,0c5.2-9.71,24-10.46,25.37-2.45A3.2,3.2,0,0,0,444.7,140.32Z" transform="translate(-327.3 -127.9)"/><g class="cls-32"><path class="cls-30" d="M442.9,138.06a5.45,5.45,0,0,0,.84,3.12c-3.38,2.55-6.64,1-14.87-.69-6-1.26-8.55,1.54-9.21,2.48l-.18.3h0c.83-1.09,4-4.08,12.48-1.25,9.12,3,12.29,1.4,12.68-.89A5.11,5.11,0,0,0,442.9,138.06Z" transform="translate(-327.3 -127.9)"/></g><path class="cls-29" d="M467,132.83l0,0Z" transform="translate(-327.3 -127.9)"/><path class="cls-30" d="M467,132.83c-.48-.36-4.53-3.06-11.82,3.28-7,6-10.37,5.76-11.57,3.87C441.83,132.38,458.8,126.13,467,132.83Z" transform="translate(-327.3 -127.9)"/><path class="cls-31" d="M443.26,139.27c-1.25-3.94,1.62-8.31,7.36-10.56,5.25-2.06,13.87,0,16.41,4.15l0,0c-8.18-6.7-25.15-.45-23.39,7.15A3.06,3.06,0,0,1,443.26,139.27Z" transform="translate(-327.3 -127.9)"/><path class="cls-33" d="M443.14,137.21s-.09-5.15,7.06-8.09a14.66,14.66,0,0,1,13.06,1.06,21.55,21.55,0,0,0-13.23-.05A11.41,11.41,0,0,0,443.14,137.21Z" transform="translate(-327.3 -127.9)"/><path class="cls-33" d="M442.7,136.82s-2.8-4-9.91-3.34a16.32,16.32,0,0,0-11,5.64S431.3,130.42,442.7,136.82Z" transform="translate(-327.3 -127.9)"/><g class="cls-32"><path class="cls-30" d="M459.57,132.4c-3.28,1.41-7.78,6.14-11.82,7.81-2.21.92-3.42.47-4.08-.11,1.26,1.78,4.67,1.93,11.49-4,7-6.11,11-3.82,11.75-3.33C465.44,131.65,462.78,131,459.57,132.4Z" transform="translate(-327.3 -127.9)"/></g><polygon class="cls-34" points="81.37 21.24 80.01 22.68 81.13 23.32 82.25 21.8 81.37 21.24"/><polygon class="cls-34" points="63.78 29.41 62.09 29.87 62.26 30.85 63.77 30.35 63.78 29.41"/><polygon class="cls-34" points="77.74 40.53 77.8 38.78 76.82 38.66 76.84 40.24 77.74 40.53"/><polygon class="cls-34" points="139.96 34.43 138.61 35.87 139.72 36.51 140.84 34.99 139.96 34.43"/><polygon class="cls-34" points="122.37 42.6 120.68 43.06 120.85 44.04 122.36 43.54 122.37 42.6"/><polygon class="cls-34" points="136.33 53.72 136.4 51.97 135.41 51.84 135.43 53.43 136.33 53.72"/><polygon class="cls-34" points="108.63 48.02 107.27 49.46 108.39 50.09 109.51 48.58 108.63 48.02"/><polygon class="cls-34" points="91.03 56.19 89.35 56.65 89.52 57.63 91.02 57.13 91.03 56.19"/><polygon class="cls-34" points="104.99 67.31 105.06 65.56 104.07 65.43 104.1 67.02 104.99 67.31"/><polygon class="cls-34" points="81.05 48.58 79.69 50.02 80.81 50.66 81.93 49.14 81.05 48.58"/><polygon class="cls-34" points="63.45 56.75 61.77 57.21 61.94 58.19 63.45 57.69 63.45 56.75"/><polygon class="cls-34" points="77.42 67.87 77.48 66.12 76.5 65.99 76.52 67.58 77.42 67.87"/><polygon class="cls-34" points="156.65 55 155.29 56.44 156.41 57.08 157.53 55.56 156.65 55"/><polygon class="cls-34" points="139.05 63.16 137.36 63.63 137.53 64.61 139.04 64.11 139.05 63.16"/><polygon class="cls-34" points="153.01 74.29 153.07 72.54 152.09 72.41 152.11 74 153.01 74.29"/><polygon class="cls-34" points="191.04 44.58 189.69 46.02 190.8 46.66 191.92 45.14 191.04 44.58"/><polygon class="cls-34" points="173.45 52.75 171.76 53.21 171.93 54.19 173.44 53.69 173.45 52.75"/><polygon class="cls-34" points="187.41 63.87 187.47 62.12 186.49 61.99 186.51 63.58 187.41 63.87"/><polygon class="cls-34" points="172.56 17.99 171.32 19.3 172.34 19.88 173.36 18.5 172.56 17.99"/><polygon class="cls-34" points="156.49 25.45 154.95 25.87 155.1 26.76 156.48 26.31 156.49 25.45"/><polygon class="cls-34" points="169.24 35.6 169.29 34 168.4 33.89 168.42 35.33 169.24 35.6"/><polygon class="cls-34" points="121.24 12.63 120 13.94 121.02 14.52 122.04 13.14 121.24 12.63"/><polygon class="cls-34" points="105.17 20.09 103.63 20.51 103.79 21.4 105.17 20.95 105.17 20.09"/><polygon class="cls-34" points="117.92 30.24 117.98 28.64 117.08 28.53 117.1 29.97 117.92 30.24"/><polygon class="cls-34" points="145.52 12.47 144.16 13.91 145.28 14.55 146.4 13.03 145.52 12.47"/><polygon class="cls-34" points="129.99 17.89 128.3 18.35 128.48 19.33 129.98 18.83 129.99 17.89"/><polygon class="cls-34" points="136.7 16.1 136.77 14.35 135.78 14.22 135.81 15.8 136.7 16.1"/><polygon class="cls-34" points="92.86 25.15 91.51 26.59 92.63 27.22 93.74 25.7 92.86 25.15"/><polygon class="cls-34" points="68.43 19.56 66.74 20.02 66.92 21 68.42 20.5 68.43 19.56"/><polygon class="cls-34" points="82.39 30.68 82.46 28.93 81.47 28.8 81.5 30.39 82.39 30.68"/><path class="cls-35" d="M411.64,142.26a3.15,3.15,0,0,0-2.41,1.12.16.16,0,0,0,0,.18.68.68,0,0,0,0,.32c.05.34.5.36.74.25a2,2,0,0,0,.54-.33,2.12,2.12,0,0,1,.84-.26c.42-.07.84-.12,1-.59S412,142.28,411.64,142.26Z" transform="translate(-327.3 -127.9)"/><path class="cls-35" d="M412.32,137.05a3.21,3.21,0,0,0,2.23-1.46.13.13,0,0,0,0-.17.74.74,0,0,0,0-.33c-.09-.33-.55-.28-.77-.14a2.27,2.27,0,0,0-.48.4,2.07,2.07,0,0,1-.79.38c-.41.14-.82.24-.92.73S411.92,137.09,412.32,137.05Z" transform="translate(-327.3 -127.9)"/><path class="cls-35" d="M417.29,142a2.48,2.48,0,0,0,.72,1.93.1.1,0,0,0,.13,0,.62.62,0,0,0,.25,0c.26,0,.3-.37.24-.55a1.81,1.81,0,0,0-.22-.44,1.63,1.63,0,0,1-.15-.66c0-.33,0-.67-.39-.82S417.33,141.7,417.29,142Z" transform="translate(-327.3 -127.9)"/><path class="cls-35" d="M412.72,151a2.46,2.46,0,0,0,1.73-1.13.12.12,0,0,0,0-.14.72.72,0,0,0,0-.25c-.08-.25-.43-.21-.6-.11a1.89,1.89,0,0,0-.37.32,1.64,1.64,0,0,1-.61.29c-.32.11-.64.19-.72.56S412.42,151.05,412.72,151Z" transform="translate(-327.3 -127.9)"/><path class="cls-35" d="M390.47,162.09a3.12,3.12,0,0,0-2.41,1.12.14.14,0,0,0,0,.17.72.72,0,0,0,0,.33c.05.33.5.35.74.25a2.3,2.3,0,0,0,.54-.33,1.84,1.84,0,0,1,.84-.26c.41-.08.84-.12,1-.59S390.88,162.1,390.47,162.09Z" transform="translate(-327.3 -127.9)"/><path class="cls-35" d="M396.83,167.72a3.14,3.14,0,0,0,2.23-1.46.14.14,0,0,0,0-.17.63.63,0,0,0,0-.33c-.09-.32-.54-.27-.76-.14a2.14,2.14,0,0,0-.49.41,1.92,1.92,0,0,1-.79.37c-.4.14-.82.25-.92.74S396.43,167.77,396.83,167.72Z" transform="translate(-327.3 -127.9)"/><path class="cls-35" d="M397.09,160.48a2.46,2.46,0,0,0,.71,1.94.13.13,0,0,0,.14,0,.47.47,0,0,0,.24,0c.26,0,.31-.36.25-.55a2.3,2.3,0,0,0-.23-.44,1.48,1.48,0,0,1-.14-.66c0-.33-.05-.66-.4-.82S397.13,160.17,397.09,160.48Z" transform="translate(-327.3 -127.9)"/><path class="cls-35" d="M391.55,170.85a2.5,2.5,0,0,0,1.73-1.14.1.1,0,0,0,0-.13.71.71,0,0,0,0-.25c-.08-.25-.43-.22-.6-.12a1.89,1.89,0,0,0-.37.32,1.63,1.63,0,0,1-.61.29c-.32.11-.64.19-.72.57S391.25,170.88,391.55,170.85Z" transform="translate(-327.3 -127.9)"/><path class="cls-35" d="M420.61,146.9a2.13,2.13,0,0,0-1.64.76.09.09,0,0,0,0,.11.53.53,0,0,0,0,.22c0,.23.35.24.51.17a1.34,1.34,0,0,0,.36-.22,1.23,1.23,0,0,1,.57-.17c.28-.06.57-.09.68-.4S420.88,146.91,420.61,146.9Z" transform="translate(-327.3 -127.9)"/><path class="cls-35" d="M426.71,157.5a2.13,2.13,0,0,0,1.51-1,.09.09,0,0,0,0-.12.55.55,0,0,0,0-.22c-.07-.21-.37-.18-.52-.1a1.81,1.81,0,0,0-.33.28,1.3,1.3,0,0,1-.53.25c-.28.1-.56.17-.63.5S426.44,157.53,426.71,157.5Z" transform="translate(-327.3 -127.9)"/><path class="cls-35" d="M424.12,149.61a1.63,1.63,0,0,0,.49,1.3.08.08,0,0,0,.09,0,.43.43,0,0,0,.17,0c.17,0,.2-.25.16-.38a1.68,1.68,0,0,0-.15-.3.82.82,0,0,1-.1-.44c0-.22,0-.45-.27-.56S424.15,149.4,424.12,149.61Z" transform="translate(-327.3 -127.9)"/><path class="cls-35" d="M416.67,158a1.63,1.63,0,0,0,1.16-.76.06.06,0,0,0,0-.09.54.54,0,0,0,0-.18c-.05-.16-.29-.14-.41-.07a1.64,1.64,0,0,0-.25.21,1,1,0,0,1-.41.2c-.22.07-.43.13-.49.39S416.46,158,416.67,158Z" transform="translate(-327.3 -127.9)"/><path class="cls-35" d="M462.5,169a3.18,3.18,0,0,0-2.41,1.12.14.14,0,0,0,0,.17.72.72,0,0,0,0,.33c.05.33.5.35.74.25a2.3,2.3,0,0,0,.54-.33,2,2,0,0,1,.84-.26c.42-.08.84-.12,1-.59S462.91,169,462.5,169Z" transform="translate(-327.3 -127.9)"/><path class="cls-35" d="M468.87,174.66a3.19,3.19,0,0,0,2.22-1.46.15.15,0,0,0,0-.18.74.74,0,0,0,0-.33c-.1-.32-.55-.27-.77-.14a2.14,2.14,0,0,0-.49.41,1.86,1.86,0,0,1-.79.37c-.4.14-.82.25-.92.74S468.46,174.7,468.87,174.66Z" transform="translate(-327.3 -127.9)"/><path class="cls-35" d="M469.12,167.42a2.45,2.45,0,0,0,.71,1.93.13.13,0,0,0,.14,0,.49.49,0,0,0,.25,0c.25,0,.3-.36.24-.55a2,2,0,0,0-.22-.44,1.36,1.36,0,0,1-.15-.66c0-.33,0-.66-.39-.82S469.16,167.11,469.12,167.42Z" transform="translate(-327.3 -127.9)"/><path class="cls-35" d="M463.58,177.78a2.49,2.49,0,0,0,1.73-1.13.12.12,0,0,0,0-.14.71.71,0,0,0,0-.25c-.07-.25-.43-.21-.6-.11a1.56,1.56,0,0,0-.37.31,1.48,1.48,0,0,1-.62.29c-.31.11-.63.19-.71.57S463.28,177.81,463.58,177.78Z" transform="translate(-327.3 -127.9)"/><path class="cls-35" d="M436.88,179.49a3.48,3.48,0,0,0-2.64,1.22.17.17,0,0,0,0,.19.81.81,0,0,0,0,.35c.05.37.55.39.8.28a2.52,2.52,0,0,0,.59-.36,2.06,2.06,0,0,1,.91-.28c.46-.09.93-.14,1.11-.65S437.31,179.5,436.88,179.49Z" transform="translate(-327.3 -127.9)"/><path class="cls-35" d="M443.8,185.63a3.45,3.45,0,0,0,2.43-1.58.15.15,0,0,0,0-.2.63.63,0,0,0,0-.36c-.1-.35-.6-.3-.84-.15a2.48,2.48,0,0,0-.53.44,2,2,0,0,1-.86.41c-.44.15-.9.27-1,.8S443.37,185.68,443.8,185.63Z" transform="translate(-327.3 -127.9)"/><path class="cls-35" d="M444.08,177.74a2.72,2.72,0,0,0,.78,2.11.13.13,0,0,0,.15,0,.49.49,0,0,0,.27.05c.28,0,.33-.4.26-.61a2.08,2.08,0,0,0-.24-.47,1.76,1.76,0,0,1-.16-.72c0-.36-.05-.72-.43-.9S444.13,177.4,444.08,177.74Z" transform="translate(-327.3 -127.9)"/><path class="cls-35" d="M438.05,189a2.66,2.66,0,0,0,1.88-1.23.14.14,0,0,0,0-.15.5.5,0,0,0,0-.27c-.08-.27-.46-.23-.65-.12a1.9,1.9,0,0,0-.41.34,1.6,1.6,0,0,1-.67.32c-.34.11-.69.21-.77.62S437.72,189.07,438.05,189Z" transform="translate(-327.3 -127.9)"/><path class="cls-35" d="M409.26,185.58a3.2,3.2,0,0,0-2.42,1.13.14.14,0,0,0,0,.17.89.89,0,0,0,0,.33c.05.33.51.35.75.25a2.46,2.46,0,0,0,.53-.33,1.88,1.88,0,0,1,.84-.26c.42-.08.84-.13,1-.59S409.66,185.6,409.26,185.58Z" transform="translate(-327.3 -127.9)"/><path class="cls-35" d="M415.62,191.23a3.19,3.19,0,0,0,2.22-1.46.15.15,0,0,0,0-.18.62.62,0,0,0,0-.33c-.1-.32-.55-.27-.77-.14a2.37,2.37,0,0,0-.49.41,1.82,1.82,0,0,1-.78.37c-.41.14-.83.25-.92.74S415.22,191.27,415.62,191.23Z" transform="translate(-327.3 -127.9)"/><path class="cls-35" d="M415.87,184a2.51,2.51,0,0,0,.72,1.94.11.11,0,0,0,.13,0,.51.51,0,0,0,.25,0c.26,0,.3-.36.24-.55A1.81,1.81,0,0,0,417,185a1.63,1.63,0,0,1-.15-.66c0-.33,0-.66-.39-.82S415.91,183.68,415.87,184Z" transform="translate(-327.3 -127.9)"/><path class="cls-35" d="M410.34,194.35a2.52,2.52,0,0,0,1.72-1.13.11.11,0,0,0,0-.14.43.43,0,0,0,0-.25c-.07-.25-.42-.22-.59-.11a1.61,1.61,0,0,0-.38.31,1.5,1.5,0,0,1-.61.29c-.32.11-.64.19-.71.57S410,194.38,410.34,194.35Z" transform="translate(-327.3 -127.9)"/><path class="cls-35" d="M476.23,144.73a2.75,2.75,0,0,0-2.09,1,.14.14,0,0,0,0,.16.64.64,0,0,0,0,.28c0,.29.44.3.64.22a2.83,2.83,0,0,0,.47-.29,1.52,1.52,0,0,1,.72-.22c.37-.08.74-.11.88-.52S476.58,144.74,476.23,144.73Z" transform="translate(-327.3 -127.9)"/><path class="cls-35" d="M481.74,149.61a2.8,2.8,0,0,0,1.93-1.27.14.14,0,0,0,0-.15.68.68,0,0,0,0-.28c-.08-.28-.47-.24-.67-.13a2,2,0,0,0-.41.35,1.58,1.58,0,0,1-.69.33c-.35.12-.71.21-.79.64S481.39,149.64,481.74,149.61Z" transform="translate(-327.3 -127.9)"/><path class="cls-35" d="M482,143.34a2.1,2.1,0,0,0,.62,1.67.09.09,0,0,0,.11,0,.38.38,0,0,0,.22,0c.22,0,.26-.31.21-.48a1.9,1.9,0,0,0-.2-.37,1.4,1.4,0,0,1-.13-.57c0-.29,0-.58-.33-.71S482,143.07,482,143.34Z" transform="translate(-327.3 -127.9)"/><path class="cls-35" d="M477.17,152.31a2.16,2.16,0,0,0,1.49-1s0-.1,0-.12a.55.55,0,0,0,0-.22c-.07-.21-.37-.19-.51-.1a1.76,1.76,0,0,0-.33.27,1.2,1.2,0,0,1-.53.26c-.27.09-.55.16-.61.49S476.9,152.33,477.17,152.31Z" transform="translate(-327.3 -127.9)"/><path class="cls-35" d="M452.25,148.26a3.2,3.2,0,0,0-2.41,1.12.16.16,0,0,0,0,.18.7.7,0,0,0,0,.33c.05.33.51.35.74.25a2.69,2.69,0,0,0,.54-.33,1.84,1.84,0,0,1,.84-.26c.42-.08.85-.13,1-.59S452.65,148.28,452.25,148.26Z" transform="translate(-327.3 -127.9)"/><path class="cls-35" d="M468.45,153.56a3.21,3.21,0,0,0,2.23-1.46.15.15,0,0,0,0-.18.63.63,0,0,0,0-.33c-.09-.32-.54-.27-.77-.14a2.32,2.32,0,0,0-.48.41,2,2,0,0,1-.79.38c-.41.14-.82.24-.92.73S468.05,153.6,468.45,153.56Z" transform="translate(-327.3 -127.9)"/><path class="cls-35" d="M457,151.61a2.44,2.44,0,0,0,.72,1.93.09.09,0,0,0,.13,0,.4.4,0,0,0,.25.05c.26,0,.3-.37.24-.56a2.18,2.18,0,0,0-.22-.43A1.36,1.36,0,0,1,458,152c0-.33-.05-.66-.4-.82S457.07,151.3,457,151.61Z" transform="translate(-327.3 -127.9)"/><path class="cls-35" d="M455.21,158.53a2.46,2.46,0,0,0,1.72-1.13.12.12,0,0,0,0-.14.43.43,0,0,0,0-.25c-.07-.25-.42-.21-.59-.11a2.24,2.24,0,0,0-.38.31,1.52,1.52,0,0,1-.61.3c-.31.1-.63.19-.71.56S454.9,158.56,455.21,158.53Z" transform="translate(-327.3 -127.9)"/><path class="cls-35" d="M435.07,144.58a3.18,3.18,0,0,0-2.41,1.12.16.16,0,0,0,0,.18.81.81,0,0,0,0,.32c0,.33.51.35.74.25a2.3,2.3,0,0,0,.54-.33,2,2,0,0,1,.84-.26c.42-.08.84-.12,1-.59S435.48,144.59,435.07,144.58Z" transform="translate(-327.3 -127.9)"/><path class="cls-35" d="M459.49,140.68a3.19,3.19,0,0,0,2.22-1.46.13.13,0,0,0,0-.18.58.58,0,0,0,0-.32c-.09-.32-.55-.28-.77-.15a2.67,2.67,0,0,0-.48.41,2,2,0,0,1-.8.38c-.4.14-.82.24-.92.73S459.09,140.72,459.49,140.68Z" transform="translate(-327.3 -127.9)"/><path class="cls-35" d="M441.69,143a2.49,2.49,0,0,0,.72,1.93.11.11,0,0,0,.13,0,.66.66,0,0,0,.25.05c.26,0,.3-.37.24-.56a1.81,1.81,0,0,0-.22-.44,1.36,1.36,0,0,1-.15-.66c0-.33,0-.66-.39-.82S441.73,142.67,441.69,143Z" transform="translate(-327.3 -127.9)"/><path class="cls-35" d="M436.16,153.34a2.46,2.46,0,0,0,1.72-1.13.12.12,0,0,0,0-.14.53.53,0,0,0,0-.25c-.07-.25-.42-.21-.6-.11a2.17,2.17,0,0,0-.37.31,1.38,1.38,0,0,1-.61.29c-.31.11-.64.19-.71.57S435.85,153.37,436.16,153.34Z" transform="translate(-327.3 -127.9)"/><path class="cls-35" d="M496.83,152.42a3.18,3.18,0,0,0-2.41,1.13.14.14,0,0,0,0,.17.72.72,0,0,0,0,.33c.05.33.5.35.74.25a2.3,2.3,0,0,0,.54-.33,1.88,1.88,0,0,1,.84-.26c.42-.08.84-.12,1-.59S497.23,152.44,496.83,152.42Z" transform="translate(-327.3 -127.9)"/><path class="cls-35" d="M503.2,158.06a3.14,3.14,0,0,0,2.22-1.45.15.15,0,0,0,0-.18.62.62,0,0,0,0-.33c-.1-.32-.55-.27-.77-.14a2.14,2.14,0,0,0-.49.41,2,2,0,0,1-.78.37c-.41.14-.83.25-.93.73S502.79,158.11,503.2,158.06Z" transform="translate(-327.3 -127.9)"/><path class="cls-35" d="M503.45,150.82a2.54,2.54,0,0,0,.71,1.94.13.13,0,0,0,.14,0,.49.49,0,0,0,.25,0c.25,0,.3-.36.24-.55a1.81,1.81,0,0,0-.22-.44,1.36,1.36,0,0,1-.15-.66c0-.33,0-.66-.39-.82S503.49,150.52,503.45,150.82Z" transform="translate(-327.3 -127.9)"/><path class="cls-35" d="M497.91,161.19a2.5,2.5,0,0,0,1.73-1.14.1.1,0,0,0,0-.13.53.53,0,0,0,0-.25c-.08-.25-.43-.22-.6-.12a1.89,1.89,0,0,0-.37.32,1.5,1.5,0,0,1-.61.29c-.32.11-.64.19-.72.57S497.61,161.22,497.91,161.19Z" transform="translate(-327.3 -127.9)"/><path class="cls-35" d="M481.12,159.45a3.12,3.12,0,0,0-2.41,1.12.13.13,0,0,0,0,.17.61.61,0,0,0,0,.33c0,.33.5.35.74.25a2.24,2.24,0,0,0,.53-.33,2.06,2.06,0,0,1,.84-.26c.42-.08.85-.12,1-.59S481.52,159.46,481.12,159.45Z" transform="translate(-327.3 -127.9)"/><path class="cls-35" d="M487.48,165.09a3.23,3.23,0,0,0,2.23-1.46.15.15,0,0,0,0-.18.76.76,0,0,0,0-.33c-.09-.32-.55-.27-.77-.14a2.09,2.09,0,0,0-.48.41,1.9,1.9,0,0,1-.8.37c-.4.14-.81.25-.91.74S487.08,165.13,487.48,165.09Z" transform="translate(-327.3 -127.9)"/><path class="cls-35" d="M487.73,157.84a2.5,2.5,0,0,0,.72,1.94.11.11,0,0,0,.13,0,.66.66,0,0,0,.25.05c.26,0,.3-.37.24-.56a1.81,1.81,0,0,0-.22-.44,1.48,1.48,0,0,1-.14-.66c0-.33,0-.66-.4-.82S487.77,157.54,487.73,157.84Z" transform="translate(-327.3 -127.9)"/><path class="cls-35" d="M482.2,168.21a2.48,2.48,0,0,0,1.72-1.13.11.11,0,0,0,0-.14.43.43,0,0,0,0-.25c-.07-.25-.42-.22-.59-.11a1.61,1.61,0,0,0-.38.31,1.38,1.38,0,0,1-.61.29c-.31.11-.63.19-.71.57S481.89,168.24,482.2,168.21Z" transform="translate(-327.3 -127.9)"/><path class="cls-35" d="M467.62,192.13a3.16,3.16,0,0,0-2.41,1.13.13.13,0,0,0,0,.17.72.72,0,0,0,0,.33c0,.33.5.35.74.25a2.52,2.52,0,0,0,.54-.33,1.84,1.84,0,0,1,.83-.26c.42-.08.85-.12,1-.59S468,192.15,467.62,192.13Z" transform="translate(-327.3 -127.9)"/><path class="cls-35" d="M474,197.78a3.22,3.22,0,0,0,2.23-1.46.15.15,0,0,0,0-.18.74.74,0,0,0,0-.33c-.1-.32-.55-.27-.78-.14a2.32,2.32,0,0,0-.48.41,1.92,1.92,0,0,1-.79.37c-.41.14-.82.25-.92.74S473.58,197.82,474,197.78Z" transform="translate(-327.3 -127.9)"/><path class="cls-35" d="M474.24,190.54a2.45,2.45,0,0,0,.71,1.93.11.11,0,0,0,.13,0,.55.55,0,0,0,.26,0c.25,0,.29-.36.23-.55a1.78,1.78,0,0,0-.21-.44,1.36,1.36,0,0,1-.15-.66c0-.33,0-.66-.4-.82S474.27,190.23,474.24,190.54Z" transform="translate(-327.3 -127.9)"/><path class="cls-35" d="M468.71,200.9a2.49,2.49,0,0,0,1.72-1.13.12.12,0,0,0,0-.14.71.71,0,0,0,0-.25c-.08-.25-.43-.21-.6-.11a1.56,1.56,0,0,0-.37.31,1.42,1.42,0,0,1-.62.29c-.31.11-.63.19-.71.57S468.39,200.93,468.71,200.9Z" transform="translate(-327.3 -127.9)"/><path class="cls-35" d="M489.47,176.22a3.15,3.15,0,0,0-2.41,1.12.16.16,0,0,0,0,.18.57.57,0,0,0,0,.32c.05.33.5.35.74.25a2,2,0,0,0,.54-.33,2,2,0,0,1,.84-.26c.42-.08.84-.12,1-.59S489.88,176.23,489.47,176.22Z" transform="translate(-327.3 -127.9)"/><path class="cls-35" d="M495.83,181.86a3.18,3.18,0,0,0,2.23-1.46.15.15,0,0,0,0-.18.59.59,0,0,0,0-.32c-.09-.33-.54-.28-.76-.15a2.43,2.43,0,0,0-.49.41,2,2,0,0,1-.79.38c-.4.14-.82.24-.92.73S495.44,181.9,495.83,181.86Z" transform="translate(-327.3 -127.9)"/><path class="cls-35" d="M496.09,174.62a2.45,2.45,0,0,0,.71,1.93.13.13,0,0,0,.14,0,.4.4,0,0,0,.25,0c.25,0,.3-.36.24-.55a3,3,0,0,0-.22-.44,1.34,1.34,0,0,1-.15-.66c0-.32-.05-.66-.4-.82S496.12,174.31,496.09,174.62Z" transform="translate(-327.3 -127.9)"/><path class="cls-35" d="M490.55,185a2.46,2.46,0,0,0,1.73-1.13.12.12,0,0,0,0-.14.71.71,0,0,0,0-.25c-.08-.25-.42-.21-.6-.11a1.85,1.85,0,0,0-.37.31,1.58,1.58,0,0,1-.61.3c-.32.1-.64.19-.72.56S490.25,185,490.55,185Z" transform="translate(-327.3 -127.9)"/></g></g></svg>