<svg id="Layer_1" data-name="Layer 1" xmlns="http://www.w3.org/2000/svg" xmlns:xlink="http://www.w3.org/1999/xlink" viewBox="0 0 2098.46 2390.87"><defs><style>.cls-1{fill:url(#linear-gradient);}.cls-2{fill:url(#linear-gradient-2);}.cls-3{fill:url(#linear-gradient-3);}.cls-4{fill:url(#linear-gradient-4);}.cls-5{fill:url(#linear-gradient-5);}.cls-6{fill:url(#linear-gradient-6);}.cls-7{fill:url(#linear-gradient-7);}.cls-8{fill:url(#linear-gradient-8);}.cls-9{fill:url(#linear-gradient-9);}.cls-10{fill:#313232;}</style><linearGradient id="linear-gradient" x1="3230.74" y1="2441.07" x2="2915.14" y2="1904.9" gradientUnits="userSpaceOnUse"><stop offset="0" stop-color="#b9292f"/><stop offset="1" stop-color="#5e0a0b"/></linearGradient><linearGradient id="linear-gradient-2" x1="1722.04" y1="2666.67" x2="1371.89" y2="2071.82" xlink:href="#linear-gradient"/><linearGradient id="linear-gradient-3" x1="3205.93" y1="2188.88" x2="3087.92" y2="1988.4" xlink:href="#linear-gradient"/><linearGradient id="linear-gradient-4" x1="2404.64" y1="2315.88" x2="1989.97" y2="1611.41" xlink:href="#linear-gradient"/><linearGradient id="linear-gradient-5" x1="2501.94" y1="2149.93" x2="2247.3" y2="1717.33" xlink:href="#linear-gradient"/><linearGradient id="linear-gradient-6" x1="2169.03" y1="1206.33" x2="2439.75" y2="1201.6" gradientUnits="userSpaceOnUse"><stop offset="0" stop-color="#cacbcc"/><stop offset="1" stop-color="#838585"/></linearGradient><linearGradient id="linear-gradient-7" x1="2375.85" y1="1284.72" x2="2578.88" y2="1281.17" xlink:href="#linear-gradient-6"/><linearGradient id="linear-gradient-8" x1="2041.78" y1="1395.79" x2="2274.66" y2="1391.73" xlink:href="#linear-gradient-6"/><linearGradient id="linear-gradient-9" x1="1849.52" y1="2804.25" x2="1686.85" y2="2397.41" xlink:href="#linear-gradient"/></defs><path class="cls-1" d="M2824.74,2511.94c9.35-18.21,18.54-36.15,27.1-54.25s16.58-36.22,24-54.51c3.63-9.16,7.31-18.25,10.64-27.48s6.62-18.42,9.76-27.65c6.06-18.55,11.84-37.1,16.74-55.91q3.89-14,7.27-28.21c1.12-4.72,2.23-9.45,3.26-14.21s2.18-9.47,3.25-14.21c2.07-9.51,4-19.05,5.85-28.65s3.77-19.18,5.51-28.83l5.07-29.09,5-29.33c3.17-19.68,6.75-39.46,10.47-59.51s8.09-40.26,13.22-60.69a478.92,478.92,0,0,1,19.76-61.42c1-2.56,2.07-5.11,3.15-7.66s2.15-5.1,3.35-7.62c2.33-5,4.85-10.07,7.45-15a287.47,287.47,0,0,1,17.54-29.22,242.69,242.69,0,0,1,21.56-26.91c4-4.22,7.42-8.21,11.43-12.33s8-8.08,12.2-12c16.84-15.47,36.43-29.39,59.11-38.9a161.49,161.49,0,0,1,35.74-10.37,150.28,150.28,0,0,1,37.66-1.46c25.14,2.13,48.91,10.83,69.31,23s37.89,27.86,52.65,45a275.77,275.77,0,0,1,36.66,56,309.15,309.15,0,0,1,22.79,61.78c10.77,42.44,12.51,87.2,4.08,130.33a271.84,271.84,0,0,1-20.29,62.49,262.28,262.28,0,0,1-34.83,55.3c-27.07,33.31-60.37,60.72-96,82.31s-73.3,38.44-110.76,53.53c-18.72,7.6-37.41,14.88-55.75,22.55s-36.41,15.62-53.4,25.08-32.91,20.46-45.69,34.37a102.49,102.49,0,0,0-25.43,49.89c-3.86,18.85-2.89,38.83.42,58.37s9.08,38.89,15.88,57.8c-8.65-18.14-16.24-36.91-21.46-56.59s-8-40.35-5.58-61.29a113.71,113.71,0,0,1,8-30.68,120,120,0,0,1,16.23-27.55c13.17-16.89,29.95-30.14,47.25-41.49s35.51-21,53.7-30,36.43-17.55,54.42-26.25,35.75-17.53,53-26.95a552.61,552.61,0,0,0,49.86-30.52,388.73,388.73,0,0,0,44.74-36,307,307,0,0,0,37.47-42.26,228,228,0,0,0,27-47.77,225.6,225.6,0,0,0,14.55-52.56c5.42-36.07,2.29-73.4-7.91-108.46s-27.83-68-51.54-93.86c-11.8-12.9-25.13-23.94-39.44-31.87s-29.45-12.69-44.45-13.46a92.88,92.88,0,0,0-44.13,8.71c-14.25,6.45-27.84,16.25-40.22,28.24q-4.67,4.49-9.1,9.36a119.7,119.7,0,0,0-8.58,10.18,231.68,231.68,0,0,0-26,44.91c-1.76,4.06-3.48,8.15-5.05,12.35-.83,2.08-1.65,4.17-2.42,6.3s-1.59,4.21-2.32,6.37c-6.1,17.11-10.67,35.29-15.27,53.8s-8.12,37.73-12.14,57.1-7.51,39.13-11.81,58.92l-6.43,29.82c-2.22,10-4.74,19.91-7.24,29.89a815.89,815.89,0,0,1-38.94,118.06C2934.07,2387.52,2886.52,2458.32,2824.74,2511.94Z" transform="translate(-1449.35 -715.52)"/><path class="cls-2" d="M1456.23,2031.42c.48,7.48.92,14.94,1.53,22.39s1.07,14.88,1.72,22.3c1.29,14.86,2.59,29.67,4.13,44.45,3,29.57,6.5,59,10.74,88.29,8.42,58.56,19.43,116.57,34.66,173.32s34.6,112.25,60.67,164.69,59,101.56,101.13,144.28c-24.92-16.69-47.52-37.11-67.71-59.72a471.67,471.67,0,0,1-53.33-73.73c-30.89-52.44-52.93-109.66-68.59-168.06s-25-118.38-29.29-178.38c-2.1-30-2.94-60.09-2.36-90.11.32-15,.89-30,2-45,.57-7.48,1.17-14.95,1.9-22.42S1455.05,2038.83,1456.23,2031.42Z" transform="translate(-1449.35 -715.52)"/><path class="cls-3" d="M3102.29,2026s60.05-155.28,155.29-64.18c89.09,85.22-87,290.9-199.8,296.08C3057.78,2257.91,3054.67,2167.84,3102.29,2026Z" transform="translate(-1449.35 -715.52)"/><path class="cls-4" d="M2106.25,2175.51c-107.58-9.53-352.68-34.05-374.37-165.76-20.75-110.87,143.81-181,143.81-181,191.24-95,581.83-77.56,737-52.6-205-58.06-496.94-83.44-881.94,15.46,0,0-300.18,82.1-259.09,218.92,0,0,20.55,114.94,219.15,84.44,0,0-51.36,187.65,356.11,161.85,379.42-24,812.22-196.5,919.78-273.16C2805.09,2046,2374.64,2199.27,2106.25,2175.51Z" transform="translate(-1449.35 -715.52)"/><path class="cls-5" d="M2889.89,1921s-599.28-243-949.88-22.52c-90.08,56.65-47.93,145.12,32.8,178.37C2144.28,2147.46,2588.79,2112,2889.89,1921Z" transform="translate(-1449.35 -715.52)"/><path class="cls-6" d="M2312.87,1690.31a135.34,135.34,0,0,0,10.47-14.77c1.64-2.51,3.08-5.16,4.62-7.7s2.88-5.24,4.22-7.9a234.85,234.85,0,0,0,13.75-32.71c1-2.75,1.74-5.63,2.63-8.42l1.28-4.2,1.1-4.26c.71-2.84,1.5-5.65,2.15-8.49l1.75-8.58c.65-2.84,1-5.74,1.51-8.61s1-5.73,1.35-8.61l.93-8.66.47-4.32c.15-1.44.18-2.9.27-4.34a341.87,341.87,0,0,0-2.42-69.19,435.35,435.35,0,0,0-14.71-67.71c-.39-1.39-.74-2.79-1.18-4.17l-1.36-4.14-2.73-8.26-2.71-8.26c-1-2.74-2.05-5.44-3.07-8.17l-6.12-16.31-6.8-16.1-3.41-8-3.76-7.92c-2.51-5.27-4.95-10.57-7.4-15.86s-5.32-10.43-8-15.64l-4-7.8-2-3.9-2.16-3.83c-2.87-5.12-5.79-10.21-8.6-15.36l-4.24-7.7-4.54-7.56L2251.69,1232c-6.37-10.69-12.75-21.38-18.48-32.51L2224.4,1183c-2.79-5.6-5.45-11.3-8.17-17-10.86-22.61-19.9-46.25-28-70.26-3.47-12.25-7.43-24.3-10-36.86l-2.17-9.34-1.08-4.66-.83-4.75c-1.12-6.33-2.15-12.67-3.17-19-3.27-25.55-4.58-51.6-2.19-77.63l1.06-9.75c.39-3.25.6-6.5,1.29-9.72l1.76-9.69c.64-3.21,1.07-6.46,1.91-9.64,1.72-6.36,3.36-12.72,5.18-19,2.19-6.23,4.34-12.44,6.59-18.61,2.67-6,5.24-12.09,8.06-18,3.18-5.77,6.24-11.59,9.55-17.24l5.38-8.25,2.69-4.11a46.6,46.6,0,0,1,2.82-4l6-7.77c2-2.55,3.94-5.2,6.22-7.55A236.05,236.05,0,0,1,2255.07,773l7.54-6,1.89-1.5,2-1.38,4-2.73,7.9-5.45c2.69-1.73,5.48-3.3,8.23-4.92a258.2,258.2,0,0,1,69.87-28,264.13,264.13,0,0,1,73.25-7.22,342.08,342.08,0,0,0-68.61,21.2,271.77,271.77,0,0,0-60,35.54,228.46,228.46,0,0,0-46.55,49,81,81,0,0,0-4.57,7l-4.42,7.07a34.75,34.75,0,0,0-2,3.62l-1.94,3.69-3.87,7.34c-2.33,5-4.4,10.17-6.63,15.2l-5.48,15.61-4.3,16-3.09,16.27c-.79,5.47-1.34,11-2,16.47-.43,2.73-.41,5.54-.58,8.31l-.39,8.32a344.83,344.83,0,0,0,5.19,66.92,483.34,483.34,0,0,0,17.35,66.07c7.65,21.67,16,43.21,26.27,64.12,2.48,5.26,4.89,10.55,7.43,15.78l8.11,15.53,4,7.76,2,3.88,2.2,3.81c2.91,5.08,5.87,10.14,8.72,15.26l18,31.88,4.58,8.11,4.3,8.29c2.89,5.51,5.67,11.09,8.49,16.63l2.11,4.16,2,4.25,3.91,8.5c2.6,5.68,5.25,11.32,7.78,17s4.78,11.56,7.09,17.37l3.49,8.71,3.16,8.86,6.25,17.73c1.87,6,3.71,12,5.48,18,.87,3,1.82,6,2.61,9l2.27,9.18,2.25,9.16,1.13,4.58c.35,1.53.62,3.1.94,4.64,1.22,6.19,2.44,12.38,3.58,18.58.95,6.24,1.76,12.52,2.64,18.77l.63,4.69.42,4.73.83,9.45c.69,6.27.74,12.63.93,19a328.36,328.36,0,0,1-6.49,75.48,259.81,259.81,0,0,1-25.6,70.72,212.25,212.25,0,0,1-20.48,31.13c-1.93,2.42-4,4.76-5.94,7.11s-4.08,4.62-6.3,6.77A113.14,113.14,0,0,1,2312.87,1690.31Z" transform="translate(-1449.35 -715.52)"/><path class="cls-7" d="M2458.1,1633.78a122.35,122.35,0,0,0,14.92-21.39,171.62,171.62,0,0,0,10.95-23.27,195.27,195.27,0,0,0,7.49-24.31c.55-2,.92-4.12,1.35-6.18s.87-4.13,1.24-6.19l.94-6.25c.33-2.07.64-4.15.8-6.25,3.73-33.43,0-67.12-8.22-99.64a493,493,0,0,0-35.68-94.63l-5.76-11.38-2.83-5.7-3.06-5.62-12.44-22.85c-4.29-7.94-8.58-15.87-12.38-24.11l-5.88-12.25c-1.85-4.14-3.6-8.35-5.4-12.52a452.85,452.85,0,0,1-18.14-51.73c-2.14-9-4.64-17.82-6.15-27l-1.28-6.82-.64-3.41-.46-3.47c-.61-4.61-1.17-9.23-1.72-13.85-1.58-18.6-1.74-37.5.79-56.27l1.07-7c.38-2.34.63-4.68,1.22-7,1.09-4.64,2-9.29,3.26-13.88,1.43-4.55,2.82-9.11,4.33-13.62l5.34-13.27a170,170,0,0,1,31.53-47.23,172.6,172.6,0,0,1,44.46-33.77,186.89,186.89,0,0,1,51.45-18.15,192.31,192.31,0,0,1,53.26-3A245.62,245.62,0,0,0,2522.13,945a197.24,197.24,0,0,0-44.49,23.9,165.46,165.46,0,0,0-35.2,34.1,55.13,55.13,0,0,0-3.52,4.93l-3.42,5c-2.19,3.37-4.08,6.94-6.14,10.36-1.84,3.57-3.5,7.23-5.26,10.8l-4.45,11.14-3.6,11.44-2.73,11.69c-.75,3.94-1.31,7.92-2,11.87a59.31,59.31,0,0,0-.67,6l-.54,6a249.13,249.13,0,0,0,1.72,48.61,347.53,347.53,0,0,0,10.54,48.37,431.41,431.41,0,0,0,17.06,47.23c1.64,3.88,3.21,7.78,4.89,11.65l5.4,11.49c1.85,3.81,3.48,7.7,5.52,11.44l5.86,11.32,12.07,23.63,3.07,6,2.86,6.13,5.64,12.3c1.94,4.07,3.51,8.33,5.27,12.49l5.11,12.57,4.6,12.8,2.26,6.4,2,6.52,4,13c1.16,4.4,2.31,8.81,3.41,13.23.53,2.22,1.13,4.41,1.61,6.63l1.36,6.72,1.36,6.7c.46,2.23.9,4.47,1.21,6.74,6,36,6.26,73.56-2.76,109.16a187.76,187.76,0,0,1-20.7,50.42C2484.19,1609.27,2472.52,1623.48,2458.1,1633.78Z" transform="translate(-1449.35 -715.52)"/><path class="cls-8" d="M2156.47,1653.06c12.61-4.13,24.62-9.14,35.32-15.57a102.72,102.72,0,0,0,14.76-10.86,43.18,43.18,0,0,0,3.28-3.05c1.05-1.06,2.12-2.06,3.13-3.13a84.25,84.25,0,0,0,5.57-6.76c14-18.56,19-41.63,19.12-65.18s-4.22-47.84-10.5-71.68c-3.22-11.92-6.77-23.84-11-35.61s-8.47-23.57-13.33-35.19q-7.05-17.52-15.11-34.75c-5.18-11.56-10.85-22.93-16.53-34.33-11.36-22.8-23.66-45.23-36.3-67.61s-26-44.49-39.56-66.62l-20.67-33.21c-7-11.07-14.05-22.15-21-33.5,21,16.23,40.29,34.44,58.63,53.58a683.86,683.86,0,0,1,51.29,60.9q5.94,8,11.74,16.15t11.22,16.54c7.45,11.07,14.33,22.52,21.08,34.07s13,23.43,19,35.43q8.82,18.13,16.6,36.84c5,12.54,9.73,25.26,13.83,38.24a408.87,408.87,0,0,1,10.3,39.73,301.11,301.11,0,0,1,5.56,41.22,215.48,215.48,0,0,1-1.2,42.41c-.52,3.56-1,7.11-1.78,10.66-.66,3.54-1.56,7.07-2.49,10.58a124.47,124.47,0,0,1-7.46,20.66c-1.45,3.37-3.33,6.61-5.06,9.85a101.84,101.84,0,0,1-6.11,9.29c-2.11,3-4.61,5.8-7,8.6a97.28,97.28,0,0,1-7.93,7.68,104,104,0,0,1-8.63,6.71c-1.49,1-3.05,1.95-4.56,2.91a43.22,43.22,0,0,1-4.68,2.65,101.09,101.09,0,0,1-19.52,7.9A123.71,123.71,0,0,1,2156.47,1653.06Z" transform="translate(-1449.35 -715.52)"/><path class="cls-9" d="M1581.3,2440.25c19.93,38.38,41,75.17,66.18,108.81A569.63,569.63,0,0,0,1732,2641a490.79,490.79,0,0,0,103.32,69.23,421.32,421.32,0,0,0,58.07,23.67,374,374,0,0,0,62.22,13.92c-21.43,3.15-43.54,2.54-65.28-.54a310.57,310.57,0,0,1-63.77-16.9c-41.29-15.71-79.51-39.33-112.85-68.28a420,420,0,0,1-84.49-100.88c-2.78-4.73-5.62-9.42-8.18-14.26s-5.15-9.66-7.62-14.53l-7-14.84c-2.24-5-4.25-10-6.34-15.07A374.43,374.43,0,0,1,1581.3,2440.25Z" transform="translate(-1449.35 -715.52)"/><path class="cls-10" d="M2459.16,2651.92q-56.46,0-95-25.88t-38.58-65.39q0-49.86,64.92-99.74,11.3-8.47,16.94-8.47c3.76,0,5.64,1.26,5.64,3.76q0,9.42-15.05,15.06-52.71,42.33-52.69,85.62,0,31,28.23,52.23t70.57,21.17q92.2,0,174.07-88.45,42.34-46.1,42.34-106.33t-45.16-89.39q-37.65-26.33-101.62-26.34-92.23,0-185.37,46.1-114.81,55.53-207.48,172.66t-92.68,225.36q0,85.64,58.34,132.2t144.9,46.58q98.81,0,193.84-48,72.43-37.62,125.14-96,15-16.93,23.53-16.94,5.64,0,5.64,9.88t-10.35,20.23q-49.89,52.71-144,101.62-115.74,61.15-232.89,61.16t-174.54-77.15q-38.59-50.82-38.58-121.39,0-31,7.53-66.8,25.39-120.43,133.61-234.3,78.09-81.86,185.37-127.5T2509,2301.89q50.82,0,88.45,12.23Q2700,2346.11,2700,2443q0,59.28-34.81,102.56Q2578.65,2651.94,2459.16,2651.92Z" transform="translate(-1449.35 -715.52)"/><path class="cls-10" d="M2946.57,2632.16l13.17-2.82q10.35,0,19.76,8.47t9.41,13.17q0,4.71-58.34,90.8t-58.33,120a17.38,17.38,0,0,0,.94,5.64q4.7,21.66,20.7,21.65,48.91,0,178.78-161.84c1.88-2.5,4.07-3.77,6.58-3.77s3.77,2.35,3.77,7.06-2.83,10.82-8.47,18.35q-120.47,160.89-183.49,160.9a45,45,0,0,1-16-2.83q-41.42-16-41.4-62.1a139.26,139.26,0,0,1,3.76-32l-58.34,56.46q-55.53,48.93-80.45,48.93t-47.52-16q-25.4-18.81-25.4-49.87,0-68.67,96-164.19t176-95.51q31.05,0,41.4,21.64c1.88,5,3.44,9.26,4.71,12.7S2945.94,2632.16,2946.57,2632.16Zm-281.34,231.47q0,33.87,23.52,33.88,54.57,0,148.67-119.51l99.74-137.37q-7.54-13.17-24.46-13.18-57.4,0-152.44,88.92T2665.23,2863.63Z" transform="translate(-1449.35 -715.52)"/><path class="cls-10" d="M3404.8,2453.38q0,29.17-16.94,29.17c-3.14,0-6.28-2.5-9.41-7.53q-8.46-15-28.23-15.05-43.29,0-80.92,62.1-7.55,12.24-47.05,88.45h11.3q102.54,0,136.43-2.83c2.5.64,3.77,1.89,3.77,3.77q0,7.54-66.81,20.7-63,10.37-103.5,17.88-29.18,60.23-70.57,143-84.69,158.08-112,196.66-81.85,116.66-160,116.68-27.27,0-47.51-23.06t-21.18-51.28q2.82-11.29,8.47-11.29c1.88,0,3.15,2.19,3.77,6.59q5.64,24.45,18.82,37.63t27.28,13.18q80,0,145.85-98.8,37.62-56.46,102.56-203.25l50.81-122.32q-94.1-.93-94.09-22.58,0-9.41,8.94-16c5.95-4.38,11.13-6.59,15.52-6.59l88.45,1.89q92.21-205.12,169.37-205.13,29.16,0,59.28,28.23Q3404.8,2441.17,3404.8,2453.38Z" transform="translate(-1449.35 -715.52)"/><path class="cls-10" d="M3296.58,2925.73a59.3,59.3,0,0,1-18.82-2.82q-60.21-16.93-60.22-67.75,0-65.85,82.8-152.43T3449,2616.16q21.64,0,35.29,11.77t13.64,28.69q0,52.71-79.51,100.68t-129.38,48a41.18,41.18,0,0,1-13.17-1.88,108.86,108.86,0,0,0-14.12,53.64q0,48.93,46.58,48.92t120.91-63q57.39-46.09,97.86-97.86,8.47-11.3,14.59-11.29t6.11,5.65q0,5.64-7.53,16Q3489.47,2822.25,3418,2874T3296.58,2925.73Zm177.84-271q0-11.29-24-11.29t-68.21,36.7q-59.28,48.93-92.22,102.56a38.34,38.34,0,0,0,12.24,1.88q35.74,0,95.5-38.11t74.81-83.27A23.14,23.14,0,0,0,3474.42,2654.74Z" transform="translate(-1449.35 -715.52)"/></svg>