<svg id="Capa_1" data-name="Capa 1" xmlns="http://www.w3.org/2000/svg" viewBox="0 0 1621.92 1693.51"><defs><style>.cls-1{fill:#d8e7ea;}.cls-2{fill:#c1dde1;}.cls-3{fill:#fff;}.cls-4{fill:#ec6265;}.cls-5{fill:#d85359;}.cls-6{fill:#d9e7eb;}.cls-7{fill:#f5ada6;}.cls-8{fill:#e9a39c;}.cls-9{fill:#eaf2f5;}.cls-10{fill:#fad4d6;}.cls-11{fill:#c84323;}.cls-12{fill:#f7b854;}.cls-13{fill:#df9c3b;}.cls-14{fill:#9f331e;}.cls-15{fill:#b74325;}.cls-16{fill:#d31a4b;}.cls-17{fill:#bc1549;}.cls-18{fill:#ec6694;}.cls-19{fill:#ffe474;}.cls-20{fill:#b8a5d0;}.cls-21{fill:#e4daed;}.cls-22{fill:#fbdb35;}.cls-23{fill:#edc622;}.cls-24{fill:#b0c611;}.cls-25{fill:#a6b21b;}.cls-26{fill:#d6de8b;}.cls-27{fill:#c6866c;}.cls-28{fill:#fdeb9d;}.cls-29{fill:#eec792;}.cls-30{fill:#fbd7a2;}.cls-31{fill:#9bbf3b;}.cls-32{fill:#7e9b2a;}</style></defs><path class="cls-1" d="M1871.61,1614.5c0,161.77-363.07,292.91-810.94,292.91s-811-131.14-811-292.91,363.1-292.92,811-292.92,810.94,131.14,810.94,292.92" transform="translate(-249.69 -213.9)"/><path class="cls-2" d="M1573,1387.44c45.2,20.22,89.13,42.4,130.73,67.62,27.41,16.6,53.73,34.93,75.7,56.62,17.46,17.22,36.33,38.74,41.24,61.52,3.76,17.43,1,35.8-3.5,52.93a206.81,206.81,0,0,1-26.55,59.56c-19.31,29.76-53.46,64.82-98.68,58.42a1.2,1.2,0,0,1-1-1.12,28.87,28.87,0,0,0-1.67-9.15c-1-2.37.49-1.67-2.89-1.88-4.39-.27-10.3,2.27-14.06,3.88-17.36,7.43-28.75,22-40.94,34.18-13.54,13.59-31.25,22.52-50.28,29.81A1006.83,1006.83,0,0,1,1434,1843.39c-25.65,5.55-51.59,9.38-77.59,13.42-25.44,4-50.86,8.17-76.63,10.2-24.61,2-48.72.35-73.3-1a223.58,223.58,0,0,0-31.91.11c-13.46,1.16-26.15,4.65-39.23,7.31-100.49,20.45-205.72,5.58-306.57-5-98.41-10.28-198.22-23.64-290.76-54.79-43.47-14.64-85.56-32.43-118.08-61.44-29.36-26.18-51.17-57.57-79.78-84.33-3.37,7.49-2.38,15.15.91,22.69.59,1.36-1.68,1.85-2.54.9-25.25-28-40.82-63-43.18-98.16-2.5-37.23,9.2-71.07,29.35-102-48.11,37.44-75,79.16-75,123.17,0,161.77,363.1,292.91,811,292.91s810.94-131.14,810.94-292.91c0-91.59-116.36-173.34-298.59-227.06" transform="translate(-249.69 -213.9)"/><path class="cls-3" d="M1745,1593.76c0,122.69-306.37,222.17-684.31,222.17s-684.33-99.48-684.33-222.17,306.38-222.17,684.33-222.17S1745,1471.06,1745,1593.76" transform="translate(-249.69 -213.9)"/><path class="cls-4" d="M1689.55,735.7c-27,14.37-58,22.2-88.12,27.4q-11.06,1.89-22.16,3.39l-1.8.24-3,.4-7,.85c-5,.58-9.9,1.11-14.84,1.62-24.36,2.44-48.79,4-73.23,5-33.17,1.36-66.39,1.69-99.6,1.36-39-.39-78.15-1.34-117.08-4.41-44.88-3.54-91.5-8.79-133.94-24.74-1.39-.51-2.78-1.06-4.16-1.61l-1.42-.58-1.26-.54c-2.39-1-4.74-2.14-7.06-3.3a93.81,93.81,0,0,1-10.1-5.83l-1.71-1.17-.84-.62-.47-.33c-.54-.48-1.08-1-1.21-1.12a33.17,33.17,0,0,0-2.39-2.48h-.13c-4.8-4.48-14.85-2.59-14.06,5.42l20.73,211.84q10.35,105.91,20.73,211.84t20.73,211.84q5.21,53,10.37,105.91,1.3,13.25,2.59,26.49c.79,8,1.13,16.42,3.48,24.18,4.44,14.65,16,23.28,30.08,28,14.75,4.89,30.72,6.94,46,9.44q25.8,4.23,51.8,7a865.84,865.84,0,0,0,103.23,4.61h.09a874.45,874.45,0,0,0,179.09-16.29c13.75-2.71,28.09-5.69,39-15.18,12.07-10.54,12.84-26.76,14.28-41.58q5.21-53,10.43-105.93,10.29-104.19,20.68-208.37t20.75-208.54q10.42-105,20.75-210.09,1.13-11.38,2.23-22.77c3.59-6-3.49-15.41-11.34-11.24" transform="translate(-249.69 -213.9)"/><path class="cls-5" d="M1502.38,1481.62a79.17,79.17,0,0,0-13.19-6.58c-24.51-9.93-50.53-17.67-72.4-33-22.31-15.64-36-38.39-43.76-64.18s-11.72-52.62-20.59-78.09c-4.24-12.17-9.68-24.1-17.48-34.43a71.58,71.58,0,0,0-31.33-23.81c-11.88-4.71-24.84-7.69-35.15-15.61-11.85-9.1-17.45-23-21.21-37-4.37-16.28-6.2-33.14-7.84-49.87-1.71-17.61-3.66-35.13-6.13-52.66-5.47-38.66-11.66-77.27-20.51-115.32-4.35-18.7-9.35-37.27-15.23-55.55a171.09,171.09,0,0,0-11.51-27.79c-4.16-7.83-9.28-17.21-16.93-22.24a1.81,1.81,0,0,1-3,0,7.88,7.88,0,0,0-1.78-2c-7.29-1-11.88,8.44-14.33,15-.78,2-4,1.23-3.45-.79A75.4,75.4,0,0,0,1136,914.52c-.33,18.32,4.1,36.35,5.8,54.52,3.8,40.76,7.12,81.59,10.8,122.37,3.61,40.18,7.58,80.32,12.73,120.32,5.28,41,11.08,81.82,16.76,122.7,2.52,18.12,5.72,36.39,7,54.64.9,12.42,1,24.89,2.1,37.31,1.13,13,3,26.46,8.53,38.39s14.63,19.83,26.78,24.38c27.6,10.33,58.07,6.11,86.44,12.83,32,7.56,65.31,15.48,98.39,13.78a398.78,398.78,0,0,0,48.74-5.78,246.73,246.73,0,0,0,26-5.86c6.42-1.87,13.18-4,18.72-7.85,3.06-2.13,5.81-5.16,3.74-8.83-1.39-2.48-3.94-4.31-6.26-5.82" transform="translate(-249.69 -213.9)"/><path class="cls-5" d="M1689.55,735.7c-27,14.37-58,22.2-88.12,27.4q-11.06,1.89-22.16,3.39l-1.8.24-3,.4-7,.85c-5,.58-9.9,1.11-14.84,1.62-24.36,2.44-48.79,4-73.23,5-33.17,1.36-66.39,1.69-99.6,1.36-39-.39-78.15-1.34-117.08-4.41-44.88-3.54-91.5-8.79-133.94-24.74-1.39-.51-2.78-1.06-4.16-1.61l-1.42-.58-1.26-.54c-2.39-1-4.74-2.14-7.06-3.3a93.81,93.81,0,0,1-10.1-5.83l-1.71-1.17-.84-.62-.47-.33c-.54-.48-1.08-1-1.21-1.12a33.17,33.17,0,0,0-2.39-2.48h-.13c-4.8-4.48-14.85-2.59-14.06,5.42q2.16,22.27,4.35,44.56a96.92,96.92,0,0,0,14.43,8.88c17.67,8.83,36.59,15.18,55.68,20.09,40,10.3,84.09,16,125,7.78a1.76,1.76,0,0,1,.94,3.39c-4.67,1.75-16.73,6.23-15.63,13s11.64,8.76,17.2,9.05a112.15,112.15,0,0,0,20.94-1.38c13.51-1.86,26.91-3.8,40.48-5.33,38.39-4.34,76.6-10,115-14.05,16.51-1.77,33-3.11,49.59-4.3,14.35-1.06,28.8-1.93,43.18-1,11.3.7,25.8,2,34.6,10,8.27,7.48,7.79,19.83,14.92,28,2,2.33,5.1,5.17,8.43,4.88,2.22-.19,4.24-1.62,6.25-2.49,4.71-2,8.63-1.26,12.65,1.85,8.6,6.65,8,20.18,7.86,29.95-.1,7.38.62,14.75.59,22.14,0,9.45-.61,18.88-1.38,28.29-1.53,18.83-3.94,37.6-4.74,56.49-1.58,37.66-5.51,74.84-10.57,112.19-4.12,30.23-9.17,60.55-11,91-1.46,23.85-2.17,47.81-5.81,71.45-2.88,18.59-7.28,42.22-23,54.65a1.8,1.8,0,0,1-3-.79,88.53,88.53,0,0,0-9.21-16.6,28.07,28.07,0,0,0-2.66,12.7c0,12.42,3.76,24.6,6.37,36.63,2.56,11.85,3.38,24.1,4.41,36.16,2.47,29.13,3.47,59.27-3.23,87.95-2.69,11.5-6.46,22.87-13.65,32.37a70.78,70.78,0,0,1-23,19.31c-18.8,10.19-40.58,13.77-61.64,15.79-31.83,3.07-64,4-96,4.17a1018.62,1018.62,0,0,1-103.78-4.73c-23.06-2.3-46-5.77-68.89-9.06-15.46-2.21-30.88-4.8-46.12-8.12,5,12.94,16,20.76,29.09,25.12,14.75,4.89,30.72,6.94,46,9.44q25.8,4.23,51.8,7a865.84,865.84,0,0,0,103.23,4.61h.09a874.45,874.45,0,0,0,179.09-16.29c13.75-2.71,28.09-5.69,39-15.18,12.07-10.54,12.84-26.76,14.28-41.58q5.21-53,10.43-105.93,10.29-104.19,20.68-208.37t20.75-208.54q10.42-105,20.75-210.09,1.13-11.38,2.23-22.77c3.59-6-3.49-15.41-11.34-11.24" transform="translate(-249.69 -213.9)"/><path class="cls-6" d="M1704.81,735.72c-.87-10.08-10.16-16.6-18.69-20.55-13.56-6.25-28.21-9.87-42.77-12.89-47.78-9.91-97-13.76-145.6-16.37-63-3.39-126.21-3.64-189.23-1-51.38,2.13-103.11,5.8-153.79,14.82-15.69,2.8-31.55,6-46.54,11.52-9.31,3.41-21.41,8.09-26.23,17.57-5.62,11,1.31,21,10.67,26.9,10.94,6.85,24.3,10.35,36.7,13.37,19.76,4.82,39.93,7.87,60.08,10.51,25.49,3.33,51.12,5.62,76.79,7.32,62.46,4.15,125.22,4.94,187.81,3.07,53.92-1.62,108-5,161.41-13.22,17.52-2.7,35.11-5.85,52.11-11,10.73-3.21,23.18-7.11,31.29-15.29a19.94,19.94,0,0,0,6-12,7,7,0,0,0,.1-1.45l-.09-1.31" transform="translate(-249.69 -213.9)"/><path class="cls-3" d="M1664.87,733.73l-.08.82c-.41,2.59-2.38,4.9-5.21,6.75-7.08,4.61-17.94,6.81-27.28,8.61-14.83,2.87-30.17,4.64-45.45,6.16-46.53,4.61-93.72,6.52-140.74,7.43q-28.8.56-57.61.54-20.48,0-40.92-.35-32.64-.53-65.21-1.91c-22.38-1-44.72-2.25-67-4.13-17.56-1.48-35.12-3.19-52.36-5.9-10.82-1.71-22.46-3.68-32-7.52-8.17-3.29-14.22-8.91-9.3-15.12,4.18-5.34,14.75-8,22.87-9.89,13.05-3.1,26.89-4.91,40.56-6.47,44.19-5.07,89.28-7.15,134.09-8.34q17-.46,34-.71,20.51-.29,41-.29,45,0,90,1.56c42.42,1.48,85.3,3.65,126.94,9.22,12.71,1.69,25.47,3.72,37.3,7.24,7.44,2.23,15.55,5.89,16.3,11.58l.08.72" transform="translate(-249.69 -213.9)"/><path class="cls-3" d="M1210.8,1415.39a18.19,18.19,0,0,0-4.77-11.54,16.62,16.62,0,0,0-11.54-4.77c-4.21.19-8.6,1.58-11.53,4.77-2.7,3-5.32,7.37-4.77,11.54q5,38.73,10,77.48a12.33,12.33,0,0,0,1.4,6.28,12.5,12.5,0,0,0,3.37,5.26,16.62,16.62,0,0,0,11.54,4.77c4.22-.2,8.59-1.58,11.52-4.77,2.73-3,5.33-7.37,4.78-11.54q-5-38.73-10-77.48" transform="translate(-249.69 -213.9)"/><path class="cls-3" d="M1188.43,1381.32l4.34-.58a16.4,16.4,0,0,0,7.2-4.19l2.54-3.3a16.26,16.26,0,0,0,2.24-8.23q-.74-7.1-1.49-14.19a12.23,12.23,0,0,0-1.4-6.28,14.66,14.66,0,0,0-8.61-8.62,12.41,12.41,0,0,0-6.3-1.41l-4.33.59a16.16,16.16,0,0,0-7.19,4.19c-.85,1.1-1.71,2.2-2.56,3.31a16.33,16.33,0,0,0-2.23,8.22q.75,7.1,1.48,14.19a18.13,18.13,0,0,0,4.77,11.53,18.33,18.33,0,0,0,11.54,4.77Z" transform="translate(-249.69 -213.9)"/><path class="cls-3" d="M1676.16,788.23a16.61,16.61,0,0,0-11.55-4.78c-4.21.19-8.59,1.58-11.53,4.78l-2.54,3.3a16.22,16.22,0,0,0-2.23,8.23q-2.44,19.38-4.88,38.76c-.48,3.84,2.17,8.92,4.78,11.53a16.59,16.59,0,0,0,11.54,4.78c4.21-.19,8.58-1.58,11.52-4.78.85-1.1,1.71-2.2,2.55-3.3a16.33,16.33,0,0,0,2.24-8.23l4.86-38.76C1681.42,795.92,1678.76,790.83,1676.16,788.23Z" transform="translate(-249.69 -213.9)"/><path class="cls-7" d="M1438,994l-1.25.17a3.34,3.34,0,0,0-1.56.83l-.83.83-.6,1-.32,1.17,0,1.22-.71,1.1a10.52,10.52,0,0,0-1.24,4.62l.17,1.23.48,1.1.72,1a3.4,3.4,0,0,0,1.48,1l1.18.32h1.23l1.16-.32a3.59,3.59,0,0,0,1.5-1l.26-.29,1.11.14h.3a8.87,8.87,0,0,0,1.45-.2l.25,0,1.23-.53a6.64,6.64,0,0,0,1.28-1l.31-.32a7.6,7.6,0,0,0,.92-1.27,7.12,7.12,0,0,0,.59-1.49l.18-1.36v-.24a5.59,5.59,0,0,0-.46-2.06l-.32-.71-.06-.08-.77-1a9.52,9.52,0,0,0-2.18-1.45c-1-.58-2.08-1.18-3.12-1.77l-1.1-.46L1438,994" transform="translate(-249.69 -213.9)"/><path class="cls-8" d="M1600.71,1464h-.21a13.5,13.5,0,0,0-2,.25l-.91.26a14.18,14.18,0,0,0-1.91.84,15.11,15.11,0,0,0-1.65,1.2l-.74.68a10.3,10.3,0,0,0-1.72,2.43,12.16,12.16,0,0,0-.77,2,13.85,13.85,0,0,0-.32,2.1,4.15,4.15,0,0,0,.94,2.8,5.76,5.76,0,0,0,.86,3.07,6.26,6.26,0,0,0,2,2l.86.4.91.34a7.9,7.9,0,0,0,1.62.21h.23a7,7,0,0,0,2.95-.77,6.17,6.17,0,0,0,1.48-1l.59-.73.51-.73h0l.39-.1a8.05,8.05,0,0,0,1.38-.61,6.35,6.35,0,0,0,2.17-2.2,4.57,4.57,0,0,0,0-4.67l-.6-.86-.13-.59a6.7,6.7,0,0,0-.89-1.92,8,8,0,0,0-1.24-2.48,4.72,4.72,0,0,0-3.84-1.83" transform="translate(-249.69 -213.9)"/><path class="cls-8" d="M1203.44,965.23a5.53,5.53,0,0,0-.71,0,5.25,5.25,0,0,0-2,.68,5.83,5.83,0,0,0-2,2,6.55,6.55,0,0,0-.58,1.36l-.09.3-.16,1.06h0l-.48.34a3.33,3.33,0,0,0-1.35.51,4.61,4.61,0,0,0-1.65,6.34,4.59,4.59,0,0,0,2.77,2.12,31.66,31.66,0,0,1,3.91.92,14.36,14.36,0,0,0,3,1.09,5.84,5.84,0,0,0,1.25.14,4.59,4.59,0,0,0,2.33-.61,4.71,4.71,0,0,0,2.12-2.77,4.62,4.62,0,0,0-.47-3.56h0l.08-.1a4.81,4.81,0,0,0,.46-3.56,5,5,0,0,0-1.58-2.4l0-.12a5.38,5.38,0,0,0-2.26-3.06,5.16,5.16,0,0,0-2.58-.68" transform="translate(-249.69 -213.9)"/><path class="cls-7" d="M1380.53,961.54a3.59,3.59,0,0,0-1.65.4l-1,.59a3.34,3.34,0,0,0-1.19,1.31l-.34.74-1.29,1.84-.46,1.11a3.3,3.3,0,0,0-.09,1.84l0,.44-.09,1a6.53,6.53,0,0,0,.78,3.12,3.54,3.54,0,0,0,1.19,1.3l1.18.71a3.57,3.57,0,0,0,1.48.94l1.16.31a3.46,3.46,0,0,0,.78.09,4,4,0,0,0,1.07-.16,6.94,6.94,0,0,0,2.56-1.52,5.19,5.19,0,0,0,1.18-1.57,7.21,7.21,0,0,0,.79-2.71,3.74,3.74,0,0,0,.6-1.36,5.85,5.85,0,0,0,0-2.82,11.44,11.44,0,0,0-.63-1.55l-.27-.52a8.11,8.11,0,0,0-1.44-1.7l-1.32-1a9.66,9.66,0,0,0-1.62-.7l-1.22-.16h-.15" transform="translate(-249.69 -213.9)"/><path class="cls-7" d="M1538.66,849.39a3.44,3.44,0,0,0-1.62.4l-1,.6a3.27,3.27,0,0,0-1.2,1.3l-.34.74c-.43.61-.85,1.23-1.29,1.84l-.47,1.11a3.5,3.5,0,0,0-.08,1.84l.06.45-.1,1a6.63,6.63,0,0,0,.78,3.1,3.58,3.58,0,0,0,1.19,1.31l1.18.71a3.59,3.59,0,0,0,1.48,1l1.16.3a3.64,3.64,0,0,0,.79.1,3.18,3.18,0,0,0,1-.18,6.55,6.55,0,0,0,2.57-1.51,5.35,5.35,0,0,0,1.19-1.56,7.29,7.29,0,0,0,.78-2.72,3.75,3.75,0,0,0,.61-1.36,6.07,6.07,0,0,0-.06-2.81,9,9,0,0,0-.62-1.54l-.27-.53a7.69,7.69,0,0,0-1.46-1.71,10.47,10.47,0,0,0-1.32-1,10.72,10.72,0,0,0-1.6-.69l-1.24-.17h-.15" transform="translate(-249.69 -213.9)"/><path class="cls-9" d="M1643.39,753.34a3.57,3.57,0,0,0-1.68.41l-1,.59a3.73,3.73,0,0,0-1.18,1.31l-.33.73c-.43.62-.85,1.24-1.3,1.85l-.46,1.11a3.59,3.59,0,0,0-.09,1.84l.06.44-.1,1a6.89,6.89,0,0,0,.77,3.12,3.57,3.57,0,0,0,1.2,1.3l1.17.7a3.62,3.62,0,0,0,1.48,1l1.18.31a3.29,3.29,0,0,0,.76.09,3.8,3.8,0,0,0,1.09-.17,6.87,6.87,0,0,0,2.56-1.51,5.28,5.28,0,0,0,1.17-1.57,6.89,6.89,0,0,0,.78-2.71,3.9,3.9,0,0,0,.63-1.35A6,6,0,0,0,1650,759a11.47,11.47,0,0,0-.61-1.54l-.29-.53a7.3,7.3,0,0,0-1.44-1.7,10.52,10.52,0,0,0-1.32-1,10.36,10.36,0,0,0-1.61-.68l-1.24-.18h-.1" transform="translate(-249.69 -213.9)"/><path class="cls-9" d="M1101.6,724.46a3.34,3.34,0,0,0-1.58.4l-1,.59a3.75,3.75,0,0,0-1.19,1.31l-.33.74c-.42.61-.85,1.22-1.29,1.84l-.48,1.1a3.56,3.56,0,0,0-.07,1.86l0,.43-.09,1a6.62,6.62,0,0,0,.78,3.12,3.36,3.36,0,0,0,1.19,1.29l1.16.71a3.69,3.69,0,0,0,1.5.95l1.17.31a3.35,3.35,0,0,0,.76.09,3.69,3.69,0,0,0,1.08-.17,6.71,6.71,0,0,0,2.56-1.51A5.63,5.63,0,0,0,1107,737a7.06,7.06,0,0,0,.78-2.72,3.91,3.91,0,0,0,.63-1.35,6.25,6.25,0,0,0-.07-2.82,9.87,9.87,0,0,0-.63-1.55l-.28-.52a7.51,7.51,0,0,0-1.43-1.7,11.43,11.43,0,0,0-1.33-1,10.25,10.25,0,0,0-1.6-.68l-1.24-.17h-.2" transform="translate(-249.69 -213.9)"/><path class="cls-7" d="M1225.53,862.72a2.41,2.41,0,0,0-.72.1,3.51,3.51,0,0,0-2.15,2l-.52.67a3.37,3.37,0,0,0-.17,3.32,2.15,2.15,0,0,0,.28,1.58l0,.07v0a2.5,2.5,0,0,0,.68,1.64,2.35,2.35,0,0,0,1.57.68h.07l1.2-.34a5.33,5.33,0,0,0,1,.09,5.69,5.69,0,0,0,1.58-.22,2.26,2.26,0,0,0,1.2-.83,2.51,2.51,0,0,0,.5-1.41,7.55,7.55,0,0,0-.25-2.75,7.79,7.79,0,0,0-1.13-2.51l-1-1.24a3.13,3.13,0,0,0-1.37-.75,3.16,3.16,0,0,0-.76-.09" transform="translate(-249.69 -213.9)"/><path class="cls-9" d="M1663.29,747.44a2.52,2.52,0,0,0-.73.1,3.5,3.5,0,0,0-2.14,2l-.52.67a3.34,3.34,0,0,0-.17,3.33,2.13,2.13,0,0,0,.27,1.57l0,.07v0a2.52,2.52,0,0,0,.67,1.64,2.42,2.42,0,0,0,1.58.68h.07l1.2-.33a6.37,6.37,0,0,0,1,.08,6.07,6.07,0,0,0,1.58-.21,2.5,2.5,0,0,0,1.21-.83,2.61,2.61,0,0,0,.49-1.41,8.29,8.29,0,0,0-1.38-5.26l-1-1.25a3.1,3.1,0,0,0-1.35-.75,3.19,3.19,0,0,0-.77-.09" transform="translate(-249.69 -213.9)"/><path class="cls-7" d="M1602.61,1089.9a3.87,3.87,0,0,0-3.08,1.35c-.82,1-1.62,2-2.42,3.06a9.79,9.79,0,0,0-2.18-.3h0a4.76,4.76,0,0,0-4.42,3.4l-.21.68-.13.2-.24.55c-.49,1.12-1,2.22-1.39,3.37a12.33,12.33,0,0,0-.79,5.37l.08.52-.18.27a4.68,4.68,0,0,0,1.67,6.34,5.17,5.17,0,0,0,2.35.58l.33,0a8.25,8.25,0,0,0,4,1.37c.2,0,.42,0,.62,0,3.76,0,6.94-2.82,8.76-6a12,12,0,0,0,4.3-2.29c3.25-2.61,5.38-7.7,2.7-11.48a8,8,0,0,0-5.09-3.28,4.25,4.25,0,0,0-1.69-2.79,5,5,0,0,0-3-1" transform="translate(-249.69 -213.9)"/><path class="cls-7" d="M1124.34,832.14a3.88,3.88,0,0,0-3.08,1.34c-.83,1-1.63,2-2.44,3.07a8.94,8.94,0,0,0-2.16-.29h-.05a4.76,4.76,0,0,0-4.42,3.41l-.2.66-.13.2-.25.56c-.48,1.12-1,2.23-1.38,3.36a12.53,12.53,0,0,0-.79,5.38l.08.51-.17.28a4.67,4.67,0,0,0,1.66,6.33,5,5,0,0,0,2.33.58h.36a8.35,8.35,0,0,0,4,1.38c.2,0,.4,0,.6,0,3.76,0,7-2.82,8.78-5.95a12.25,12.25,0,0,0,4.3-2.28c3.25-2.63,5.38-7.72,2.71-11.49a8,8,0,0,0-5.09-3.28,4.31,4.31,0,0,0-1.7-2.79,5,5,0,0,0-3-1" transform="translate(-249.69 -213.9)"/><path class="cls-7" d="M1595.15,1200.79a1.85,1.85,0,0,0-1.46.63c-.39.48-.77,1-1.14,1.46l-1-.14h0a2.27,2.27,0,0,0-2.11,1.61l-.09.32,0,.1-.12.26c-.23.52-.47,1.06-.66,1.59a6,6,0,0,0-.37,2.54l0,.25-.09.13a2.25,2.25,0,0,0,.8,3l1.26.27a4,4,0,0,0,1.92.65l.28,0a5.16,5.16,0,0,0,4.17-2.82,6,6,0,0,0,2-1.09c1.53-1.23,2.53-3.66,1.27-5.44a3.84,3.84,0,0,0-2.41-1.56,2.11,2.11,0,0,0-.81-1.32,2.34,2.34,0,0,0-1.42-.46" transform="translate(-249.69 -213.9)"/><path class="cls-7" d="M1599.6,1005.74a16.61,16.61,0,0,0-6.08,1.12,4.91,4.91,0,0,0-2.78,2.13,4.75,4.75,0,0,0-.55,3,4.87,4.87,0,0,0,2,3.21l.14,1a37.94,37.94,0,0,0,2.71,7.26,15.71,15.71,0,0,0,2.25,3.48,6.91,6.91,0,0,0,5,2.32h.18a7.14,7.14,0,0,0,6.55-5.27,7.6,7.6,0,0,0,.33-2.67l0-.11h0l.69-.56c2.54-2.34,3.53-6.6,1.72-9.63l-.51-.75-.35-.41-.12-.13-.33-.34a8.55,8.55,0,0,0-2-1.34,18.15,18.15,0,0,0-8.87-2.3" transform="translate(-249.69 -213.9)"/><path class="cls-10" d="M1729.28,254.14c-6.62.74-13.26,1.47-19.9,2.25q-22.82,2.61-45.58,5.5l-4.26.54q-22.3,2.82-44.55,5.93-25.32,3.51-50.62,7.35-26.34,4-52.65,8.32-25.14,4.16-50.23,8.62c-4.75.85-9.49,1.69-14.22,2.55l0,.09q-1.89,11.76-3.73,23.55-4,25-7.7,50.12-4.1,27.36-8,54.76c-.72,5-1.43,10-2.13,15q-3.48,25.11-6.78,50.26-4.17,31.71-8,63.47c-.19,1.5-.37,3-.54,4.48q-3,24.82-5.83,49.66-3.27,28.61-6.28,57.26-.93,8.83-1.83,17.67-1.12,10.9-2.22,21.84c-.3,3.21-.63,6.43-1,9.65q-2.46,25.49-4.77,51-20.46,0-40.92-.34,2.24-25,4.66-49.92c.32-3.36.66-6.72,1-10.07q1.89-19.35,3.92-38.66c.11-1,.2-1.91.3-2.88q3-28.36,6.21-56.73,2.71-24.28,5.68-48.55,1.44-11.89,2.89-23.76,2.6-20.94,5.34-41.84,3.17-24.42,6.56-48.81,2.59-19,5.34-38.08,2.58-17.88,5.24-35.76,3.61-24.27,7.41-48.49,3.45-22.06,7.07-44.13c1.45-8.94,7.17-16.6,16.54-18.35,6.41-1.18,12.86-2.35,19.27-3.5q22.82-4.09,45.7-8c1.15-.18,2.28-.39,3.44-.58q27.3-4.56,54.64-8.78h0q24.62-3.78,49.25-7.25,23.84-3.36,47.73-6.43,24.57-3.19,49.2-6.06,13.4-1.56,26.81-3c11.37-1.25,21.1,4.85,23.78,16.3C1747.94,240.52,1739.91,253,1729.28,254.14Z" transform="translate(-249.69 -213.9)"/><path class="cls-11" d="M1398.27,663.89q-.93,8.83-1.83,17.68-1.62,15.73-3.17,31.49c-11.37.69-22.77,1-34.14.85-2.3,0-4.59-.08-6.89-.15q2.37-24.37,4.9-48.72l3.46.06q12.72.25,25.44-.3Q1392.16,664.44,1398.27,663.89Z" transform="translate(-249.69 -213.9)"/><path class="cls-11" d="M1410.38,557q-3,24.81-5.84,49.66a222.29,222.29,0,0,1-23.79.34c-5.75-.23-11.45-.77-17.09-1.55q2.71-24.28,5.67-48.55a184.18,184.18,0,0,0,29.32,1.34C1402.57,557.93,1406.48,557.53,1410.38,557Z" transform="translate(-249.69 -213.9)"/><path class="cls-11" d="M1425.74,438.77q-3.49,25.11-6.78,50.25a344.62,344.62,0,0,1-41.39,2.27q3.17-24.43,6.56-48.82,5.34,0,10.67-.25C1405.16,441.56,1415.5,440.43,1425.74,438.77Z" transform="translate(-249.69 -213.9)"/><path class="cls-11" d="M1443.52,318.84q-4,25-7.7,50.11a233.47,233.47,0,0,1-26.57.68c-4.86-.16-9.71-.48-14.54-1q3.61-24.27,7.41-48.49a192.07,192.07,0,0,0,24.47.65C1432.25,320.38,1437.91,319.73,1443.52,318.84Z" transform="translate(-249.69 -213.9)"/><path class="cls-11" d="M1511.73,284q-25.15,4.14-50.24,8.62-8.94-19-16.49-38.5,22.85-4.11,45.68-8l3.46-.58Q1502.26,265.14,1511.73,284Z" transform="translate(-249.69 -213.9)"/><path class="cls-11" d="M1615,268.36q-25.31,3.51-50.62,7.35c-5.78-12.72-10.94-25.7-15.58-38.87q24.6-3.78,49.24-7.24Q1605.65,249.36,1615,268.36Z" transform="translate(-249.69 -213.9)"/><path class="cls-11" d="M1709.39,256.39q-22.83,2.61-45.61,5.49l-4.25.55q-7.23-19.5-13.76-39.27,24.57-3.18,49.21-6.06Q1701.8,236.89,1709.39,256.39Z" transform="translate(-249.69 -213.9)"/><path class="cls-12" d="M1358.55,1468.41a5.23,5.23,0,0,0-5.23.45c-1.44.92-2.93,1.75-4.41,2.57-1.82,1-3.66,2-5.47,2.93l-3.06,1.54-1.38.69-2.54,1.22a499.12,499.12,0,0,1-56.21,22.3c-77.3,26-158.11,39.92-238.2,46.77-76.75,6.57-154.32-.34-230.6-10.73-72.07-9.81-143.73-23.76-214.9-40.23-36.08-8.35-72-17.72-107.84-27.36-.52-.13-1-.29-1.55-.44-3.83-1.11-8.15,2.19-8,7.14,2.89,88.56,23.67,176.86,93.64,222.6,76.79,50.19,175.14,54.59,260.8,58.18,71,3,142.09,2.65,213-2.52,67.94-5,139.55-9.38,202.71-42,69.55-35.92,103-107.24,111-193.62,1.25-13.66,2-27.39,2.44-41.12l0-1.29v-.22c.13-3.83-1.85-6.1-4.26-6.85" transform="translate(-249.69 -213.9)"/><path class="cls-13" d="M576.2,1694.44c-17-13.88-35.36-27.45-47-46.46a3,3,0,0,1,2.33-4.42,48.4,48.4,0,0,1-9.4-15.7c-2.69-8.12,1.76-18,11.39-16.16,18,3.35,33.14,16.1,51.14,19.34,35.49,6.38,69.74,17.85,104,28.64,16.94,5.32,33.94,10.49,51.18,14.76,15,3.7,30.13,6.53,45.29,9.33,15,2.75,30.09,5.15,45.35,5.79,11.7.5,23.7,0,35-3.27-5.2-2.8-10.67-6.69-10.46-12,.3-7.74,10.54-9.11,16.39-8.67,8.93.69,17.75,3.05,26.43,5.15,8.12,2,16.55,4.61,25,4.82,25.06.63,50,.43,75,2.38a548,548,0,0,1,73.55,10.62c12.26,2.66,24.4,5.52,36.88,7a303.92,303.92,0,0,0,36.81,2.18,324.51,324.51,0,0,0,73.22-8.22,121.23,121.23,0,0,0,56.3-29.59,183.64,183.64,0,0,0,21.77-24.43c6.36-8.46,11.7-17.6,17.92-26.15,11.29-15.54,25.29-28.65,38.26-42.72a371.42,371.42,0,0,0,7.71-48.77c1.25-13.66,2-27.39,2.44-41.12l0-1.29v-.22c.13-3.83-1.85-6.1-4.26-6.85a5.23,5.23,0,0,0-5.23.45c-1.44.92-2.93,1.75-4.41,2.57-1.82,1-3.66,2-5.47,2.93l-3.06,1.54-1.38.69-2.54,1.22a499.12,499.12,0,0,1-56.21,22.3c-77.3,26-158.11,39.92-238.2,46.77-76.75,6.57-154.32-.34-230.6-10.73-72.07-9.81-143.73-23.76-214.9-40.23-36.08-8.35-72-17.72-107.84-27.36-.52-.13-1-.29-1.55-.44-3.83-1.11-8.15,2.19-8,7.14,2.89,88.56,23.67,176.86,93.64,222.6,7.35,4.8,14.91,9.18,22.6,13.18-6.16-5.88-12.77-11.33-19.21-16.6" transform="translate(-249.69 -213.9)"/><path class="cls-14" d="M1352.45,1313.7c-12.09-32.56-30.26-63.47-58.45-84.55-32.61-24.42-75.48-30.19-114.75-35.54-44.09-6-88.53-9.43-132.87-13.22-44.61-3.81-89.26-7.32-134-9.47-87.7-4.2-176.84-3.69-263.55,11.67-38.58,6.83-77.4,18-110.43,39.75-29.44,19.37-53.53,47.75-64.9,81.37a116.78,116.78,0,0,0-5.68,49.8q-4.26,13.79-7.23,27.94A313.45,313.45,0,0,0,454,1440c-.34,20.48,1.36,41.65,9,60.86,27,67.94,108,90.84,171.68,108.65a1178.74,1178.74,0,0,0,255.68,41.84c87,4.55,174.24-.65,260.24-14.1,18.68-2.91,37.32-5.91,55.46-11.28a351.44,351.44,0,0,0,50.88-19.71c32.15-15.34,63.64-35.44,84.55-64.87,22.21-31.25,32-69.93,32.54-107.89.65-40.33-7.52-82-21.55-119.76" transform="translate(-249.69 -213.9)"/><path class="cls-15" d="M463.29,1369.76c1.4,5,3,9.87,4.89,14.7,7.33,18.9,18.58,36.55,30.92,52.56,21.77,28.23,48.67,51.88,76,74.54a10.66,10.66,0,0,0-.91-2.41c-1.51-2.79,1.42-5.16,4-4,6.05,2.61,12.07,5.37,18.18,7.88a144.25,144.25,0,0,0,19,6.58,73.46,73.46,0,0,0,10.81,2c2.87.3,4.72,1.62,7.32,2.88,11.93,5.75,25.55,7.36,38.56,8.78,13.48,1.47,26,1.38,39.22-1.87,11.65-2.87,23.65-7.88,35.74-8.31,10.78-.37,17.7,6.92,26.74,11.42,11.94,5.94,26,5.72,38.89,7.55,12.49,1.77,23.15,6.83,34.44,12.15a47,47,0,0,0,26.34,4.63c7.12-.74,14.13-2.18,21.29-2.6a128.72,128.72,0,0,1,21.24.61c13.5,1.46,26.91,4.36,40.06,7.59,14.17,3.47,28.37,7.42,42.93,8.79a81.79,81.79,0,0,0,37.09-5.28c23.59-8.85,44.42-22.86,70-25.5,29.47-3,59.22-1.26,88.66-4.63a198.82,198.82,0,0,0,60.61-16.65c10.67-5,34.64-16.69,27.35-32.14a3.16,3.16,0,0,1,.46-3.58c7-8.62,18.24-9.36,25.3-1.44,12.66-5.25,23.36-15.9,32.49-25.75,10.46-11.3,19.45-23.52,25.12-38a106.89,106.89,0,0,0,6.17-23,348.16,348.16,0,0,0-19.85-83.58c-12.09-32.56-30.26-63.47-58.45-84.55-32.61-24.42-75.48-30.19-114.75-35.54-44.09-6-88.53-9.43-132.87-13.22-44.61-3.81-89.26-7.32-134-9.47-87.7-4.2-176.84-3.69-263.55,11.67-38.58,6.83-77.4,18-110.43,39.75-29.44,19.37-53.53,47.75-64.9,81.37a116.78,116.78,0,0,0-5.68,49.8q-2.49,8.06-4.53,16.25" transform="translate(-249.69 -213.9)"/><path class="cls-16" d="M862.32,1308.2c-25.58-26.44-60.32-43.13-95.93-51.07a229.35,229.35,0,0,0-63.77-5.17c-19.12,1.17-38.33,4.61-55.66,13.08a84.82,84.82,0,0,0-22.05,15.46,6.32,6.32,0,0,0-1.78,4.16,265.34,265.34,0,0,0-33.45,28.87,340.09,340.09,0,0,0-37.38,44.89c-11.57,16.66-21.25,34.83-27.22,54.28-6.17,20.15-8.19,41.62-4.53,62.43A116.28,116.28,0,0,0,541,1522.61,145.86,145.86,0,0,0,579.29,1559c16,10.52,34.16,17.79,52.76,22.23a231.45,231.45,0,0,0,60.4,5.8c21.16-.63,42.74-3.21,63-9.64,19.46-6.2,37.73-15.88,54.56-27.37a241.21,241.21,0,0,0,42.17-36.13c26.1-28.48,44-64,47-102.85,1.52-19.44-.89-39.51-7.83-57.77a132.77,132.77,0,0,0-29-45.07" transform="translate(-249.69 -213.9)"/><path class="cls-17" d="M891.29,1353.27a132.77,132.77,0,0,0-29-45.07,165.26,165.26,0,0,0-31.18-25c20.9,16.32,39.79,35.64,49.72,60.63,6.33,15.93,8.87,33.83,5.7,50.75-3.44,18.21-12.68,35-23.38,49.92-9.49,13.28-20.66,25-31.48,37.17a207.83,207.83,0,0,1-16.28,16.9c-4.91,4.42-10.58,9-17.14,10.6a3,3,0,0,1-3.64-2.07c-1.84-5.87-.8-11.93.31-17.87a18.74,18.74,0,0,0-6.15,3.74,53.06,53.06,0,0,0-6.75,7.3c-4.56,5.77-8.38,12.11-12.36,18.29-3.62,5.58-7.21,11.42-12.47,15.6a89.67,89.67,0,0,1-25.86,14.2c-17.91,6.42-38.13,8.25-56.79,4.45-15.36-3.13-28.78-11-40.64-21-10.8-9.14-20.43-19.55-30.75-29.24-.38,10.17,5.25,20.42,11.23,28.18a2.94,2.94,0,0,1-.46,3.57,3.07,3.07,0,0,1-3.58.46q-3.24-1.39-6.37-3c-17-9-30.73-23.08-41-39.11a154.74,154.74,0,0,1-21.35-53.91c-3.36-17.21-3.21-34.53-1.93-52,.24-3.17.51-6.37.83-9.55a180.61,180.61,0,0,0-15.45,35.52c-6.17,20.15-8.19,41.62-4.53,62.43A116.28,116.28,0,0,0,541,1522.61,145.86,145.86,0,0,0,579.29,1559c16,10.52,34.16,17.79,52.76,22.23a231.45,231.45,0,0,0,60.4,5.8c21.16-.63,42.74-3.21,63-9.64,19.46-6.2,37.73-15.88,54.56-27.37a241.21,241.21,0,0,0,42.17-36.13c26.1-28.48,44-64,47-102.85,1.52-19.44-.89-39.51-7.83-57.77" transform="translate(-249.69 -213.9)"/><path class="cls-16" d="M1365,1381.46c-8.23-32.45-32.11-59-59.26-77.47-29.18-19.83-63.33-31.37-98.15-35.92a269.44,269.44,0,0,0-104.56,7.37c-17.51,4.72-35,11.36-49.8,22.06-14.61,10.57-26.38,24.85-32.17,42.09a63.54,63.54,0,0,0-3.24,24.73c.24,3.25,2.7,6.39,6.23,6.23l.28,0a221.36,221.36,0,0,0,9.34,98.82c6.15,18.31,14.47,36.22,26.55,51.4,21.68,27.26,55.82,43.09,89.71,48.31a189.44,189.44,0,0,0,111.27-17c31.12-15.09,57.86-38.57,77.88-66.66,21.23-29.8,35.2-67.26,25.92-103.93" transform="translate(-249.69 -213.9)"/><path class="cls-17" d="M1365,1381.46c-4.55-18-13.9-34.1-25.94-48.07a134.71,134.71,0,0,1,3.43,52.87,141,141,0,0,1-5.6,24.34,166.11,166.11,0,0,1-9.12,23.23c-7,14-16.73,26.58-27.5,38-5.29,5.6-10.9,10.86-16.58,16.06-4.36,4-8.68,8.33-13.74,11.46-4,2.48-8.75,3.76-13.17,1.51-4.15-2.1-6.85-6.33-8.92-10.62-4.38,5.69-7.71,12.07-11.6,18.13a55.65,55.65,0,0,1-17,17.31c-6.89,4.33-13.57,9-20.55,13.18-13.72,8.25-30.43,16.81-46.91,13.48-2.23-.45-2.8-3.45-1.31-4.93,1.16-1.15,2.32-2.29,3.47-3.45a77.36,77.36,0,0,0,9.09-10.55,22.87,22.87,0,0,0,3-5.67,6.85,6.85,0,0,0,.44-2.36l0-.38-.06-.33-.07-.25-.15,0-.23-.08h-.18l-1.14,0a25.82,25.82,0,0,0-5.25.6,130,130,0,0,0-13.3,3.49c-3.48,1.06-6.91,2.17-10.47,3-7.48,1.68-14.87,3.77-22.41,5.25s-15,2.36-22.51,1.48a65.8,65.8,0,0,1-20.42-6.34l-.21-.1c21.43,20.67,50.69,33,79.82,37.51a189.54,189.54,0,0,0,111.27-17c31.12-15.09,57.86-38.57,77.88-66.66C1360.29,1455.59,1374.26,1418.13,1365,1381.46Z" transform="translate(-249.69 -213.9)"/><path class="cls-18" d="M665.4,1468.31a64.66,64.66,0,0,1-1.16-13.19,87,87,0,0,1,4.57-25.63c5.73-18.15,14.59-34.21,21.91-51.61,7.14-16.94,12.49-34.94,10.43-53.5-.94-8.45-3.71-17.2-9.34-23.65,2.51-2.16,1.83-7.32-2.39-7.37-2.48,0-4.95,0-7.41.15-7.74-3.2-16.7-2.44-24.69-.15a120.38,120.38,0,0,0-14.24,5.27,4.11,4.11,0,0,0-2.1,4.64q-4.8,2.06-9.43,4.53a123.23,123.23,0,0,0-44.33,40.07,116.39,116.39,0,0,0-18.71,55.85,125.2,125.2,0,0,0,9.56,57.63,114.93,114.93,0,0,0,14.84,25.36c7.25,9.4,16.31,17.74,27.43,22.27a37.14,37.14,0,0,0,30.44-.71c9.13-4.44,15.89-12.93,16.58-23.25.39-5.63-.94-11.21-2-16.71" transform="translate(-249.69 -213.9)"/><path class="cls-18" d="M815.1,1418.18a82.89,82.89,0,0,0-8-41.94c-6-12.38-15.47-23.54-27.62-30.22-12.32-6.77-28.15-9.57-41.19-3.07a27.14,27.14,0,0,0-8.22,6.24c-1.49,1.68-1.91,4.09-.29,5.88a4.56,4.56,0,0,0,2.74,1.32,81.78,81.78,0,0,0-7.48,15.44c-5.91,16.2-7,33.69-7.07,50.8,0,8.57.19,17.15.1,25.74s-.84,17.1-1.43,25.67c-.55,7.89-.55,16,2,23.62,2.51,7.34,7.13,14.27,14.28,17.76a30.22,30.22,0,0,0,21.77,1.46c7.69-2.29,14.31-7,19.83-12.74,5.8-6,10.7-13,15.34-19.91A190.05,190.05,0,0,0,801.74,1464c7.13-14.34,12.24-29.73,13.36-45.78" transform="translate(-249.69 -213.9)"/><path class="cls-18" d="M1171.25,1409a274.33,274.33,0,0,1-.06-29.94c.46-10.8,1.08-21.68-.09-32.46-1.14-10.33-3.57-21.5-10.21-29.79a19.08,19.08,0,0,0-12.16-7.28c-5.75-.79-11.27,1.25-16.35,3.73-.81.39-1.59.82-2.39,1.25a4.42,4.42,0,0,0-5,.68,129.23,129.23,0,0,0-35.32,44.42c-8.36,17.35-13,36.59-12.36,55.9a110.63,110.63,0,0,0,14.82,51.48,107.35,107.35,0,0,0,36.81,38.14,83.3,83.3,0,0,0,26.67,10.87c10.17,2,21.7,1.63,30.51-4.44,7.39-5.09,12.83-13.35,13.16-22.47.39-10.42-7.54-17.38-12.63-25.56C1176.55,1447.24,1172.45,1428,1171.25,1409Z" transform="translate(-249.69 -213.9)"/><path class="cls-18" d="M1301.93,1384.68a153.72,153.72,0,0,0-15.7-45.51c-7.47-14-17.28-27.71-31.54-35.43a72.64,72.64,0,0,0-23.91-7.72c-8.26-1.23-17-1.73-24.62,2.37-6.45,3.47-10.77,10-12.86,16.88-2,6.43-1.84,13.21-.74,19.78-1.32,9.86.6,20.26,4.39,29.38,6.48,15.6,17.34,28.73,25.69,43.31a197.8,197.8,0,0,1,11.38,23.15c3.2,7.78,5.57,15.9,9.14,23.51,3.36,7.17,8.3,13.83,15.27,17.85a24.27,24.27,0,0,0,22.35,1.2c15.43-6.84,19.92-25,22-40.1a155.8,155.8,0,0,0-.89-48.67" transform="translate(-249.69 -213.9)"/><path class="cls-19" d="M650.61,1501.18a9.55,9.55,0,0,0-7.5-.38l-.74.42-1.1.41a2.69,2.69,0,0,0-1.21,3.53l.28,1.06a2.4,2.4,0,0,0,1.23,1,8.14,8.14,0,0,0,5.25.16,8.47,8.47,0,0,0,4.53-3.32A2.1,2.1,0,0,0,650.61,1501.18Z" transform="translate(-249.69 -213.9)"/><path class="cls-19" d="M643,1481.2a1.88,1.88,0,0,0,1.18-.91,2.13,2.13,0,0,0-.32-2.52,11.77,11.77,0,0,0-1.55-1.25,6.56,6.56,0,0,0-7.11-2.36,2.12,2.12,0,0,0-1.52,2,12.28,12.28,0,0,0,1,4.55,4.88,4.88,0,0,0,3.32,2.71,4.78,4.78,0,0,0,4.22-1.06Z" transform="translate(-249.69 -213.9)"/><path class="cls-19" d="M652,1445.46a4.58,4.58,0,0,0-1-1.58,4.32,4.32,0,0,0-3-1.28l-.88.11-.19-.1a2.23,2.23,0,0,0-1.6-.22,2.38,2.38,0,0,0-1.25,1,5,5,0,0,0-.78,2.89,5.17,5.17,0,0,0,1.26,3.17,4,4,0,0,0,2.15,1.24,7.33,7.33,0,0,0,2,.88l1.21-.06.61,0a2.2,2.2,0,0,0,1.24-1,2,2,0,0,0,.21-1.6l-.19-.44a4.45,4.45,0,0,0,.41-1.53A3.17,3.17,0,0,0,652,1445.46Z" transform="translate(-249.69 -213.9)"/><path class="cls-19" d="M746.67,1498.32a3.71,3.71,0,0,0-.94-2.3,4.21,4.21,0,0,0-3.19-1.27,4.24,4.24,0,0,0-4.07,5.64c.87,2.84,4.13,4.88,7,3.68a10.57,10.57,0,0,0,2.09.48,2,2,0,0,0,1.79-1,2.13,2.13,0,0,0,0-2.1A8.4,8.4,0,0,0,746.67,1498.32Z" transform="translate(-249.69 -213.9)"/><path class="cls-19" d="M762.24,1468.33l-1.17-.22-.79-.65c-1.71-1-3.8-.64-5.56,0a2.12,2.12,0,0,0-1.24,1l-.27.78a2.09,2.09,0,0,0-.57,2.71,8,8,0,0,0,1.54,1.85l.63.66a4.79,4.79,0,0,0,3.15,1.2l.36.09a8.73,8.73,0,0,0,2.84,0,2,2,0,0,0,1.24-1,2.19,2.19,0,0,0,.23-1.6l-.42-1,.78-1A2.09,2.09,0,0,0,762.24,1468.33Z" transform="translate(-249.69 -213.9)"/><path class="cls-19" d="M764.68,1440.49a4,4,0,0,0-1.43-2.17,7.6,7.6,0,0,0-1.94-1.17,4.28,4.28,0,0,0-1.29-.67,4.47,4.47,0,0,0-4.62,1.23,2.17,2.17,0,0,0-.61,1.47l.16.79v.92l-.25.35a2.1,2.1,0,0,0,.74,2.84,9.22,9.22,0,0,0,4.64,1.64,4.8,4.8,0,0,0,4.21-2.44A3.89,3.89,0,0,0,764.68,1440.49Z" transform="translate(-249.69 -213.9)"/><path class="cls-19" d="M758.9,1412.05a3.34,3.34,0,0,0-1.48-4,5.44,5.44,0,0,0-3-.59,8.1,8.1,0,0,0-5.4,2.83l-.14.09a4.39,4.39,0,0,0-1.36,2.71l-.16.85a2,2,0,0,0-2.07,1,2.13,2.13,0,0,0,.75,2.85,9.43,9.43,0,0,0,10.12-1.49A8.24,8.24,0,0,0,758.9,1412.05Z" transform="translate(-249.69 -213.9)"/><path class="cls-19" d="M1182.73,1492.6l-.74-1.08a2.15,2.15,0,0,0-1.26-.45,6.75,6.75,0,0,0-6.63,5l0,.48-.08.2a2,2,0,0,0-1.56,1.45,2.18,2.18,0,0,0,.72,2.18,3.06,3.06,0,0,0,.81,1.79,3.15,3.15,0,0,0,2.43.93,5.7,5.7,0,0,0,3.79-2,10.32,10.32,0,0,0,2.29-3.9l.12-.49.31-1.14-.05-.4A11.31,11.31,0,0,0,1182.73,1492.6Z" transform="translate(-249.69 -213.9)"/><path class="cls-19" d="M1160.55,1468.15a11.46,11.46,0,0,0-4.91-.62,12.17,12.17,0,0,0-4.21.07,2.06,2.06,0,0,0-1.46,1.45l-.06.42c-.46.31-.92.65-1.36,1a2.08,2.08,0,0,0,0,2.94l1,.64a8.06,8.06,0,0,0,12.49-3.35,2.16,2.16,0,0,0-.22-1.61A2.35,2.35,0,0,0,1160.55,1468.15Z" transform="translate(-249.69 -213.9)"/><path class="cls-19" d="M1150.09,1432.38a8.66,8.66,0,0,0-2.92-2.79c-2.3-1.36-5.62-1.4-7.43.84a4.58,4.58,0,0,0-.75,1.34l-.84.49a2.16,2.16,0,0,0,0,2.94,10.75,10.75,0,0,0,3.71,3.23,5.58,5.58,0,0,0,5.15-.17l.35-.23a3.92,3.92,0,0,0,2.52-1.08A3.77,3.77,0,0,0,1150.09,1432.38Z" transform="translate(-249.69 -213.9)"/><path class="cls-19" d="M1279.22,1452a2.1,2.1,0,0,0-1.8-1,12,12,0,0,0-3.71.73,9.6,9.6,0,0,0-4.64,1.68,2.23,2.23,0,0,0-1,1.68,2.07,2.07,0,0,0-.73,1.57l.05.2-.24.4a2.1,2.1,0,0,0,1.24,3,9,9,0,0,0,8-1.82,5.44,5.44,0,0,0,2.15-3.5l.73-.86A2.08,2.08,0,0,0,1279.22,1452Z" transform="translate(-249.69 -213.9)"/><path class="cls-19" d="M1263.44,1417.1a2,2,0,0,0-1-1.63,2.1,2.1,0,0,0-2.72.59,6.65,6.65,0,0,0-1.47.48,16.84,16.84,0,0,0-3.55,2.2c-1.28,1-2.82,2.38-2.35,4.21l.08.22,0,.08a2.11,2.11,0,0,0,1.45,2.55,9.13,9.13,0,0,0,4-.13,9.82,9.82,0,0,0,3.49-1.79,8.49,8.49,0,0,0,2.24-2.68,4.16,4.16,0,0,0,.52-3Z" transform="translate(-249.69 -213.9)"/><path class="cls-19" d="M1242,1389.56a2.12,2.12,0,0,0-2.56-1.45,8.4,8.4,0,0,0-1.57.66l-.17,0a5.07,5.07,0,0,0-3.42,2.85,8.24,8.24,0,0,0-.55,1.63l-.17.39a7.89,7.89,0,0,0-.56,3.69,4.16,4.16,0,0,0,1.1,2.7,3.25,3.25,0,0,0,3,.82,6.54,6.54,0,0,0,3.69-2.87,14.34,14.34,0,0,0,2.12-4,4,4,0,0,0-.87-4.14Z" transform="translate(-249.69 -213.9)"/><path class="cls-20" d="M976.3,1434.34h0c.14-.81,0-2.64,0,0" transform="translate(-249.69 -213.9)"/><path class="cls-20" d="M972.3,1400.13l-.09-.25-.28-.6c-.25-.44-.43-.41.37.85" transform="translate(-249.69 -213.9)"/><path class="cls-20" d="M987.56,1384c-9.18-17.39-24-31.52-40.56-41.83-18-11.2-38.37-18.18-58.75-23.5a447.26,447.26,0,0,0-67.37-12c-41.61-4.24-84.56-2.93-125.52,6-35.7,7.77-70.93,22.51-97.86,47.72-1.3,1.23-2.56,2.49-3.81,3.77-1,.59-2.1,1.18-3.13,1.79-8.83,5.26-17.55,11.17-24.84,18.47a69.19,69.19,0,0,0-16.59,26.55c-6.59,19.24-3.81,40.6,4,59s21.87,33.14,37.57,45.14c15.49,11.84,33,20.81,50.86,28.54A370.1,370.1,0,0,0,704,1564.52c38.23,9,78.1,12.15,117.13,7.08,37.7-4.91,74.78-16.65,106.62-37.86,15.86-10.57,30.59-23.13,42.34-38.2,12.17-15.6,22-33.52,25.76-53.14,3.8-20.05,1.24-40.3-8.33-58.42m-42-17.72-.43-.32c-1-1.16,0,0,.43.32m31.37,60.55c-.06,2.16-.23,4.31-.47,6.44l-.16,1.29v-.2c-.18,1.07-.35,2.12-.56,3.18a99.32,99.32,0,0,1-3.52,12.91c-.69,2-1.51,3.9-2.23,5.86,1.12-3-.28.55-.56,1.16-.54,1.22-1.13,2.43-1.72,3.61a122.31,122.31,0,0,1-6.66,11.67c-1.09,1.71-2.22,3.4-3.39,5-.65.92-1.32,1.84-2,2.74l-1.23,1.62.8-1-.85,1.07a151.31,151.31,0,0,1-18.54,19.43c-1.66,1.45-3.33,2.88-5,4.28l-2.31,1.86-1.3,1q-5.24,4-10.74,7.6a208.31,208.31,0,0,1-23.07,13.16c-1.86.91-3.75,1.8-5.63,2.67l-3,1.34c-.51.21-1,.43-1.5.65l-.13,0-.13,0c-4.07,1.65-8.16,3.25-12.3,4.69a251.1,251.1,0,0,1-25.43,7.37q-6.48,1.52-13,2.7c-2.2.41-4.38.76-6.58,1.12l-3.29.49-1.3.18c-8.94,1.13-17.89,1.9-26.9,2.23s-18,.26-27.07-.2q-6.68-.34-13.3-1-3.16-.3-6.3-.65l-3-.36-2.07-.27-.16,0-.15,0a364,364,0,0,1-60.46-13.86c-5-1.61-10-3.35-14.93-5.18q-3.25-1.23-6.49-2.5l-3.58-1.43-1.78-.74c-.54-.22-3.28-1.28-.71-.3a235.55,235.55,0,0,1-26.6-12.68,199.3,199.3,0,0,1-23.13-14.34c-.88-.64-1.75-1.29-2.62-1.94l-1.19-.95c-1.76-1.41-3.48-2.87-5.15-4.36a114.78,114.78,0,0,1-9.77-9.71c-1.37-1.54-2.69-3.12-4-4.73l-.92-1.26c-.73-1-1.44-2-2.14-3a83,83,0,0,1-6.55-11.72l-.44-.95c-.33-.89-.69-1.75-1-2.65q-1.25-3.39-2.18-6.89c-.55-2-1-4-1.38-6.07-.16-.9-.3-1.79-.45-2.68v0c-.06-.65-.14-1.3-.2-1.94a74.21,74.21,0,0,1,0-12.91l.13-1.11c.16-1,.35-2.06.55-3.08a63.57,63.57,0,0,1,1.64-6.16c.33-1,.68-2,1.07-3l.47-1.19,0,.2,0,0a55.71,55.71,0,0,1,3.06-5.64c.6-1,1.21-1.88,1.86-2.79l.42-.62c-.93,1.42.35-.41.5-.58a65,65,0,0,1,4.7-5.11c1.1-1.08,2.25-2.11,3.39-3.12,5.08,2.12,10,.17,13.19-4.22l.74-1-.06,0,.07-.07.4-.52.45-.45c.37-.48.72-1,1.07-1.42,1.39-1.7,2.84-3.38,4.32-5,.67-.73,1.37-1.43,2-2.14q11.57-6.54,23.68-11.94c1.15-.51,2.3-1,3.46-1.5.51-.23,1-.42,1.51-.64,2.28-.92,4.56-1.82,6.86-2.69q7.23-2.75,14.61-5.07c5.17-1.65,9-7.3,7.26-12.78a12,12,0,0,0-1-2.13l.89-.35q6-2.31,12.11-4.28c8.29-2.66,16.73-4.89,25.25-6.73q6.46-1.41,13-2.52c1.91-.33,3.81-.64,5.72-.93l3.18-.48,1.28-.17.41,0a411.7,411.7,0,0,1,61.7-3.15q16.23.35,32.39,1.92c2.52.25,5.06.52,7.57.81l4,.47,1.6.2.94.13c5.37.75,10.75,1.57,16.1,2.52,20.27,3.58,40.58,8.32,59.93,15.43,2.32.86,4.63,1.75,6.91,2.68l1,.41.63.29c1.13.49,2.26,1,3.37,1.52a146.26,146.26,0,0,1,13.4,7.07c2,1.19,4,2.46,6,3.76.93.63,1.85,1.26,2.76,1.91l1.07.77,1,.78.45.33,0,0,1,.82c.85.7,1.69,1.4,2.52,2.12,1.82,1.57,3.58,3.22,5.3,4.9,1.39,1.39,2.75,2.83,4.07,4.29.72.81,1.45,1.63,2.15,2.47l1,1.26.21.26c.09.68,1.52,2,1.92,2.59.55.79,1.11,1.6,1.65,2.41,1.25,1.91,2.42,3.86,3.53,5.85,1,1.81,1.89,3.65,2.75,5.52l.16.45.18.36.1.24.2.43-.11-.18c.4,1,.79,2.1,1.16,3.17a73.63,73.63,0,0,1,3,12.43c0,.46.11.93.15,1.4.1,1.08.18,2.15.24,3.23.11,2.15.11,4.3,0,6.45" transform="translate(-249.69 -213.9)"/><path class="cls-20" d="M599.09,1389.26l-.85,1,0,0C599.18,1389.41,599.27,1389.15,599.09,1389.26Z" transform="translate(-249.69 -213.9)"/><path class="cls-20" d="M570.35,1413.36" transform="translate(-249.69 -213.9)"/><path class="cls-21" d="M976.3,1434.34h0c.14-.81,0-2.64,0,0" transform="translate(-249.69 -213.9)"/><path class="cls-21" d="M972.3,1400.13l-.09-.25-.28-.6c-.25-.44-.43-.41.37.85" transform="translate(-249.69 -213.9)"/><path class="cls-21" d="M561.5,1389l-.39.89c-8,20.52-7.7,43.16-.79,63.94a116.12,116.12,0,0,0,38.07,53.76c10.2,8.1,22,14.37,33.72,19.91A297.81,297.81,0,0,0,673.28,1543c14,4.22,28.32,7.64,42.66,10.76,14.69,3.19,29.47,6.1,44.36,8.19,29.4,4.11,59.9,4.93,88.82-2.72a229.13,229.13,0,0,0,67.46-30.43c20.37-13.48,39-30.66,51.51-51.8a141.84,141.84,0,0,0,14.74-36,121.16,121.16,0,0,0,4.08-39.7,93.88,93.88,0,0,0-6.84-29.21A119.47,119.47,0,0,0,947,1342.15c-18-11.2-38.37-18.18-58.75-23.5a447.26,447.26,0,0,0-67.37-12c-41.61-4.24-84.56-2.93-125.52,6-35.7,7.77-70.93,22.51-97.86,47.72-1.3,1.23-2.56,2.49-3.81,3.77-1,.59-2.1,1.18-3.13,1.79-8.83,5.26-17.55,11.17-24.84,18.47-1.5,1.5-2.89,3.06-4.22,4.67m384-22.78-.43-.32c-1-1.16,0,0,.43.32m-379,61.43.13-1.11c.16-1,.35-2.06.55-3.08a63.57,63.57,0,0,1,1.64-6.16c.33-1,.68-2,1.07-3l.47-1.19,0,.2,0,0a55.71,55.71,0,0,1,3.06-5.64c.6-1,1.21-1.88,1.86-2.79l.42-.62c-.93,1.42.35-.41.5-.58a65,65,0,0,1,4.7-5.11c1.1-1.08,2.25-2.11,3.39-3.12,5.08,2.12,10,.17,13.19-4.22l.74-1-.06,0,.07-.07.4-.52.45-.45c.37-.48.72-1,1.07-1.42,1.39-1.7,2.84-3.38,4.32-5,.67-.73,1.37-1.43,2-2.14q11.57-6.54,23.68-11.94c1.15-.51,2.3-1,3.46-1.5.51-.23,1-.42,1.51-.64,2.28-.92,4.56-1.82,6.86-2.69q7.23-2.75,14.61-5.07c5.17-1.65,9-7.3,7.26-12.78a12,12,0,0,0-1-2.13l.89-.35q6-2.31,12.11-4.28c8.29-2.66,16.73-4.89,25.25-6.73q6.46-1.41,13-2.52c1.91-.33,3.81-.64,5.72-.93l3.18-.48,1.28-.17.41,0a411.7,411.7,0,0,1,61.7-3.15q16.23.35,32.39,1.92c2.52.25,5.06.52,7.57.81l4,.47,1.6.2.94.13c5.37.75,10.75,1.57,16.1,2.52,20.27,3.58,40.58,8.32,59.93,15.43,2.32.86,4.63,1.75,6.91,2.68l1,.41.63.29c1.13.49,2.26,1,3.37,1.52a146.26,146.26,0,0,1,13.4,7.07c2,1.19,4,2.46,6,3.76.93.63,1.85,1.26,2.76,1.91l1.07.77,1,.78.45.33,0,0,1,.82c.85.7,1.69,1.4,2.52,2.12,1.82,1.57,3.58,3.22,5.3,4.9,1.39,1.39,2.75,2.83,4.07,4.29.72.81,1.45,1.63,2.15,2.47l1,1.26.21.26c.09.68,1.52,2,1.92,2.59.55.79,1.11,1.6,1.65,2.41,1.25,1.91,2.42,3.86,3.53,5.85,1,1.81,1.89,3.65,2.75,5.52l.16.45.18.36.1.24.2.43-.11-.18c.4,1,.79,2.1,1.16,3.17a73.63,73.63,0,0,1,3,12.43c0,.46.11.93.15,1.4.1,1.08.18,2.15.24,3.23.11,2.15.11,4.3,0,6.45s-.23,4.31-.47,6.44l-.16,1.29v-.2c-.18,1.07-.35,2.12-.56,3.18a99.32,99.32,0,0,1-3.52,12.91c-.69,2-1.51,3.9-2.23,5.86,1.12-3-.28.55-.56,1.16-.54,1.22-1.13,2.43-1.72,3.61a122.31,122.31,0,0,1-6.66,11.67c-1.09,1.71-2.22,3.4-3.39,5-.65.92-1.32,1.84-2,2.74l-1.23,1.62.8-1-.85,1.07a151.31,151.31,0,0,1-18.54,19.43c-1.66,1.45-3.33,2.88-5,4.28l-2.31,1.86-1.3,1q-5.24,4-10.74,7.6a208.31,208.31,0,0,1-23.07,13.16c-1.86.91-3.75,1.8-5.63,2.67l-3,1.34c-.51.21-1,.43-1.5.65l-.13,0-.13,0c-4.07,1.65-8.16,3.25-12.3,4.69a251.1,251.1,0,0,1-25.43,7.37q-6.48,1.52-13,2.7c-2.2.41-4.38.76-6.58,1.12l-3.29.49-1.3.18c-8.94,1.13-17.89,1.9-26.9,2.23s-18,.26-27.07-.2q-6.68-.34-13.3-1-3.16-.3-6.3-.65l-3-.36-2.07-.27-.16,0-.15,0a364,364,0,0,1-60.46-13.86c-5-1.61-10-3.35-14.93-5.18q-3.25-1.23-6.49-2.5l-3.58-1.43-1.78-.74c-.54-.22-3.28-1.28-.71-.3a235.55,235.55,0,0,1-26.6-12.68,199.3,199.3,0,0,1-23.13-14.34c-.88-.64-1.75-1.29-2.62-1.94l-1.19-.95c-1.76-1.41-3.48-2.87-5.15-4.36a114.78,114.78,0,0,1-9.77-9.71c-1.37-1.54-2.69-3.12-4-4.73l-.92-1.26c-.73-1-1.44-2-2.14-3a83,83,0,0,1-6.55-11.72l-.44-.95c-.33-.89-.69-1.75-1-2.65q-1.25-3.39-2.18-6.89c-.55-2-1-4-1.38-6.07-.16-.9-.3-1.79-.45-2.68v0c-.06-.65-.14-1.3-.2-1.94a74.21,74.21,0,0,1,0-12.91" transform="translate(-249.69 -213.9)"/><path class="cls-21" d="M599.09,1389.26l-.85,1,0,0C599.18,1389.41,599.27,1389.15,599.09,1389.26Z" transform="translate(-249.69 -213.9)"/><path class="cls-21" d="M570.35,1413.36" transform="translate(-249.69 -213.9)"/><path class="cls-20" d="M1092.91,1381.41" transform="translate(-249.69 -213.9)"/><path class="cls-20" d="M1369.16,1396.25a90.78,90.78,0,0,0-13.53-43.59c-7.86-12.51-18.38-22.84-30.33-31.4-25.44-18.24-56.89-26.19-87.76-28.19a272,272,0,0,0-50.62,1.81c-17,2.1-34,5.07-50.48,10.11-15.53,4.77-30.75,11.26-44.39,20.14a136.54,136.54,0,0,0-34.18,31.37,104.59,104.59,0,0,0-10.94,17.54,11.11,11.11,0,0,0-1,8,10.54,10.54,0,0,0,4.78,6.2c4.68,2.48,11.64,1.49,14.2-3.72a101.85,101.85,0,0,1,8.52-14.27c.41-.59.83-1.17,1.27-1.76l.5-.64,0-.06c.68-.86,1.39-1.7,2.08-2.51q2.67-3.13,5.53-6.06c2-2,4-4,6.14-5.85a54.67,54.67,0,0,1,6.53-5.43,4.49,4.49,0,0,1-.61.48c-.46.35-.92.7-.4.31l.88-.66c.52-.38,1-.76,1.55-1.13,1.19-.87,2.38-1.7,3.59-2.52.51-.35,1-.67,1.54-1-22.72,18-41.23,42.31-47.61,71a103.62,103.62,0,0,0,.35,47.16,88.06,88.06,0,0,0,22.88,40.79c10.94,11,24.5,19.36,38.73,25.43a172,172,0,0,0,47.72,12.56c30.72,3.68,62.59-.87,91.69-11.07s57.28-25.7,78.75-48c21.72-22.54,36.25-53.25,34.64-85m-21.31,15a103.36,103.36,0,0,1-6.31,23,110.35,110.35,0,0,1-10.52,18.92c-1,1.37-1.94,2.7-3,4l-.47.59c-.7.88-1.41,1.74-2.14,2.59-2.41,2.85-4.94,5.58-7.58,8.22s-5.26,5-8,7.41c-1.35,1.16-2.71,2.28-4.1,3.4-.58.46-3.38,2.49-.55.46-.77.54-1.49,1.13-2.25,1.69a190.3,190.3,0,0,1-18.91,12.26,229.15,229.15,0,0,1-21.87,10.85,218.05,218.05,0,0,1-52.9,14.58,187.53,187.53,0,0,1-46.27.18,157.68,157.68,0,0,1-37.37-10.11,135.89,135.89,0,0,1-15.22-7.73q-3.92-2.33-7.64-5c-.61-.43-1.23-.88-1.84-1.33l-.47-.39.33.29c-1.06-.94-2.23-1.78-3.29-2.7q-3.33-2.87-6.36-6c-1.05-1.09-2.05-2.21-3-3.36-.5-.56-1-1.16-1.44-1.72l-.13-.17a75.32,75.32,0,0,1-8.32-14.44,85.85,85.85,0,0,1-5-18.64,94.18,94.18,0,0,1,0-21.75,98.47,98.47,0,0,1,6-21.89,108.84,108.84,0,0,1,7-13.51c1.46-2.34,3-4.64,4.57-6.87.74-1.06,1.56-2.06,2.31-3.11l-.3.41.36-.49c.4-.5.81-1,1.23-1.49a126.62,126.62,0,0,1,11.14-11.91c2-1.91,4.07-3.74,6.18-5.52,1-.83,2-1.65,3-2.45l.31-.25,1.54-1.14c2.25-1.66,4-3.41,4.77-6.21a10.38,10.38,0,0,0-7.26-12.78,12.81,12.81,0,0,0-5-.17,154.62,154.62,0,0,1,15.93-8c18.94-7.78,39-12.24,59.22-15.06,22-2.85,44.28-3.64,66.3-.86a168,168,0,0,1,40.21,10.6,129.37,129.37,0,0,1,26,15l.11.08,1,.82c1.06.86,2.1,1.74,3.14,2.64,1.91,1.67,3.78,3.42,5.58,5.23s3.59,3.79,5.28,5.79c.39.45.76.9,1.13,1.36l.48.61.36.48c.45.61.9,1.22,1.32,1.85a84.24,84.24,0,0,1,8,14.19,80.07,80.07,0,0,1,4.6,17,90.14,90.14,0,0,1-.06,20.44" transform="translate(-249.69 -213.9)"/><path class="cls-20" d="M1100.46,1494.91" transform="translate(-249.69 -213.9)"/><path class="cls-20" d="M1092.91,1381.41" transform="translate(-249.69 -213.9)"/><path class="cls-21" d="M1059.77,1375.53c1.9-3.27,7-.29,5.09,3a45.47,45.47,0,0,0-4.28,10.08,8.58,8.58,0,0,0,4.28-4.07,101.85,101.85,0,0,1,8.52-14.27c.41-.59.83-1.17,1.27-1.76l.5-.64,0-.06c.68-.86,1.39-1.7,2.08-2.51q2.67-3.13,5.53-6.06c2-2,4-4,6.14-5.85a54.67,54.67,0,0,1,6.53-5.43,4.49,4.49,0,0,1-.61.48c-.46.35-.92.7-.4.31l.88-.66c.52-.38,1-.76,1.55-1.13,1.19-.87,2.38-1.7,3.59-2.52.51-.35,1-.67,1.54-1-19.4,15.34-35.7,35.34-44,58.72a105,105,0,0,0-.37,14.08,128.05,128.05,0,0,0,4.21,27.92c2.28,8.58,5.81,16.42,9.53,24.45,4.5,9.71,9.28,19.59,16.5,27.6,7.42,8.23,17.22,14,27.39,18.18a251.37,251.37,0,0,0,33,11c24.16,6.21,49.6,7.48,74.11,2.56a217.76,217.76,0,0,0,63.21-23.39,174.93,174.93,0,0,0,50.67-42.34c13-16.11,22.72-35.55,24.57-56.38a85.29,85.29,0,0,0-12.23-51.48c-9.81-16.34-24.34-29.94-40.41-40-6.07-3.8-12.84-6.48-19.15-9.86-2-1.08-4-2.21-5.93-3.44a205.38,205.38,0,0,0-45.53-7.89,272,272,0,0,0-50.62,1.81c-17,2.1-34,5.07-50.48,10.11-15.53,4.77-30.75,11.26-44.39,20.14a136.54,136.54,0,0,0-34.18,31.37,104.59,104.59,0,0,0-10.94,17.54,11.11,11.11,0,0,0-1,8,10.54,10.54,0,0,0,4.78,6.2,11.2,11.2,0,0,0,3.59,1.16,53.1,53.1,0,0,1,5.52-13.88m45.87-8c2-1.91,4.07-3.74,6.18-5.52,1-.83,2-1.65,3-2.45l.31-.25,1.54-1.14c2.25-1.66,4-3.41,4.77-6.21a10.38,10.38,0,0,0-7.26-12.78,12.81,12.81,0,0,0-5-.17,154.62,154.62,0,0,1,15.93-8c18.94-7.78,39-12.24,59.22-15.06,22-2.85,44.28-3.64,66.3-.86a168,168,0,0,1,40.21,10.6,129.37,129.37,0,0,1,26,15l.11.08,1,.82c1.06.86,2.1,1.74,3.14,2.64,1.91,1.67,3.78,3.42,5.58,5.23s3.59,3.79,5.28,5.79c.39.45.76.9,1.13,1.36l.48.61.36.48c.45.61.9,1.22,1.32,1.85a84.24,84.24,0,0,1,8,14.19,80.07,80.07,0,0,1,4.6,17,90.14,90.14,0,0,1-.06,20.44,103.36,103.36,0,0,1-6.31,23,110.35,110.35,0,0,1-10.52,18.92c-1,1.37-1.94,2.7-3,4l-.47.59c-.7.88-1.41,1.74-2.14,2.59-2.41,2.85-4.94,5.58-7.58,8.22s-5.26,5-8,7.41c-1.35,1.16-2.71,2.28-4.1,3.4-.58.46-3.38,2.49-.55.46-.77.54-1.49,1.13-2.25,1.69a190.3,190.3,0,0,1-18.91,12.26,229.15,229.15,0,0,1-21.87,10.85,218.05,218.05,0,0,1-52.9,14.58,187.53,187.53,0,0,1-46.27.18,157.68,157.68,0,0,1-37.37-10.11,135.89,135.89,0,0,1-15.22-7.73q-3.92-2.33-7.64-5c-.61-.43-1.23-.88-1.84-1.33l-.47-.39.33.29c-1.06-.94-2.23-1.78-3.29-2.7q-3.33-2.87-6.36-6c-1.05-1.09-2.05-2.21-3-3.36-.5-.56-1-1.16-1.44-1.72l-.13-.17a75.32,75.32,0,0,1-8.32-14.44,85.85,85.85,0,0,1-5-18.64,94.18,94.18,0,0,1,0-21.75,98.47,98.47,0,0,1,6-21.89,108.84,108.84,0,0,1,7-13.51c1.46-2.34,3-4.64,4.57-6.87.74-1.06,1.56-2.06,2.31-3.11l-.3.41.36-.49c.4-.5.81-1,1.23-1.49a126.62,126.62,0,0,1,11.14-11.91" transform="translate(-249.69 -213.9)"/><path class="cls-20" d="M1100.46,1494.91" transform="translate(-249.69 -213.9)"/><path class="cls-20" d="M1139.71,1439.55" transform="translate(-249.69 -213.9)"/><path class="cls-20" d="M1185.38,1482c-.91-16.69-7.58-31.7-18.09-44.53-9.83-12-23.08-21.12-37.1-27.5-15.42-7-31.76-11.55-48.34-14.92a353.83,353.83,0,0,0-52.49-6.63,346.43,346.43,0,0,0-102.91,10.31c-27,6.9-55,18.6-72.09,41.21a8.88,8.88,0,0,0-3-1.33,10.61,10.61,0,0,0-12.78,7.25c-8,26-6.94,54.81,2,80.44,9.28,26.69,26.34,50.13,49.76,66.11,25.4,17.33,56.45,24.59,86.85,25.67a268.59,268.59,0,0,0,46.55-2.81,291.83,291.83,0,0,0,42.55-9.08c28.93-8.52,56.69-22,79.24-42.29,11.32-10.17,21.36-22.21,28.48-35.7,7.42-14.08,12.24-30.14,11.38-46.2m-21.14,11a83.11,83.11,0,0,1-5,17.93,104.27,104.27,0,0,1-10.23,18.23c-.48.71-1,1.41-1.49,2.09l-.67.92-.29.37-.17.23-.71.89c-.66.8-1.33,1.6-2,2.39-2.27,2.65-4.66,5.21-7.12,7.68s-5,4.82-7.61,7.1c-1.3,1.14-2.63,2.25-4,3.35l-1.64,1.3-1,.76a167.06,167.06,0,0,1-17.42,11.4,196.86,196.86,0,0,1-20,10,262.63,262.63,0,0,1-52.31,15.26c-4.77.9-9.54,1.66-14.34,2.33-19.69,2.53-39.68,3.09-59.4.6a158.43,158.43,0,0,1-37.1-9.86,130.33,130.33,0,0,1-16-8.29c-2.79-1.72-5.53-3.53-8.17-5.48-.44-.33-.89-.71-1.35-1l-.08-.08c-1.17-.91-2.3-1.87-3.42-2.84A112.7,112.7,0,0,1,880.58,1556c-.91-1-1.78-2.13-2.65-3.21l.55.71-.61-.78-.06-.09-.06-.07c-.28-.36-.71-1-.34-.48-.34-.45-.68-.9-1-1.35-1.65-2.27-3.21-4.61-4.7-7a114.87,114.87,0,0,1-16.84-46.49A124.32,124.32,0,0,1,854,1484a8.24,8.24,0,0,0,1.8-.86c2.1-1.36,4.38-3.59,4.77-6.21a57.51,57.51,0,0,1,3.38-12.55,67.06,67.06,0,0,1,6.89-11.82l.3-.39-.3.33,1-1.26c.8-1,1.63-1.93,2.48-2.86,1.77-1.94,3.64-3.78,5.57-5.54,1-.85,1.89-1.66,2.86-2.46.51-.41,1-.78,1.48-1.19l-.26.24.1-.08c2.27-1.67,4.61-3.23,7-4.69a117.87,117.87,0,0,1,14.32-7.35,212.77,212.77,0,0,1,30.05-9.42q16.31-4,32.93-6.27a339.33,339.33,0,0,1,68.77-1.95c6.46.47,12.89,1.15,19.32,2,20.64,2.89,41.56,7.29,60.89,15.2a119.81,119.81,0,0,1,15.31,7.91c2.28,1.4,4.5,2.9,6.66,4.48l.38.3-.33-.27c.54.46,1.13.89,1.69,1.36,1,.8,1.94,1.63,2.88,2.48,2,1.82,4,3.74,5.79,5.74.87.94,1.7,1.89,2.5,2.86l.62.72.43.59a69.39,69.39,0,0,1,7.49,12.76,63.06,63.06,0,0,1,3.55,13,67.12,67.12,0,0,1-.1,14.17" transform="translate(-249.69 -213.9)"/><path class="cls-20" d="M884,1439.42" transform="translate(-249.69 -213.9)"/><path class="cls-20" d="M871.14,1452.15" transform="translate(-249.69 -213.9)"/><polygon class="cls-20" points="628.12 1338.68 628.23 1338.84 627.72 1338.13 628.12 1338.68"/><path class="cls-20" d="M1139.71,1439.55" transform="translate(-249.69 -213.9)"/><path class="cls-21" d="M859.73,1433.57c-.9,1.63-1.77,3.27-2.56,5-5.75,12.21-8.48,25.83-9.1,39.26a128.13,128.13,0,0,0,4.89,41.9c3.76,12.89,9.74,25.42,18.62,35.59,5.06,5.77,11.1,10.68,17.17,15.35a160.68,160.68,0,0,0,67.44,30.76c19.55,4,39.55,3.55,59.34,2.11,10.18-.73,20.45-1.28,30.52-3a201.52,201.52,0,0,0,28.59-7.34c16.93-5.58,34-12,49.16-21.53,26.83-16.84,46-42.4,59.58-70.68l.73-1a74.93,74.93,0,0,0,1.27-17.94c-.91-16.69-7.58-31.7-18.09-44.53-9.83-12-23.08-21.12-37.1-27.5-15.42-7-31.76-11.55-48.34-14.92a353.83,353.83,0,0,0-52.49-6.63,346.43,346.43,0,0,0-102.91,10.31c-24.29,6.22-49.48,16.38-66.72,34.86m11.11,19,.3-.39-.3.33,1-1.26c.8-1,1.63-1.93,2.48-2.86,1.77-1.94,3.64-3.78,5.57-5.54,1-.85,1.89-1.66,2.86-2.46.51-.41,1-.78,1.48-1.19l-.26.24.1-.08c2.27-1.67,4.61-3.23,7-4.69a117.87,117.87,0,0,1,14.32-7.35,212.77,212.77,0,0,1,30.05-9.42q16.31-4,32.93-6.27a339.33,339.33,0,0,1,68.77-1.95c6.46.47,12.89,1.15,19.32,2,20.64,2.89,41.56,7.29,60.89,15.2a119.81,119.81,0,0,1,15.31,7.91c2.28,1.4,4.5,2.9,6.66,4.48l.38.3-.33-.27c.54.46,1.13.89,1.69,1.36,1,.8,1.94,1.63,2.88,2.48,2,1.82,4,3.74,5.79,5.74.87.94,1.7,1.89,2.5,2.86l.62.72.43.59a69.39,69.39,0,0,1,7.49,12.76,63.06,63.06,0,0,1,3.55,13,67.12,67.12,0,0,1-.1,14.17,83.11,83.11,0,0,1-5,17.93,104.27,104.27,0,0,1-10.23,18.23c-.48.71-1,1.41-1.49,2.09l-.67.92-.29.37-.17.23-.71.89c-.66.8-1.33,1.6-2,2.39-2.27,2.65-4.66,5.21-7.12,7.68s-5,4.82-7.61,7.1c-1.3,1.14-2.63,2.25-4,3.35l-1.64,1.3-1,.76a167.06,167.06,0,0,1-17.42,11.4,196.86,196.86,0,0,1-20,10,262.63,262.63,0,0,1-52.31,15.26c-4.77.9-9.54,1.66-14.34,2.33-19.69,2.53-39.68,3.09-59.4.6a158.43,158.43,0,0,1-37.1-9.86,130.33,130.33,0,0,1-16-8.29c-2.79-1.72-5.53-3.53-8.17-5.48-.44-.33-.89-.71-1.35-1l-.08-.08c-1.17-.91-2.3-1.87-3.42-2.84A112.7,112.7,0,0,1,880.58,1556c-.91-1-1.78-2.13-2.65-3.21l.55.71-.61-.78-.06-.09-.06-.07c-.28-.36-.71-1-.34-.48-.34-.45-.68-.9-1-1.35-1.65-2.27-3.21-4.61-4.7-7a114.87,114.87,0,0,1-16.84-46.49A124.32,124.32,0,0,1,854,1484a8.24,8.24,0,0,0,1.8-.86c2.1-1.36,4.38-3.59,4.77-6.21a57.51,57.51,0,0,1,3.38-12.55,67.06,67.06,0,0,1,6.89-11.82" transform="translate(-249.69 -213.9)"/><path class="cls-20" d="M884,1439.42" transform="translate(-249.69 -213.9)"/><path class="cls-20" d="M871.14,1452.15" transform="translate(-249.69 -213.9)"/><polygon class="cls-20" points="628.12 1338.68 628.23 1338.84 627.72 1338.13 628.12 1338.68"/><path class="cls-22" d="M848.49,1336.26c-5.38-10.36-16.19-17.17-26.29-22.3-26.19-13.3-53.53-24.66-81-35.1s-55.45-19.76-83.67-28.08q-21.25-6.29-42.72-11.87c-14.54-3.79-29.14-7.83-44-10.12-14.41-2.22-29.29-2.87-43.5,1-11.57,3.16-22.81,9.19-31,18.07a52.3,52.3,0,0,0-10,15.77c-1.07,2.53.61,5.71,2.93,7.08a324.27,324.27,0,0,0-35.65,59.61,334,334,0,0,0-29.1,106.94,310,310,0,0,0,0,61.52c.47,4.71,4.93,7.75,9.37,5.38,24.29-12.94,50.46-21.44,77.41-28,27.23-6.67,54.91-11.34,82.43-16.7q44.19-8.65,87.65-20.51,43.68-12,86.37-27.22c13.86-4.94,27.75-10,41-16.33,12-5.73,24.63-12.63,33.45-22.77,4.3-4.92,8-10.77,9.11-17.29a29.64,29.64,0,0,0-2.93-19.06" transform="translate(-249.69 -213.9)"/><path class="cls-23" d="M715.77,1424.84c-27.13,3.72-54.56,5.82-81.06,13-13.6,3.71-27.45,6.46-41.3,9.13s-27.39,5.12-40.73,9.43c-13,4.19-25.7,9.33-39,12.27-13.64,3-27.42,5.29-41,8.48q-9.18,2.18-18.19,5c-4.42,1.41-9.46,2.76-13.89.72-6.19-2.85-6.54-8.56-6-14.47l-.33.58a3,3,0,0,1-5.4-.7c-2.27-6.67-2.48-13.79-2.05-20.76.44-7.15,1.09-14.32,1.68-21.46,1.68-20.41,6.23-40.38,11.23-60.2a332.12,332.12,0,0,0-15.11,71.34,310,310,0,0,0,0,61.52c.47,4.71,4.93,7.75,9.37,5.38,24.29-12.94,50.46-21.44,77.41-28,27.23-6.67,54.91-11.34,82.43-16.7q44.19-8.65,87.65-20.51,29-8,57.58-17.34c-7.78,1-15.51,2.19-23.27,3.25" transform="translate(-249.69 -213.9)"/><path class="cls-22" d="M1224,1301.89c-5.91-3.24-12.65-5.47-19-7.6-6.18-2-12.49-3.78-18.85-5.27a379.83,379.83,0,0,0-39.66-6.67c-25.93-3.2-52-5.52-78.1-7.19-52.56-3.38-105.48-3.21-157.62,4.61a452.85,452.85,0,0,0-76.08,18c-16.14,5.38-35,11.45-47.55,23.52,0-1.68.12-3.37.28-5,.34-3.36-3.1-6.23-6.23-6.23-3.65,0-5.89,2.87-6.22,6.23a64.74,64.74,0,0,0,1.31,20.8c-.33.8-.61,1.6-.89,2.42a34.59,34.59,0,0,0-1,18.3c.72,3.29,4.55,5.21,7.67,4.35a5.89,5.89,0,0,0,3-1.94c6.49,12.09,15.23,23.24,23.9,33.22,17.2,19.73,36.79,37.23,57.37,53.35,20.91,16.4,42.79,31.51,64.72,46.5s43.66,29.78,64.62,45.88c4.37,3.36,10,7.83,14.75,11.77q7.49,6.17,14.7,12.62a371.6,371.6,0,0,1,28,27.74c2.16,2.41,4.29,4.84,6.39,7.32,2.64,3.1,7.89,2,9.79-1.28l86.59-148q21.74-37.18,43.51-74.38,10.78-18.41,21.53-36.81c1.8-3.08,3.6-6.13,5.39-9.2a56.64,56.64,0,0,0,4.94-9.45c2.57-7.22-.73-14-7.25-17.54" transform="translate(-249.69 -213.9)"/><path class="cls-23" d="M1111.86,1521.66c-4.89,6.67-10,13.14-15.55,19.29-4.8,5.36-10,10.36-15.07,15.5-8.34,8.51-21.54,22.31-34.58,15-5.56-3.11-9.22-9-12.11-14.44-1.77-3.38-3.46-6.7-4.92-10.24a36.21,36.21,0,0,0-5.52-9.91c-.48-.54-1-1.09-1.49-1.58l-.23-.16h0l-.41.07a24.17,24.17,0,0,1-8.63-.53,56.23,56.23,0,0,1-18.41-7.81c-11.51-7.35-20.74-17.6-30.6-26.92-4.45-4.22-9.22-7.93-13.1-12.72-4.05-5-7.68-10.43-12.09-15.16a25.73,25.73,0,0,0-6.15-5.15,10.26,10.26,0,0,0-3.36-1.17h0a4.35,4.35,0,0,0,.16.88,14.75,14.75,0,0,0,.91,2.48,24.32,24.32,0,0,0,3.57,5.62c2.13,2.49-.57,6.34-3.58,4.63-12.16-6.9-23.35-15.68-34.4-24.22-26.72-20.64-53.7-42.77-84-58.15,16.4,18.24,34.8,34.58,54.09,49.7,20.91,16.4,42.79,31.5,64.72,46.51s43.66,29.77,64.62,45.87c4.37,3.36,10,7.83,14.75,11.77q7.49,6.17,14.7,12.62a371.6,371.6,0,0,1,28,27.74c2.16,2.41,4.29,4.84,6.39,7.32,2.64,3.1,7.89,2,9.79-1.27l54.91-93.87C1120.27,1509.59,1116.21,1515.71,1111.86,1521.66Z" transform="translate(-249.69 -213.9)"/><path class="cls-22" d="M1419.79,1359a555.54,555.54,0,0,0-10.58-68.6c-4.57-20.81-10.69-41.48-21.28-60.12a161.78,161.78,0,0,0-34.38-41.91,165.36,165.36,0,0,0-47.21-28.77,128.37,128.37,0,0,0-26.71-7.7c-10.18-1.66-20.83-2-30.83,1-10.37,3.17-18.59,9.91-25.39,18.17-7,8.51-13.46,17.53-19.93,26.45q-19.51,26.94-37.31,55.08-17.72,28-33.64,57l-.24.44c-2.54-1.74-6-2.21-8.35.33-2,2.23-2.77,6.67,0,8.81.79.63,1.62,1.24,2.43,1.87-.49.92-1,1.84-1.49,2.77-1.52,2.88-.83,6.9,2.23,8.52,2.88,1.52,6.9.84,8.53-2.23.26-.49.52-1,.79-1.45q22.74,16.9,46.81,31.92c18.12,11.25,36.76,21.61,55.52,31.75s37.61,20,56.24,30.29,37,21,54.73,32.7c8.78,5.81,17.39,11.88,25.75,18.27l1.12.86,1.05.81,3.19,2.51q3.06,2.45,6.07,4.94c4.08,3.4,8.11,6.89,12,10.47,2,1.76,3.87,3.56,5.76,5.36,3.07,2.93,9.66,2.11,10.42-2.75a562.5,562.5,0,0,0,6.63-68.79,546.42,546.42,0,0,0-2-68.07" transform="translate(-249.69 -213.9)"/><path class="cls-23" d="M1419.79,1359a555.54,555.54,0,0,0-10.58-68.6c-3.33-15.17-7.5-30.27-13.61-44.57a266.53,266.53,0,0,1,8.15,53.59c.54,11.93,1,23.86,1.89,35.78.71,10,1.48,20.38,2.84,29.65,1.13,7.73,2.31,15.48,2.68,23.29a62.37,62.37,0,0,1-.27,10.76c-.4,3-1,6.09-2.8,8.55a3,3,0,0,1-4,1.06l-.89-.67c.43,3.47.89,6.64,1.41,10.44,1.2,8.9,2.42,17.94,2.08,27-.24,6.63-1.26,15.08-7.39,19-9,5.78-18.58-3.38-25.22-8.58a46.5,46.5,0,0,0-6.74-4.62c-3.12-1.63-6.3-3.08-9.3-4.95-1.74-1.09-3.41-2.27-5-3.52a2.89,2.89,0,0,1-3.86,1c-19.52-10.57-39-21.39-58.93-31.15-33.18-16.21-68-29.39-99.09-49.68-16-10.46-32.13-20.86-47-33-4.74-3.86-9.1-8.17-13.8-12.13a54.79,54.79,0,0,0-7.48-5.45h0c-1,2.32-1,5.37,1.15,7,.79.63,1.62,1.24,2.43,1.87-.49.92-1,1.84-1.49,2.77-1.52,2.88-.83,6.9,2.23,8.52,2.88,1.52,6.9.84,8.53-2.23.26-.49.52-1,.79-1.45q22.74,16.9,46.81,31.92c18.12,11.25,36.76,21.61,55.52,31.75s37.61,20,56.24,30.29,37,21,54.73,32.7c8.78,5.81,17.39,11.88,25.75,18.27l1.12.86,1.05.81,3.19,2.51q3.06,2.45,6.07,4.94c4.08,3.4,8.11,6.89,12,10.47,2,1.76,3.87,3.56,5.76,5.36,3.07,2.93,9.66,2.11,10.42-2.75a562.5,562.5,0,0,0,6.63-68.79,546.42,546.42,0,0,0-2-68.07" transform="translate(-249.69 -213.9)"/><path class="cls-24" d="M1418.07,1202.48c-5.65-3.44-11.71-6.1-17.47-9.31-4.76-2.64-10.13-5.79-12.66-10.86-6.58-13.22,10.32-27.43,15.4-38.39,7.92-17.13,1.11-35.31-13.93-46-16.39-11.61-39.1-12.66-58.44-13.62a401.15,401.15,0,0,0-65.92,2.62c-44.21,5-87.62,15.08-131.45,22.46A592.77,592.77,0,0,1,999.31,1117c-90.33-5.4-178.67-27.46-268.85-34.43-78.59-6.07-168.27.73-224.17,63.69a145.8,145.8,0,0,0-26.81,43.52,6.42,6.42,0,0,0-.44,1.82l-62.56,44.62c-10.2,7.27-22.32,14.37-27.1,26.58-3.83,9.77-2.12,21.51,3.66,30.19,7.07,10.61,18.26,15,30.81,14.58,11.08-.34,25-5,35,2.2,5.21,3.78,4.6,9.42,2.8,15-2.05,6.31-4.86,12.22-5.37,18.93-.85,11.17,4,22.65,11.95,30.39,9.85,9.58,22.72,11.7,35.88,9.82,9.63-1.37,19.59-4.95,29.41-5.19-3.93,6.92-4.47,15.9-1.74,23.85,5.88,17,24.48,22.77,41,22.14,20.45-.77,39.94-8.47,60.34-9.79,10.32-.67,20.82.22,30.23,4.83,8.72,4.28,16.19,10.66,25.22,14.35,18.46,7.56,37.87,2,55.23-5.76,18.83-8.46,36.2-19.32,56.5-24.16a128.24,128.24,0,0,1,30.68-3.47c21.07.14,44,12.84,62.58-2.41,6-4.93,10.24-11.69,16.22-16.6,12.23-10,31.41-10.35,44-.73,14.56,11.14,22.14,23,41.9,26.32a50,50,0,0,0,27.8-2.78c8.64-3.58,15.93-9.29,23.66-14.44s15.87-9.16,25.52-9.32c10-.17,19.78,2.48,29.57,4.24,9.54,1.74,19.1,2.78,28.72,1.17,8.06-1.34,15.74-4.51,23-8.16,14.23-7.15,27.2-17.49,42.41-22.51,6.74-2.22,13.83-3.18,20.79-1.36,9.22,2.42,16.68,8.94,24.16,14.49a99.86,99.86,0,0,0,103.28,8.88c14.68-7.36,27.84-19.74,31.75-36.26,1.7-7.14,1.37-14.92-2.41-21.39a27.62,27.62,0,0,0-7.91-8.31c-2.53-1.83-7.43-3.76-8.18-7.15-.86-3.85,3.3-8.28,5.72-10.75a48.49,48.49,0,0,1,10.56-7.89c7.8-4.43,16.26-7.48,24.47-11,15.82-6.7,31.79-17.44,37.06-34.78,4.89-16-4.3-29.43-17.54-37.48" transform="translate(-249.69 -213.9)"/><path class="cls-25" d="M1418.07,1202.48c-5.65-3.44-11.71-6.1-17.47-9.31-4.76-2.64-10.13-5.79-12.66-10.86-6.58-13.22,10.32-27.43,15.4-38.39,7.92-17.13,1.11-35.31-13.93-46-11.31-8-25.62-11-39.76-12.39,11,13.68,15.52,31.59,21.39,48.21a28.34,28.34,0,0,1,5-10.73c1-1.34,3.29-2.23,4.63-.59,13.49,16.6,7.08,38.43,3.75,57.43-1.33,7.57-2.93,16.49,0,23.89,3.24,8.18,11.11,9.63,18.63,12,6.9,2.17,11.85,6.22,11.91,14,.12,11.21-10,16.68-17.52,23-15.34,12.87-34.92,22.57-46.51,39.38-2.79,4.05-5.25,8.81-5.8,13.78-.52,4.7.94,9.43,1.88,14,1.77,8.49,2.16,16.43-3.78,22.55,3.24,6.32-2.15,12.49-7.92,16.29-7.09,4.68-16.69,8.65-25.18,5.93-5.19-1.65-9.76-4.77-14.46-7.44-2.87-1.62-11.67-7-14.63-2.68-1.89,2.77,4.34,7,6.22,8.66,3.09,2.64,6.44,5.17,8.63,8.65.93,1.45.13,4.06-1.75,4.34-7.06,1-12.67-2.24-18.13-6.41-12.72-9.73-26.58-20.22-42-25.3-14-4.59-27.54-.92-40.65,4.7-8.26,3.54-16.11,8.17-24.83,10.56-7.93,2.18-16.11,2.41-24.27,2-8.82-.48-17.34.77-26.07,2-6.89.94-15.16,2.62-21.93.32-3.29-1.13-5.84-3.39-8.8-5.12-3.88-2.27-8-2.6-12.34-2a60.89,60.89,0,0,0-23.19,8.41c-12.31,7.79-20.93,21.64-35.12,26.45-6.74,2.29-13.94,1.56-20.63-.51-8-2.47-16.27-6.93-24.87-4.86a26.24,26.24,0,0,0-7.46,3.11c9.1,8.1,17.06,15.3,31.77,17.79a50,50,0,0,0,27.8-2.78c8.64-3.58,15.93-9.29,23.66-14.44s15.87-9.16,25.52-9.32c10-.17,19.78,2.48,29.57,4.24,9.54,1.74,19.1,2.78,28.72,1.17,8.06-1.34,15.74-4.51,23-8.16,14.23-7.15,27.2-17.49,42.41-22.51,6.74-2.22,13.83-3.18,20.79-1.36,9.22,2.42,16.68,8.94,24.16,14.49a99.86,99.86,0,0,0,103.28,8.88c14.68-7.36,27.84-19.74,31.75-36.26,1.7-7.14,1.37-14.92-2.41-21.39a27.62,27.62,0,0,0-7.91-8.31c-2.53-1.83-7.43-3.76-8.18-7.15-.86-3.85,3.3-8.28,5.72-10.75a48.49,48.49,0,0,1,10.56-7.89c7.8-4.43,16.26-7.48,24.47-11,15.82-6.7,31.79-17.44,37.06-34.78,4.89-16-4.3-29.43-17.54-37.48" transform="translate(-249.69 -213.9)"/><path class="cls-25" d="M793.05,1393.48c-19.42-.82-38,4.34-55.58,12.33-15.23,6.93-30.43,14-47.34,8.7-17.67-5.58-32.59-17.49-50.83-21.69-8.5-2-17.3-3.21-26-2.54-7.88.59-15.64,2.64-23.31,4.49-4.58,1.11-11.17,3.2-15.51.23-3.23-2.21-3.48-6.14-4.06-9.67-5.1-31-44.73-25.14-67.41-22.78-10.35,1.08-20.69-1.28-21.71-13.26-.46-5.46.43-11,1.69-16.48l-.42.48c-1.18,1.27-3.87,1.14-4.63-.59-3-6.8-4.77-14-7.44-21-2.23-5.78-5.94-16-13.51-15.78-1.78,0-3.57-2-2.86-3.73,1.06-2.68-.17-3.17-3.28-4.08-4.6-1.35-9.56-1.6-14.28-2.12-9.21-1-19.56-1.89-27.47-7.17-8.8-5.87-10.12-16.2-7.18-25.78a45.43,45.43,0,0,1,4.24-9.56c-7,5.18-13.52,11.07-16.73,19.26-3.83,9.77-2.12,21.51,3.66,30.19,7.07,10.61,18.26,15,30.81,14.58,11.08-.34,25-5,35,2.2,5.21,3.78,4.6,9.42,2.8,15-2.05,6.31-4.86,12.22-5.37,18.93-.85,11.17,4,22.65,11.95,30.39,9.85,9.58,22.72,11.7,35.88,9.82,9.63-1.37,19.59-4.95,29.41-5.19-3.93,6.92-4.47,15.9-1.74,23.85,5.88,17,24.48,22.77,41,22.14,20.45-.77,39.94-8.47,60.34-9.79,10.32-.67,20.82.22,30.23,4.83,8.72,4.28,16.19,10.66,25.22,14.35,18.46,7.56,37.87,2,55.23-5.76,18.83-8.46,36.2-19.32,56.5-24.16a127.74,127.74,0,0,1,29-3.45c-11.77-3.86-23.87-6.68-36.27-7.2" transform="translate(-249.69 -213.9)"/><path class="cls-12" d="M1350,1158.25c-11.1-35.72-32.91-67.32-58.27-94.44-49.36-52.74-114.63-89-183.43-109.68-80.12-24.09-165.33-27-248.19-19.29-81.22,7.61-164,23.11-236.94,61.21-62.24,32.52-117.7,83.37-145.38,148.88-14.61,34.59-20.41,74.59-3,109.28a112.77,112.77,0,0,0,39.09,43.24c1.35,1.11,2.7,2.19,4.08,3.25,30.82,23.64,69.43,34.3,107.22,40.33,85.76,13.67,173.53,13.43,260.11,11.36,89-2.13,178.12-5.66,266.94-12.6,21.2-1.65,42.41-3.38,63.57-5.65,18-2,36.07-4.49,53.46-9.7,17.11-5.12,33.36-12.89,47.11-24.39a109.09,109.09,0,0,0,29.45-39.89c14.16-32.22,14.58-68.54,4.19-101.91" transform="translate(-249.69 -213.9)"/><path class="cls-13" d="M1149.64,997.23c-19.92-9.16-41.51-13.25-62.57-18.88-25.52-6.83-51-14.14-76.9-19.31a335.56,335.56,0,0,0-38.88-5.63c-13.36-1.07-26.89-.68-40.25,0-26.83,1.44-53.5,5-80.33,6.56a2.52,2.52,0,0,1-2.75-2,27.48,27.48,0,0,0-3.71-.9,15.45,15.45,0,0,0-1.68-.11,2.94,2.94,0,0,1-2.64-1.74,219.13,219.13,0,0,0-40,13.62c-17,7.72-33.38,17.69-46.64,31a87.65,87.65,0,0,0-15.52,20.36,27.12,27.12,0,0,0-2.46,5.91,15.75,15.75,0,0,0-.84,5.15,10.18,10.18,0,0,0,.58,4.39l.43,1.25,0,.09v0l.18.39a20.43,20.43,0,0,0,1.21,2.13,24,24,0,0,0,7.17,6.47c8.06,5,17.76,7.26,27.32,9a265,265,0,0,0,36.43,3.62c24.71,1,49.47.07,74.15-1.26,7.79-.41,15.55-1,23.34-1.2,8.65-.25,17.38.4,26,.88,12.83.73,25.63,1.84,38.38,3.46a402.62,402.62,0,0,1,76.79,16.93c21.28,7.09,41.39,17,62.33,25,20.65,7.82,43.31,14.38,65.56,10.7,9.67-1.59,20-4.79,27.6-11.31a32,32,0,0,0,10.76-19.75c2.57-17.58-6.48-35.34-16.85-48.85C1183.79,1017.41,1167.64,1005.52,1149.64,997.23Z" transform="translate(-249.69 -213.9)"/><path class="cls-13" d="M1350,1158.25c-11.1-35.72-32.91-67.32-58.27-94.44-34-36.33-75.53-64.82-120.58-85.81a314.84,314.84,0,0,1,69,66.66c10.89,14.47,19.79,30,28.59,45.82,9.34,16.78,18.45,33.81,25.14,51.86,6.36,17.18,10.64,35.85,8,54.23-2.39,17-11.45,32.71-23.33,44.89-11.63,11.91-26.17,20.55-41.5,26.8-16.22,6.62-33.08,9.79-50.21,12.87-19.72,3.51-43.21,7.5-62-1.67-6.61-3.23-16.9-10.73-24.58-7.43-2.53,1.09-3.44,3.86-5,5.9-2.8,3.56-6.62,5.73-10.66,7.61a136.83,136.83,0,0,1-29.55,9.32c-10.59,2.24-21.28,4.21-32,6.05-22.65,3.91-45.53,6.54-68.42,8.52s-45.81,3.39-68.72,4.51c-22.17,1.1-44.61-.36-66.21-5.68a151.82,151.82,0,0,1-29.06-10c-8.58-4.07-16.87-8.83-25.87-11.93-7.34-2.52-16.65-4.47-24-.79-2.31,1.16-5,3.18-4.8,6.06.25,4.17,5.34,7.1,8.45,8.92a3,3,0,0,1-1.5,5.5c-42.53-.09-85.67-8.61-122.55-30.58-27.87-16.6-51.3-41.56-69.56-68.12s-32.55-57.76-33.77-90.37c-.64-16.8,3.12-32.74,9.72-47.6-20.32,22.35-37.23,47.65-49,75.62-14.61,34.59-20.41,74.59-3,109.28a112.77,112.77,0,0,0,39.09,43.24c1.35,1.11,2.7,2.19,4.08,3.25,30.82,23.64,69.43,34.3,107.22,40.33,85.76,13.67,173.53,13.43,260.11,11.36,89-2.13,178.12-5.66,266.94-12.6,21.2-1.65,42.41-3.38,63.57-5.65,18-2,36.07-4.49,53.46-9.7,17.11-5.12,33.36-12.89,47.11-24.39a109.09,109.09,0,0,0,29.45-39.89c14.16-32.22,14.58-68.54,4.19-101.91" transform="translate(-249.69 -213.9)"/><path class="cls-19" d="M594.54,1136.53l-.27-.93a4.34,4.34,0,0,0-2.7-2.41,15.06,15.06,0,0,0-7.28-1.52,8.81,8.81,0,0,0-4.09,1.31,9.22,9.22,0,0,0-2.8,2.9,7.91,7.91,0,0,0-1,2.85,3.5,3.5,0,0,0-.61,2.12,5,5,0,0,0,.57,2.09,4,4,0,0,0,1.91,1.67,7.26,7.26,0,0,0,6.86,1.81,9.88,9.88,0,0,0,4.33-2.35c1.23.2,2.47.38,3.72.5a4.11,4.11,0,0,0,2.94-1.21,4.43,4.43,0,0,0,1.15-2.39A4.16,4.16,0,0,0,594.54,1136.53Z" transform="translate(-249.69 -213.9)"/><path class="cls-19" d="M658.46,1042.4a4.21,4.21,0,0,0-1.82-1.07,16.15,16.15,0,0,0-5.8,0,9.77,9.77,0,0,0-2.19.79,4.71,4.71,0,0,0-1.34.09,6.42,6.42,0,0,0-4.79,6.25l.12.88a5.38,5.38,0,0,0,2,3.2l.53.34a6.9,6.9,0,0,0,2.16,2.21,4.22,4.22,0,0,0,3.2.42,4.17,4.17,0,0,0,2.48-1.91l.09-.19a10.45,10.45,0,0,0,3.26-1.51,7.54,7.54,0,0,0,2.64-2.8,6.94,6.94,0,0,0,.52-4.86A4.15,4.15,0,0,0,658.46,1042.4Z" transform="translate(-249.69 -213.9)"/><path class="cls-19" d="M699.13,1103.11a3.07,3.07,0,0,0-1.07-1.16l-.92-.54a3.25,3.25,0,0,0-1.59-.36h-1.3a12.43,12.43,0,0,0-2.26.39,10.07,10.07,0,0,0-3.14,1.53,14.47,14.47,0,0,0-1.71,1.42,13.07,13.07,0,0,0-1.37,1.77,8.77,8.77,0,0,0-1.33,3.28,3.13,3.13,0,0,0-.08,1.66,3.09,3.09,0,0,0,.5,1.54,4.13,4.13,0,0,0,2.48,1.91,11.72,11.72,0,0,0,2.12.27,12.13,12.13,0,0,0,2.09-.2,9.88,9.88,0,0,0,3-1.06l.92-.58a12,12,0,0,0,1.58-1.29,10.71,10.71,0,0,0,1.29-1.61l.09-.13.15-.28.32-.52a7.06,7.06,0,0,0,.68-1.88,8.06,8.06,0,0,0,0-3.17Z" transform="translate(-249.69 -213.9)"/><path class="cls-19" d="M743.52,1195.75a4.15,4.15,0,0,0-5.57-1.55l-.21-.15-1.31-.63a7.78,7.78,0,0,0-1.48-.49,4.21,4.21,0,0,0-3.61.74,4,4,0,0,0-1.65,3.26l0,.46,0,.31a4.11,4.11,0,0,0,.23,1.32,13.06,13.06,0,0,0,9.12,10,4.14,4.14,0,0,0,4-1.07,4.21,4.21,0,0,0,1.06-4,10.13,10.13,0,0,0-.6-1.76A6.81,6.81,0,0,0,743.52,1195.75Z" transform="translate(-249.69 -213.9)"/><path class="cls-19" d="M819.07,1094.44a8.41,8.41,0,0,0-1.69-2.4,10.24,10.24,0,0,0-2.32-1.78,12.07,12.07,0,0,0-5.94-1.51,4.33,4.33,0,0,0-2.93,1.21,4.24,4.24,0,0,0-1.22,2.94,4.44,4.44,0,0,0,.82,2.41l-.6.89-.78.59a4.16,4.16,0,0,0-1.22,2.94,4,4,0,0,0,1.22,2.93c.47.39,1,.75,1.47,1.13l.45.58a8.25,8.25,0,0,0,5.44,2.58,5.94,5.94,0,0,0,2.61-.33,8.3,8.3,0,0,0,2.94-1.75,7.78,7.78,0,0,0,1.55-2,8.25,8.25,0,0,0,.9-2.41,9.22,9.22,0,0,0,.22-2.56A9.76,9.76,0,0,0,819.07,1094.44Z" transform="translate(-249.69 -213.9)"/><path class="cls-19" d="M833.43,996.77a21.61,21.61,0,0,0-8.33,1.3,4.91,4.91,0,0,0-2.46.52,6.78,6.78,0,0,0-2.46,2.08,4.11,4.11,0,0,0-1.45,2.62v.23l-.08.28a7.69,7.69,0,0,0,1.81,7.14,6.64,6.64,0,0,0,7.88,1.06,7.27,7.27,0,0,0,3.82-5.34,20.16,20.16,0,0,0,4.23-2.8,4.2,4.2,0,0,0,1.06-1.84,4.11,4.11,0,0,0-.21-2.7A4.2,4.2,0,0,0,833.43,996.77Z" transform="translate(-249.69 -213.9)"/><path class="cls-19" d="M795.12,959.93a8.15,8.15,0,0,0-2.09-3.76,7.8,7.8,0,0,0-4.84-2.19,8.27,8.27,0,0,0-4.44,1,8.52,8.52,0,0,0-3.31,3.08,7.38,7.38,0,0,0-1.14,4.27,8.25,8.25,0,0,0,2.11,5,8.58,8.58,0,0,0,4.1,2.49h.06a6.6,6.6,0,0,0,1.9,2.2,6.24,6.24,0,0,0,3.06,1.33,5.79,5.79,0,0,0,6.36-4.05,6.74,6.74,0,0,0-1.57-6.28A9,9,0,0,0,795.12,959.93Z" transform="translate(-249.69 -213.9)"/><path class="cls-19" d="M860.2,1163.41a12.6,12.6,0,0,0-1.67-1.23l-.39-.86a4.21,4.21,0,0,0-2.48-1.91,4.58,4.58,0,0,0-3.2.42l-1.78.93-.14,0a3,3,0,0,0-1.6.36,4,4,0,0,0-2,1.7,6.1,6.1,0,0,0-.59,1.48,7.08,7.08,0,0,0-.17,1.52,6.39,6.39,0,0,0,.86,3,7.38,7.38,0,0,0,1,1.27l.4.38.35.28.12.15,1.2,1.09a7.67,7.67,0,0,0,3.33,1.61,8.11,8.11,0,0,0,2.08.19,9.52,9.52,0,0,0,1.6-.25,9,9,0,0,0,1.49-.58,3.22,3.22,0,0,0,1.16-1.07,3.18,3.18,0,0,0,.74-1.42,4.64,4.64,0,0,0,.09-1.61l.28-.38a4.65,4.65,0,0,0,.43-3.2A4.06,4.06,0,0,0,860.2,1163.41Z" transform="translate(-249.69 -213.9)"/><path class="cls-19" d="M928.85,1060.45a4,4,0,0,0-1.48-1.49c-2-1-4.18-2-6.49-1.85a7.85,7.85,0,0,0-3.72,1,8.28,8.28,0,0,0-2.56,2.51,6.85,6.85,0,0,0-1.06,3.46v.35a9.66,9.66,0,0,0,.21,1.4,5.48,5.48,0,0,0,.75,1.65,6.94,6.94,0,0,0,1.89,1.89,5.86,5.86,0,0,0,1.61.74,7.48,7.48,0,0,0,3.58,0,9.78,9.78,0,0,0,2.74-1,15.71,15.71,0,0,0,2.51-1.76,4.45,4.45,0,0,0,.91-1.44l.47-.45a4.22,4.22,0,0,0,1.07-1.84,3.09,3.09,0,0,0,.07-1.65A2.88,2.88,0,0,0,928.85,1060.45Z" transform="translate(-249.69 -213.9)"/><path class="cls-19" d="M972,972.19l-.32-.26-.43-.77a9.47,9.47,0,0,0-2.64-2.6,9.15,9.15,0,0,0-1.64-.78l-.9-.25a6.57,6.57,0,0,0-2.86,0,7,7,0,0,0-1.7.64,8,8,0,0,0-1.52,1.07l-.54.55a7,7,0,0,0-1.38,2.38,5.21,5.21,0,0,0-.25,1.47,3.74,3.74,0,0,0-.5,1.91,4.55,4.55,0,0,0,1.13,2.83,7.09,7.09,0,0,0,3,3.7c4,2.25,9.09,0,10.62-4.18l.53-.69.42-1a3.23,3.23,0,0,0,.08-1.66A3.85,3.85,0,0,0,972,972.19Z" transform="translate(-249.69 -213.9)"/><path class="cls-19" d="M995.09,1106.29a7.2,7.2,0,0,0-1.48-1.1,8,8,0,0,0-3.58-.94,7.63,7.63,0,0,0-3.64,1,8.55,8.55,0,0,0-1.66,1.22l-.53.55-.22.19a6.57,6.57,0,0,0-1.64,2.69l0,.08-.35.91-.4.91a4.17,4.17,0,0,0,.42,3.2l.65.84a4,4,0,0,0,1.83,1.07,18.23,18.23,0,0,0,2.74.77l.37.45a4.21,4.21,0,0,0,2.94,1.22,4.33,4.33,0,0,0,2.93-1.22,5.05,5.05,0,0,0,1.31-2.33l.1-.09a7.47,7.47,0,0,0,1.18-1.47,5.84,5.84,0,0,0,.77-1.82,6.62,6.62,0,0,0-.62-4.66A5.74,5.74,0,0,0,995.09,1106.29Z" transform="translate(-249.69 -213.9)"/><path class="cls-19" d="M982.07,1234a4.2,4.2,0,0,0-3.69-.21,4,4,0,0,0-2.41,2.69,15.08,15.08,0,0,0-.41,5.18l0,.21a10.29,10.29,0,0,0,.15,2.16,8.84,8.84,0,0,0,.88,2.56,9,9,0,0,0,3.74,3.89,4.27,4.27,0,0,0,3.19.42,4.58,4.58,0,0,0,2.48-1.91,10.78,10.78,0,0,0-3.95-15Z" transform="translate(-249.69 -213.9)"/><path class="cls-19" d="M1100.85,1174.57a4.19,4.19,0,0,0-3-3.37l-1.15-.24a4.14,4.14,0,0,0-2.75-1.07l-1.1.15a4.22,4.22,0,0,0-1.84,1.07l-1,.78a12.21,12.21,0,0,0-3.5,1.37l-.5.38a4.65,4.65,0,0,0-1.32.48,4.16,4.16,0,0,0-1.5,5.68l.66.84a3.91,3.91,0,0,0,1.83,1.07,16.52,16.52,0,0,0,6.74,1.18,18.78,18.78,0,0,0,7.5-1.87,4.12,4.12,0,0,0,2-3.59,4.18,4.18,0,0,0-.56-2.1Z" transform="translate(-249.69 -213.9)"/><path class="cls-19" d="M1223.24,1217.75a4.45,4.45,0,0,0-1.91-2.49,4.28,4.28,0,0,0-2.65-.49,4,4,0,0,0-2.39,1.14l-.74,1.06a6.06,6.06,0,0,0-1.25,2.46,6.31,6.31,0,0,0-.17,1.74l0,.61-.07.14a5.12,5.12,0,0,0-.57,1.54,7.29,7.29,0,0,0-.18,1.61,6.35,6.35,0,0,0,.91,3.09l1,1.2a6.08,6.08,0,0,0,2.26,1.31,3.09,3.09,0,0,0,1.65.07,3.21,3.21,0,0,0,1.55-.49l.84-.65a4.25,4.25,0,0,0,1.07-1.83l.19-.61a6,6,0,0,0,.73-6.78,5.77,5.77,0,0,0-.3-2.63" transform="translate(-249.69 -213.9)"/><path class="cls-19" d="M1238.84,1115.22a15.45,15.45,0,0,0-1.65-.91,7.84,7.84,0,0,0-2.78-3.43,6.43,6.43,0,0,0-9.16,2.4l-.32.08a4.46,4.46,0,0,0-2.07,1.34h0a4.13,4.13,0,0,0-1.49,5.68,4.68,4.68,0,0,0,2.48,1.91,16,16,0,0,0,1.52.51l.57.39a8.16,8.16,0,0,0,8.22.34,22.55,22.55,0,0,0,3.71-.73,4.16,4.16,0,0,0,3-3.45A4.21,4.21,0,0,0,1238.84,1115.22Z" transform="translate(-249.69 -213.9)"/><path class="cls-19" d="M1137.44,1068.1a10.19,10.19,0,0,0-5.81-.26,11,11,0,0,0-2.6.53,12.31,12.31,0,0,0-3.41,1.63,14.06,14.06,0,0,0-3.35,3.36,4.12,4.12,0,0,0-.41,3.2,4.49,4.49,0,0,0,1.9,2.49,7.52,7.52,0,0,0,2.41,1l.13,0a8.52,8.52,0,0,0,1.82.19h.52A13.92,13.92,0,0,0,1134,1079l1.22-.67a9.57,9.57,0,0,0,4.69-4.09,4.09,4.09,0,0,0,.21-3.7A4.33,4.33,0,0,0,1137.44,1068.1Z" transform="translate(-249.69 -213.9)"/><path class="cls-19" d="M1046.44,1019.13a4.24,4.24,0,0,0-5.63,1.43l-.32.07a11.22,11.22,0,0,0-4.61,2.64,14.83,14.83,0,0,0-3.42,4.33c-.25.45-.45.93-.66,1.41l-.35.88a4.31,4.31,0,0,0,.41,3.2c.42.86.92,1.68,1.38,2.51l.58.78.08.37a4.07,4.07,0,0,0,1.49,2.16,4.2,4.2,0,0,0,4.62.33,11.88,11.88,0,0,0,4.45-4.31,9.09,9.09,0,0,0,1.5-1.32,12.39,12.39,0,0,0,2.79-5,7,7,0,0,0-.4-4.81A4.24,4.24,0,0,0,1046.44,1019.13Z" transform="translate(-249.69 -213.9)"/><path class="cls-19" d="M1143.58,994.93a8.07,8.07,0,0,0-2.74-2.74,17.31,17.31,0,0,0-4.87-2.6c-3.79-1.21-8.29.22-10.18,3.74l-.63.76a4,4,0,0,0-2.28,1.11,4.23,4.23,0,0,0-1.21,2.93,4.16,4.16,0,0,0,1.21,2.94,4,4,0,0,0,2.94,1.22l.66,0,0,0a9,9,0,0,0,6,2.79,9.12,9.12,0,0,0,2.28-.1,14.43,14.43,0,0,0,6.69-.51,4.18,4.18,0,0,0,2.66-5.56A5.42,5.42,0,0,0,1143.58,994.93Z" transform="translate(-249.69 -213.9)"/><path class="cls-3" d="M669.14,992l-4.42-.6a16.55,16.55,0,0,0-8.38,2.27,282.51,282.51,0,0,0-84.43,57.1A266.35,266.35,0,0,0,553,1071.33c-2.9,3.47-4.87,7.08-4.87,11.75a16.9,16.9,0,0,0,4.87,11.75c3.17,2.91,7.31,5.07,11.75,4.86,4.16-.18,9-1.52,11.74-4.86a253.1,253.1,0,0,1,96.63-72.43c3.55-1.55,6.66-6.38,7.63-9.93a17,17,0,0,0-1.66-12.81C676.78,996.12,673.38,993,669.14,992Z" transform="translate(-249.69 -213.9)"/><path class="cls-3" d="M738.59,976.32a16.79,16.79,0,0,0-6-6l-4-1.67a16.51,16.51,0,0,0-8.82,0l-16.76,6.86a12.34,12.34,0,0,0-5.65,3,17.06,17.06,0,0,0-6,17.46c.55,1.33,1.11,2.65,1.67,4a16.85,16.85,0,0,0,6,6l4,1.67a16.75,16.75,0,0,0,8.83,0l16.75-6.85a17.13,17.13,0,0,0,11.61-20.45C739.7,979,739.14,977.65,738.59,976.32Z" transform="translate(-249.69 -213.9)"/><path class="cls-3" d="M1296.89,1559.25c-2.28-3.54-5.69-6.66-9.93-7.63a17,17,0,0,0-12.8,1.67,169.11,169.11,0,0,1-21.5,11.27q-6.3,2.54-12.79,4.58a17.41,17.41,0,0,0-9.92,7.63c-2.09,3.56-3,8.82-1.68,12.8s3.79,7.91,7.64,9.94,8.49,3,12.8,1.67a185.08,185.08,0,0,0,42.22-19.19,17.35,17.35,0,0,0,7.63-9.93C1299.66,1568.08,1299.18,1562.78,1296.89,1559.25Z" transform="translate(-249.69 -213.9)"/><path class="cls-26" d="M718.12,1364.94a4.33,4.33,0,0,0-1.28.2l-6.64.95-1.32.55-1.13.87-.68.86-.05,0a4,4,0,0,0-1.57,1.43,2.78,2.78,0,0,0-.71,1.22,4.17,4.17,0,0,0-.46,2.12,10.44,10.44,0,0,0,1.42,5,12,12,0,0,0,3.61,3.72,12.35,12.35,0,0,0,2.38,1.13l1.25.37a13,13,0,0,0,2.19.26,2.75,2.75,0,0,0,.4,0,10.24,10.24,0,0,0,2.69-.45l1-.4.24-.06a5.59,5.59,0,0,0,2.46-1.42l.51-.66.86-1.25a11.72,11.72,0,0,0-.17-11.76l-.86-1.12a4.3,4.3,0,0,0-1.78-1.16,2.85,2.85,0,0,0-1.39-.36,4.29,4.29,0,0,0-.93-.11" transform="translate(-249.69 -213.9)"/><path class="cls-27" d="M811.9,1596.43a4.27,4.27,0,0,0-1.31.21l-6.63.94-1.33.56-1.12.86-.67.86-.06,0a3.88,3.88,0,0,0-1.55,1.42,2.6,2.6,0,0,0-.72,1.22,4.17,4.17,0,0,0-.47,2.14,10.16,10.16,0,0,0,1.42,5,11.77,11.77,0,0,0,3.61,3.72,11.54,11.54,0,0,0,2.38,1.13l1.25.36a12.26,12.26,0,0,0,2.23.27h.36a10.25,10.25,0,0,0,2.69-.46l.95-.4.26-.06a5.64,5.64,0,0,0,2.44-1.42l.51-.66.88-1.25a11.76,11.76,0,0,0-.17-11.76l-.87-1.12a4.19,4.19,0,0,0-1.78-1.15,2.79,2.79,0,0,0-1.4-.37,4,4,0,0,0-.9-.11" transform="translate(-249.69 -213.9)"/><path class="cls-28" d="M962.68,1422.23l-1.48.19a4.12,4.12,0,0,0-1.89,1l-1,1a3.15,3.15,0,0,0-.71,1.23,2.84,2.84,0,0,0-.37,1.4,4.78,4.78,0,0,0-.06,1.46,10.76,10.76,0,0,0-.84,1.31,12.55,12.55,0,0,0-1.46,5.53c0,.48.12,1,.19,1.47l.56,1.32.86,1.12a4.13,4.13,0,0,0,1.78,1.14,2.69,2.69,0,0,0,1.4.39,3.06,3.06,0,0,0,.74.09,3.27,3.27,0,0,0,.75-.09,2.67,2.67,0,0,0,1.38-.39,4.07,4.07,0,0,0,1.78-1.14l.31-.34,1.34.17h.35a12.73,12.73,0,0,0,1.74-.22l.29-.09a10.74,10.74,0,0,0,1.48-.62,7.15,7.15,0,0,0,1.52-1.13l.38-.38a8.86,8.86,0,0,0,1.11-1.54,8.59,8.59,0,0,0,.7-1.77,14.52,14.52,0,0,0,.21-1.63v-.28a6.53,6.53,0,0,0-.57-2.47l-.37-.84-.08-.1-.92-1.19a11.67,11.67,0,0,0-2.59-1.72l-3.74-2.12-1.33-.56-1.45-.19" transform="translate(-249.69 -213.9)"/><path class="cls-29" d="M554.89,1267.36h-.21a17.49,17.49,0,0,0-2.4.3l-1.09.31a15.82,15.82,0,0,0-2.3,1,16.72,16.72,0,0,0-1.95,1.42l-.9.82a12.87,12.87,0,0,0-2.06,2.89,15.4,15.4,0,0,0-.91,2.33,13.55,13.55,0,0,0-.38,2.54,4.77,4.77,0,0,0,1.12,3.32,6.75,6.75,0,0,0,1,3.67,7.43,7.43,0,0,0,2.42,2.41l1,.48,1.09.42a9.42,9.42,0,0,0,2,.25h.24a8.89,8.89,0,0,0,3.53-.93,7.09,7.09,0,0,0,1.75-1.26l.71-.86.62-.88h0l.47-.12a9.14,9.14,0,0,0,1.66-.74,7.76,7.76,0,0,0,2.6-2.62,5.56,5.56,0,0,0,0-5.59l-.75-1-.15-.71a7.67,7.67,0,0,0-1.06-2.29,9.79,9.79,0,0,0-1.46-3,5.77,5.77,0,0,0-4.63-2.19" transform="translate(-249.69 -213.9)"/><path class="cls-29" d="M1236,1642.78h-.23a17.49,17.49,0,0,0-2.4.3l-1.09.31a16.14,16.14,0,0,0-2.29,1,16.83,16.83,0,0,0-2,1.42l-.89.83a12.56,12.56,0,0,0-2.06,2.89,15.4,15.4,0,0,0-.91,2.33,13.57,13.57,0,0,0-.38,2.53,4.86,4.86,0,0,0,1.12,3.33,6.89,6.89,0,0,0,1,3.66,7.62,7.62,0,0,0,2.42,2.44l1,.46,1.09.41a8.74,8.74,0,0,0,2,.26h.25a8.84,8.84,0,0,0,3.51-.93,6.85,6.85,0,0,0,1.77-1.26l.7-.86.62-.88h0l.45-.13a8.8,8.8,0,0,0,1.66-.73,7.85,7.85,0,0,0,2.6-2.62,5.49,5.49,0,0,0,0-5.58l-.74-1-.15-.71a8.17,8.17,0,0,0-1-2.29,10.62,10.62,0,0,0-1.47-3,5.75,5.75,0,0,0-4.62-2.18" transform="translate(-249.69 -213.9)"/><path class="cls-28" d="M517.39,1432.14h-.21a14.73,14.73,0,0,0-2.39.3l-1.09.31a16.72,16.72,0,0,0-2.3,1,16,16,0,0,0-1.95,1.43l-.9.82a12,12,0,0,0-2,2.9,14.7,14.7,0,0,0-.93,2.33,15.34,15.34,0,0,0-.38,2.52,5,5,0,0,0,1.11,3.34,7.21,7.21,0,0,0,1,3.67,7.73,7.73,0,0,0,2.42,2.41l1,.47,1.1.42a9.34,9.34,0,0,0,2,.26h.25a8.56,8.56,0,0,0,3.51-.93,6.62,6.62,0,0,0,1.77-1.26l.7-.86.62-.88h0l.46-.11a10.2,10.2,0,0,0,1.66-.73,7.82,7.82,0,0,0,2.59-2.62,5.49,5.49,0,0,0,0-5.59l-.73-1-.15-.71a7.72,7.72,0,0,0-1.06-2.3,9.27,9.27,0,0,0-1.47-3,5.75,5.75,0,0,0-4.64-2.19" transform="translate(-249.69 -213.9)"/><path class="cls-28" d="M1024.57,1455a6.15,6.15,0,0,0-.87.06,6.29,6.29,0,0,0-2.44.81,6.64,6.64,0,0,0-2.33,2.35,8.22,8.22,0,0,0-.71,1.61l-.09.37-.2,1.27h0l-.58.4a4,4,0,0,0-1.61.62,5.55,5.55,0,0,0-2.54,3.29,5.65,5.65,0,0,0,.56,4.28,5.48,5.48,0,0,0,3.31,2.54,37.26,37.26,0,0,1,4.67,1.1,16.39,16.39,0,0,0,3.63,1.3,6.72,6.72,0,0,0,1.48.17,5.48,5.48,0,0,0,2.78-.73,5.54,5.54,0,0,0,2-7.57h0l.09-.12a5.61,5.61,0,0,0,.55-4.26,5.93,5.93,0,0,0-1.88-2.87l0-.14a6.44,6.44,0,0,0-2.73-3.65,5.74,5.74,0,0,0-3-.83" transform="translate(-249.69 -213.9)"/><path class="cls-30" d="M993.73,1711.07a4.14,4.14,0,0,0-2,.48,3.1,3.1,0,0,0-1.21.71,4.37,4.37,0,0,0-1.43,1.56l-.39.89-1.55,2.2-.56,1.32a4.16,4.16,0,0,0-.1,2.21l.07.53-.13,1.2a8.05,8.05,0,0,0,.94,3.72,4,4,0,0,0,1.42,1.55,4.15,4.15,0,0,0,1.43.85,4,4,0,0,0,1.75,1.13,2.77,2.77,0,0,0,1.4.37,3.69,3.69,0,0,0,.93.11,4.38,4.38,0,0,0,1.28-.2,8.07,8.07,0,0,0,3.06-1.81,6.81,6.81,0,0,0,1.42-1.87,8.8,8.8,0,0,0,.93-3.25,4.6,4.6,0,0,0,.75-1.63,7.12,7.12,0,0,0-.09-3.37,12.19,12.19,0,0,0-.74-1.84l-.35-.63a8.52,8.52,0,0,0-1.71-2,13.21,13.21,0,0,0-1.58-1.17,13.81,13.81,0,0,0-1.93-.82l-1.46-.19h-.2" transform="translate(-249.69 -213.9)"/><path class="cls-30" d="M1066.24,1124.16a4.19,4.19,0,0,0-2,.47,2.94,2.94,0,0,0-1.22.71,4.29,4.29,0,0,0-1.43,1.56l-.39.89c-.51.74-1,1.47-1.55,2.2l-.56,1.33a4.12,4.12,0,0,0-.1,2.2l.07.53-.13,1.2a7.84,7.84,0,0,0,1,3.71,4,4,0,0,0,1.42,1.56,4.26,4.26,0,0,0,1.41.85,3.92,3.92,0,0,0,1.77,1.12,2.68,2.68,0,0,0,1.39.39,4.27,4.27,0,0,0,2.21-.1,8.18,8.18,0,0,0,3.06-1.81,6.7,6.7,0,0,0,1.43-1.87,8.66,8.66,0,0,0,.91-3.25,4.17,4.17,0,0,0,.75-1.62,7.2,7.2,0,0,0-.08-3.39,10.63,10.63,0,0,0-.74-1.83l-.32-.63a9.41,9.41,0,0,0-1.74-2,14,14,0,0,0-1.58-1.16,12.71,12.71,0,0,0-1.93-.82l-1.46-.2h-.16" transform="translate(-249.69 -213.9)"/><path class="cls-30" d="M584.71,1191.18a6.11,6.11,0,0,0-1.72.23,8.38,8.38,0,0,0-5.11,4.7,9.36,9.36,0,0,0-1.26,1.59,8.07,8.07,0,0,0-.39,8,5.08,5.08,0,0,0,.66,3.77l.11.17v.07a5.86,5.86,0,0,0,1.64,3.92,5.65,5.65,0,0,0,3.74,1.62h.16a6.17,6.17,0,0,0,2.9-.81,13.42,13.42,0,0,0,6.1-.32,5.42,5.42,0,0,0,2.87-2,5.88,5.88,0,0,0,1.19-3.36,19,19,0,0,0-.58-6.58,19.21,19.21,0,0,0-2.72-6,15.76,15.76,0,0,0-2.49-3,7.67,7.67,0,0,0-3.23-1.78,8.12,8.12,0,0,0-1.87-.22" transform="translate(-249.69 -213.9)"/><path class="cls-28" d="M463.16,1404.32a6.25,6.25,0,0,0-1.74.24,8.39,8.39,0,0,0-5.11,4.71,9.88,9.88,0,0,0-1.26,1.59,8.05,8.05,0,0,0-.39,7.94,5.09,5.09,0,0,0,.67,3.77l.1.18,0,.07a5.82,5.82,0,0,0,1.62,3.92,5.71,5.71,0,0,0,3.75,1.62H461a6.18,6.18,0,0,0,2.88-.81,14.61,14.61,0,0,0,2.38.2,13.67,13.67,0,0,0,3.74-.52,5.55,5.55,0,0,0,2.87-2,6.13,6.13,0,0,0,1.19-3.36,18.55,18.55,0,0,0-.59-6.59,18.94,18.94,0,0,0-2.72-6,15.41,15.41,0,0,0-2.48-3,7.61,7.61,0,0,0-3.24-1.79,8,8,0,0,0-1.85-.23" transform="translate(-249.69 -213.9)"/><path class="cls-27" d="M504.12,1504.05a5.52,5.52,0,0,0-4.59,2.74,5.59,5.59,0,0,0-.17,5.24,8.52,8.52,0,0,0-1.65,7.51,7.28,7.28,0,0,0,3.49,4.42l1,.42c.22.53.47,1.06.74,1.57a5.56,5.56,0,0,0,4.78,2.74,5.43,5.43,0,0,0,4.79-2.74,10,10,0,0,1,.94-1.66l.9-.92a10.44,10.44,0,0,1,1.85-1,5.45,5.45,0,0,0,2.54-3.31,5.68,5.68,0,0,0-.26-3.6l-.27-.53.06-.53a8.29,8.29,0,0,0-.52-3.45,10.23,10.23,0,0,0-2.36-3.9,8.53,8.53,0,0,0-3.84-2.23,7.93,7.93,0,0,0-1.91-.24l-.6,0a24.58,24.58,0,0,0-4.68-.53h-.2" transform="translate(-249.69 -213.9)"/><path class="cls-30" d="M629.06,1677.79a8,8,0,0,0-4.47,1.35,12.4,12.4,0,0,0-5,8.35c-.09.47-.15,1-.2,1.42a8.7,8.7,0,0,0-1.5,2.61,7,7,0,0,0-1.63,2,8.13,8.13,0,0,0,.15,8,7.94,7.94,0,0,0,4.34,3.29,7.51,7.51,0,0,0,2.5.4,13.59,13.59,0,0,0,2.37-.23,19.73,19.73,0,0,0,5.24-2.14l.36-.11,1,.08h.24a5.52,5.52,0,0,0,5.1-6.82,9.65,9.65,0,0,0,2-6.75,13.37,13.37,0,0,0-3.88-8.79,9.88,9.88,0,0,0-6.56-2.65" transform="translate(-249.69 -213.9)"/><path class="cls-29" d="M1268.87,1266a4.61,4.61,0,0,0-3.68,1.6c-1,1.2-1.94,2.43-2.9,3.68a10.2,10.2,0,0,0-2.6-.37h0a5.72,5.72,0,0,0-5.29,4.07l-.24.79-.15.25-.29.67c-.58,1.33-1.18,2.65-1.67,4a15.2,15.2,0,0,0-1,6.43l.09.61-.19.33a5.6,5.6,0,0,0,2,7.58,6.15,6.15,0,0,0,2.81.7l.4,0a10,10,0,0,0,4.83,1.64c.24,0,.49,0,.73,0,4.49,0,8.32-3.36,10.5-7.11a14.9,14.9,0,0,0,5.13-2.73c3.88-3.13,6.42-9.23,3.23-13.75a9.68,9.68,0,0,0-6.08-3.92,5.12,5.12,0,0,0-2-3.32,5.94,5.94,0,0,0-3.59-1.17" transform="translate(-249.69 -213.9)"/><path class="cls-29" d="M1333.26,1219.45a2.19,2.19,0,0,0-1.74.76c-.46.58-.93,1.16-1.37,1.75l-1.24-.18h0a2.72,2.72,0,0,0-2.51,1.93l-.12.39,0,.1-.15.32c-.27.63-.56,1.26-.79,1.91a7.2,7.2,0,0,0-.45,3l0,.29-.11.15a2.67,2.67,0,0,0,.94,3.59,2.82,2.82,0,0,0,1.34.33h.2a4.66,4.66,0,0,0,2.28.77h.35c2.13,0,3.94-1.59,5-3.37a6.84,6.84,0,0,0,2.42-1.29c1.85-1.48,3-4.37,1.54-6.51a4.53,4.53,0,0,0-2.89-1.86,2.52,2.52,0,0,0-1-1.59,2.83,2.83,0,0,0-1.7-.55" transform="translate(-249.69 -213.9)"/><path class="cls-30" d="M1181.63,1173.7a19.6,19.6,0,0,0-7.28,1.34,5.88,5.88,0,0,0-3.31,2.54,5.62,5.62,0,0,0-.65,3.53,5.74,5.74,0,0,0,2.32,3.84l.17,1.23a45.31,45.31,0,0,0,3.26,8.7,18.86,18.86,0,0,0,2.69,4.16,8.29,8.29,0,0,0,5.93,2.78h.2c3.78,0,6.74-2.86,7.83-6.31a9.13,9.13,0,0,0,.41-3.19l0-.12v0l.84-.67c3.05-2.8,4.23-7.88,2.05-11.52l-.61-.9-.41-.49-.14-.15-.41-.41a9.84,9.84,0,0,0-2.32-1.59,21.51,21.51,0,0,0-10.61-2.75" transform="translate(-249.69 -213.9)"/><path class="cls-31" d="M1098.84,932.43c-6.51,36.13-13.23,72.79-29.75,105.57-19.46,38.65-51.54,69.69-86.86,94.67s-74.14,44.53-112,65.51a154.79,154.79,0,0,0-25.22,17.13,70.31,70.31,0,0,0-11.22,11.79l-2.33,3.32c1.75-3.29,3.43-6.67,5-10.06l.08-.13c1.55-3.33,3-6.7,4.53-10.07,14.47-32.55,28.93-65.2,39.31-99.26,7.5-24.68,12.9-50.2,24.28-73.34,17.42-35.33,48.79-63.46,85.65-77.39,12.71-4.83,26-8,39.24-11.16Q1064.22,940.75,1098.84,932.43Z" transform="translate(-249.69 -213.9)"/><path class="cls-32" d="M1061.44,968.25c-15.71,20.8-32.76,40.48-50.42,59.58-31.64,34.2-65.16,66.54-96.77,100.76-25.11,27.16-49,55.67-69.2,86.72a70.31,70.31,0,0,0-11.22,11.79l-2.33,3.32c1.75-3.29,3.43-6.67,5-10.06l.08-.13a513.59,513.59,0,0,1,33.57-47.4c29-36.56,61.88-69.72,94.42-103s65.18-67.09,93.4-104.37C1059.7,963.11,1063.19,966,1061.44,968.25Z" transform="translate(-249.69 -213.9)"/><path class="cls-32" d="M942.78,845.87c9.83,35.36,19.72,71.3,19.09,108-.74,43.26-16.14,85.17-37.08,123s-47.43,72.32-72.38,107.66a155.65,155.65,0,0,0-15.28,26.39,71.57,71.57,0,0,0-5,15.49l-.65,4c.14-3.73.18-7.5.14-11.24V1219c0-3.68-.17-7.36-.28-11-1.12-35.61-2.28-71.29-7.75-106.49-4-25.48-10.19-50.82-10-76.59C814,985.52,830,946.54,857.14,918c9.35-9.87,20-18.49,30.49-27.1Q915.21,868.38,942.78,845.87Z" transform="translate(-249.69 -213.9)"/><path class="cls-31" d="M924.67,894.38c-5.12,25.56-11.93,50.69-19.52,75.57-13.63,44.55-29.77,88.24-43.37,132.78-10.83,35.39-20,71.45-24.65,108.19a71.57,71.57,0,0,0-5,15.49l-.65,4c.14-3.73.18-7.5.14-11.24V1219a515.37,515.37,0,0,1,9.65-57.29c10.2-45.51,25.42-89.67,40.26-133.81s29.55-88.74,38.76-134.57C920.87,890.5,925.24,891.55,924.67,894.38Z" transform="translate(-249.69 -213.9)"/></svg>