<svg id="Layer_2" data-name="Layer 2" xmlns="http://www.w3.org/2000/svg" viewBox="0 0 512.07 371.92"><defs><style>.cls-1{fill: #fff; fill-rule:evenodd;}</style></defs><path class="cls-1" d="M638.81,743.13H829.6C843,743.13,854,731.8,854,718V575.91c0-13.84-11-25.17-24.4-25.17H714.73q26-86.3,139.27-143.93l-33.47-35.6C660.77,397.34,623.12,531.86,615.91,567.32a25.47,25.47,0,0,0-1.51,8.59V718C614.4,731.8,625.39,743.13,638.81,743.13Z" transform="translate(-341.93 -371.21)"/><path class="cls-1" d="M366.33,743.13H557.12c13.43,0,24.41-11.33,24.41-25.17V575.91c0-13.84-11-25.17-24.41-25.17H442.25q26-86.3,139.28-143.93l-33.47-35.6C388.3,397.34,350.65,531.86,343.44,567.32a25.47,25.47,0,0,0-1.51,8.59V718C341.93,731.8,352.91,743.13,366.33,743.13Z" transform="translate(-341.93 -371.21)"/></svg>