<svg id="Layer_1" data-name="Layer 1" xmlns="http://www.w3.org/2000/svg" viewBox="0 0 3379.57 2422.94"><defs><style>.cls-1{fill-rule:evenodd;}</style></defs><path class="cls-1" d="M3394.93,3767.62c-1137.91,0-1019.25-1936.73,191.84-2422.95a106.91,106.91,0,0,1,68.54,167.94q-561.9,458.78-519.44,865.93a788.77,788.77,0,0,1,259.06-43.38c416.36,0,753.92,320.63,753.92,716.25s-337.56,716.21-753.92,716.21" transform="translate(-769.28 -1344.67)"/><path class="cls-1" d="M1558.1,3767.62c-1138,0-1019.25-1936.73,191.79-2422.95a106.91,106.91,0,0,1,68.54,167.94Q1256.51,1971.39,1299,2378.54a789.17,789.17,0,0,1,259.12-43.38c416.36,0,753.92,320.63,753.92,716.25s-337.56,716.21-753.92,716.21" transform="translate(-769.28 -1344.67)"/></svg>