<svg id="Layer_2" data-name="Layer 2" xmlns="http://www.w3.org/2000/svg" viewBox="0 0 836.35 858"><defs><style>.cls-1{fill:#231f20;}</style></defs><path class="cls-1" d="M1006.91,440.08a428,428,0,0,0-89.48-136.34,416.24,416.24,0,0,0-132.92-92.05,409.7,409.7,0,0,0-325.95,0,416.24,416.24,0,0,0-132.92,92.05,428,428,0,0,0-89.48,136.34,440.52,440.52,0,0,0,0,333.6A428,428,0,0,0,325.64,910a416.24,416.24,0,0,0,132.92,92.05,409.7,409.7,0,0,0,326,0A416.24,416.24,0,0,0,917.43,910a428,428,0,0,0,89.48-136.34,440.52,440.52,0,0,0,0-333.6ZM685.53,768.56l0-.91.11-.1C685.62,767.88,685.58,768.22,685.53,768.56ZM870.78,882.11c-44.8-29-94.39-44.55-124.8-54.1-8.9-2.8-16.6-5.22-22-7.25L711,811.49c-17.93-22-1.7-66.37-1.51-66.89l2.12-5.61a182,182,0,0,0,31.2-39h0a230.66,230.66,0,0,0,24.53-57.74c.47.15.92.36,1.4.47a18.46,18.46,0,0,0,3,.48l8.5.7a19.76,19.76,0,0,0,14.31-4.48,18.91,18.91,0,0,0,6.91-13l6.89-80.05a19.38,19.38,0,0,0-13.78-20c9.84-80.3,2.42-208.12-140.61-221.35C443.77,285.56,470,400.42,470,400.42c-49.89,39.32-44.52,95.28-29.18,138.25a18.64,18.64,0,0,0-1.08,9.81l12.67,79.38a19.64,19.64,0,0,0,19.4,16.24,20.56,20.56,0,0,0,3-.22l8.43-1.29a20.11,20.11,0,0,0,3.21-.81c12.54,45.69,36.75,83.68,67.66,107.2,4.18,12.34,9.86,37.48,2,54.61-3.79,8.2-10.21,13.79-19.64,17.09-5.85,2-14.22,4.46-23.91,7.26-33.68,9.75-89.06,25.77-138.45,55.93-72.74-68.84-118.4-167.53-118.4-277,0-207.53,164.1-376.36,365.79-376.36s365.8,168.83,365.8,376.36C987.33,715.41,942.45,813.35,870.78,882.11Z" transform="translate(-203.36 -177.88)"/></svg>